STARTFONT 2.1
COMMENT
COMMENT Converted from OpenType font "FreeSans.ttf" by "otf2bdf 3.0".
COMMENT
FONT -FreeType-FreeSans-Medium-R-Normal--11-80-100-100-P-62-ISO10646-1
SIZE 8 100 100
FONTBOUNDINGBOX 34 15 -13 -3
STARTPROPERTIES 19
FOUNDRY "FreeType"
FAMILY_NAME "FreeSans"
WEIGHT_NAME "Medium"
SLANT "R"
SETWIDTH_NAME "Normal"
ADD_STYLE_NAME ""
PIXEL_SIZE 11
POINT_SIZE 80
RESOLUTION_X 100
RESOLUTION_Y 100
SPACING "P"
AVERAGE_WIDTH 62
CHARSET_REGISTRY "ISO10646"
CHARSET_ENCODING "1"
FONT_ASCENT 9
FONT_DESCENT 2
COPYRIGHT "Copyright 2002, 2003, 2005, 2008, 2009, 2010, 2012 GNU Freefont contributors."
_OTF_FONTFILE "FreeSans.ttf"
_OTF_PSNAME "FreeSans"
ENDPROPERTIES
CHARS 4472
STARTCHAR 0020
ENCODING 32
SWIDTH 270 0
DWIDTH 3 0
BBX 0 0 0 0
BITMAP
ENDCHAR
STARTCHAR 0021
ENCODING 33
SWIDTH 360 0
DWIDTH 4 0
BBX 1 8 1 0
BITMAP
80
80
80
80
80
80
00
80
ENDCHAR
STARTCHAR 0022
ENCODING 34
SWIDTH 360 0
DWIDTH 4 0
BBX 3 3 0 5
BITMAP
A0
A0
20
ENDCHAR
STARTCHAR 0023
ENCODING 35
SWIDTH 540 0
DWIDTH 6 0
BBX 6 8 0 0
BITMAP
28
28
7C
28
48
FC
50
50
ENDCHAR
STARTCHAR 0024
ENCODING 36
SWIDTH 540 0
DWIDTH 6 0
BBX 6 9 0 -1
BITMAP
78
68
A0
60
18
24
A4
78
20
ENDCHAR
STARTCHAR 0025
ENCODING 37
SWIDTH 900 0
DWIDTH 10 0
BBX 9 8 0 0
BITMAP
2000
D200
9400
7400
0900
0A80
1480
2380
ENDCHAR
STARTCHAR 0026
ENCODING 38
SWIDTH 630 0
DWIDTH 7 0
BBX 6 8 1 0
BITMAP
60
90
50
60
E8
98
88
FC
ENDCHAR
STARTCHAR 0027
ENCODING 39
SWIDTH 180 0
DWIDTH 2 0
BBX 1 2 1 5
BITMAP
80
80
ENDCHAR
STARTCHAR 0028
ENCODING 40
SWIDTH 360 0
DWIDTH 4 0
BBX 2 10 1 -2
BITMAP
40
80
80
80
80
80
80
80
80
40
ENDCHAR
STARTCHAR 0029
ENCODING 41
SWIDTH 360 0
DWIDTH 4 0
BBX 3 10 0 -2
BITMAP
80
40
40
20
20
20
20
40
40
40
ENDCHAR
STARTCHAR 002A
ENCODING 42
SWIDTH 360 0
DWIDTH 4 0
BBX 3 3 1 5
BITMAP
80
E0
C0
ENDCHAR
STARTCHAR 002B
ENCODING 43
SWIDTH 540 0
DWIDTH 6 0
BBX 5 5 1 0
BITMAP
20
20
F8
20
20
ENDCHAR
STARTCHAR 002C
ENCODING 44
SWIDTH 270 0
DWIDTH 3 0
BBX 1 3 1 -2
BITMAP
80
80
80
ENDCHAR
STARTCHAR 002D
ENCODING 45
SWIDTH 360 0
DWIDTH 4 0
BBX 2 1 1 3
BITMAP
C0
ENDCHAR
STARTCHAR 002E
ENCODING 46
SWIDTH 270 0
DWIDTH 3 0
BBX 1 1 1 0
BITMAP
80
ENDCHAR
STARTCHAR 002F
ENCODING 47
SWIDTH 270 0
DWIDTH 3 0
BBX 3 8 0 0
BITMAP
20
20
40
40
40
80
80
80
ENDCHAR
STARTCHAR 0030
ENCODING 48
SWIDTH 540 0
DWIDTH 6 0
BBX 6 8 0 0
BITMAP
30
48
84
84
84
84
48
30
ENDCHAR
STARTCHAR 0031
ENCODING 49
SWIDTH 540 0
DWIDTH 6 0
BBX 2 8 2 0
BITMAP
40
C0
40
40
40
40
40
40
ENDCHAR
STARTCHAR 0032
ENCODING 50
SWIDTH 540 0
DWIDTH 6 0
BBX 6 8 0 0
BITMAP
30
48
44
08
18
60
40
7C
ENDCHAR
STARTCHAR 0033
ENCODING 51
SWIDTH 540 0
DWIDTH 6 0
BBX 6 8 0 0
BITMAP
30
48
08
18
08
04
84
78
ENDCHAR
STARTCHAR 0034
ENCODING 52
SWIDTH 540 0
DWIDTH 6 0
BBX 6 8 0 0
BITMAP
08
18
28
48
48
78
08
08
ENDCHAR
STARTCHAR 0035
ENCODING 53
SWIDTH 540 0
DWIDTH 6 0
BBX 6 8 0 0
BITMAP
78
40
40
78
08
08
08
78
ENDCHAR
STARTCHAR 0036
ENCODING 54
SWIDTH 540 0
DWIDTH 6 0
BBX 6 8 0 0
BITMAP
30
48
40
70
48
48
48
78
ENDCHAR
STARTCHAR 0037
ENCODING 55
SWIDTH 540 0
DWIDTH 6 0
BBX 6 8 0 0
BITMAP
FC
08
08
10
10
20
20
20
ENDCHAR
STARTCHAR 0038
ENCODING 56
SWIDTH 540 0
DWIDTH 6 0
BBX 6 8 0 0
BITMAP
78  
84
84
78
48
84
84
78
ENDCHAR
STARTCHAR 0039
ENCODING 57
SWIDTH 540 0
DWIDTH 6 0
BBX 6 8 0 0
BITMAP
30
48
C8
C8
78
08
48
78
ENDCHAR
STARTCHAR 003A
ENCODING 58
SWIDTH 270 0
DWIDTH 3 0
BBX 1 6 1 0
BITMAP
80
00
00
00
80
00
ENDCHAR
STARTCHAR 003B
ENCODING 59
SWIDTH 270 0
DWIDTH 3 0
BBX 1 7 1 -2
BITMAP
80
00
00
00
00
80
80
ENDCHAR
STARTCHAR 003C
ENCODING 60
SWIDTH 540 0
DWIDTH 6 0
BBX 6 5 0 0
BITMAP
0C
30
C0
30
0C
ENDCHAR
STARTCHAR 003D
ENCODING 61
SWIDTH 540 0
DWIDTH 6 0
BBX 5 3 1 1
BITMAP
F8
00
F8
ENDCHAR
STARTCHAR 003E
ENCODING 62
SWIDTH 540 0
DWIDTH 6 0
BBX 5 5 1 0
BITMAP
80
70
08
70
80
ENDCHAR
STARTCHAR 003F
ENCODING 63
SWIDTH 540 0
DWIDTH 6 0
BBX 5 8 1 0
BITMAP
F0
88
18
10
20
20
00
20
ENDCHAR
STARTCHAR 0040
ENCODING 64
SWIDTH 990 0
DWIDTH 11 0
BBX 10 10 0 -2
BITMAP
1F00
20C0
4740
4940
9140
9240
5EC0
4100
3100
0E00
ENDCHAR
STARTCHAR 0041
ENCODING 65
SWIDTH 630 0
DWIDTH 7 0
BBX 7 8 0 0
BITMAP
18
38
28
2C
44
7C
46
82
ENDCHAR
STARTCHAR 0042
ENCODING 66
SWIDTH 630 0
DWIDTH 7 0
BBX 6 8 1 0
BITMAP
F8
88
88
F8
88
84
84
F8
ENDCHAR
STARTCHAR 0043
ENCODING 67
SWIDTH 720 0
DWIDTH 8 0
BBX 7 8 0 0
BITMAP
3C
42
40
80
80
42
42
3C
ENDCHAR
STARTCHAR 0044
ENCODING 68
SWIDTH 720 0
DWIDTH 8 0
BBX 6 8 1 0
BITMAP
F8
8C
84
84
84
84
8C
F8
ENDCHAR
STARTCHAR 0045
ENCODING 69
SWIDTH 630 0
DWIDTH 7 0
BBX 6 8 1 0
BITMAP
F8
80
80
F8
80
80
80
FC
ENDCHAR
STARTCHAR 0046
ENCODING 70
SWIDTH 630 0
DWIDTH 7 0
BBX 5 8 1 0
BITMAP
F8
80
80
F8
80
80
80
80
ENDCHAR
STARTCHAR 0047
ENCODING 71
SWIDTH 720 0
DWIDTH 8 0
BBX 8 8 0 0
BITMAP
3E
42
40
80
8F
41
43
3D
ENDCHAR
STARTCHAR 0048
ENCODING 72
SWIDTH 720 0
DWIDTH 8 0
BBX 6 8 1 0
BITMAP
84
84
84
FC
84
84
84
84
ENDCHAR
STARTCHAR 0049
ENCODING 73
SWIDTH 270 0
DWIDTH 3 0
BBX 1 8 1 0
BITMAP
80
80
80
80
80
80
80
80
ENDCHAR
STARTCHAR 004A
ENCODING 74
SWIDTH 540 0
DWIDTH 6 0
BBX 5 8 0 0
BITMAP
08
08
08
08
08
88
88
70
ENDCHAR
STARTCHAR 004B
ENCODING 75
SWIDTH 630 0
DWIDTH 7 0
BBX 6 8 1 0
BITMAP
8C
98
B0
E0
D0
98
88
84
ENDCHAR
STARTCHAR 004C
ENCODING 76
SWIDTH 540 0
DWIDTH 6 0
BBX 5 8 1 0
BITMAP
80
80
80
80
80
80
80
F8
ENDCHAR
STARTCHAR 004D
ENCODING 77
SWIDTH 810 0
DWIDTH 9 0
BBX 7 8 1 0
BITMAP
82
C6
C6
C6
AA
AA
9A
92
ENDCHAR
STARTCHAR 004E
ENCODING 78
SWIDTH 720 0
DWIDTH 8 0
BBX 6 8 1 0
BITMAP
84
C4
E4
A4
94
9C
8C
84
ENDCHAR
STARTCHAR 004F
ENCODING 79
SWIDTH 810 0
DWIDTH 9 0
BBX 8 8 0 0
BITMAP
3E
42
41
81
81
41
43
3E
ENDCHAR
STARTCHAR 0050
ENCODING 80
SWIDTH 630 0
DWIDTH 7 0
BBX 6 8 1 0
BITMAP
F8
8C
84
88
F0
80
80
80
ENDCHAR
STARTCHAR 0051
ENCODING 81
SWIDTH 810 0
DWIDTH 9 0
BBX 8 9 0 -1
BITMAP
3E
43
41
81
81
41
47
3E
01
ENDCHAR
STARTCHAR 0052
ENCODING 82
SWIDTH 720 0
DWIDTH 8 0
BBX 6 8 1 0
BITMAP
F8
84
84
8C
F8
84
84
84
ENDCHAR
STARTCHAR 0053
ENCODING 83
SWIDTH 630 0
DWIDTH 7 0
BBX 6 8 1 0
BITMAP
78
88
80
E0
18
84
84
F8
ENDCHAR
STARTCHAR 0054
ENCODING 84
SWIDTH 630 0
DWIDTH 7 0
BBX 7 8 0 0
BITMAP
FE
10
10
10
10
10
10
10
ENDCHAR
STARTCHAR 0055
ENCODING 85
SWIDTH 720 0
DWIDTH 8 0
BBX 6 8 1 0
BITMAP
84
84
84
84
84
84
84
78
ENDCHAR
STARTCHAR 0056
ENCODING 86
SWIDTH 630 0
DWIDTH 7 0
BBX 7 8 0 0
BITMAP
82
44
44
44
28
28
18
10
ENDCHAR
STARTCHAR 0057
ENCODING 87
SWIDTH 900 0
DWIDTH 10 0
BBX 10 8 0 0
BITMAP
8C40
4C40
4CC0
4A80
5280
3280
3100
2100
ENDCHAR
STARTCHAR 0058
ENCODING 88
SWIDTH 630 0
DWIDTH 7 0
BBX 6 8 1 0
BITMAP
8C
C8
50
20
30
50
88
8C
ENDCHAR
STARTCHAR 0059
ENCODING 89
SWIDTH 630 0
DWIDTH 7 0
BBX 7 8 0 0
BITMAP
C2
44
24
38
18
10
10
10
ENDCHAR
STARTCHAR 005A
ENCODING 90
SWIDTH 630 0
DWIDTH 7 0
BBX 6 8 0 0
BITMAP
7C
04
08
10
30
20
40
FC
ENDCHAR
STARTCHAR 005B
ENCODING 91
SWIDTH 270 0
DWIDTH 3 0
BBX 2 10 1 -2
BITMAP
C0
80
80
80
80
80
80
80
80
80
ENDCHAR
STARTCHAR 005C
ENCODING 92
SWIDTH 270 0
DWIDTH 3 0
BBX 3 8 0 0
BITMAP
80
80
80
40
40
40
20
20
ENDCHAR
STARTCHAR 005D
ENCODING 93
SWIDTH 270 0
DWIDTH 3 0
BBX 2 10 0 -2
BITMAP
C0
40
40
40
40
40
40
40
40
40
ENDCHAR
STARTCHAR 005E
ENCODING 94
SWIDTH 450 0
DWIDTH 5 0
BBX 3 4 1 4
BITMAP
40
C0
A0
A0
ENDCHAR
STARTCHAR 005F
ENCODING 95
SWIDTH 540 0
DWIDTH 6 0
BBX 6 1 0 -2
BITMAP
FC
ENDCHAR
STARTCHAR 0060
ENCODING 96
SWIDTH 270 0
DWIDTH 3 0
BBX 1 1 1 7
BITMAP
80
ENDCHAR
STARTCHAR 0061
ENCODING 97
SWIDTH 540 0
DWIDTH 6 0
BBX 6 6 0 0
BITMAP
78
48
08
78
88
7C
ENDCHAR
STARTCHAR 0062
ENCODING 98
SWIDTH 540 0
DWIDTH 6 0
BBX 5 8 1 0
BITMAP
80
80
F0
98
88
88
88
F0
ENDCHAR
STARTCHAR 0063
ENCODING 99
SWIDTH 540 0
DWIDTH 6 0
BBX 5 6 0 0
BITMAP
70
48
80
80
48
78
ENDCHAR
STARTCHAR 0064
ENCODING 100
SWIDTH 540 0
DWIDTH 6 0
BBX 5 8 0 0
BITMAP
08
08
78
48
88
88
48
78
ENDCHAR
STARTCHAR 0065
ENCODING 101
SWIDTH 540 0
DWIDTH 6 0
BBX 5 6 0 0
BITMAP
30
48
88
F0
48
78
ENDCHAR
STARTCHAR 0066
ENCODING 102
SWIDTH 270 0
DWIDTH 3 0
BBX 3 8 0 0
BITMAP
60
40
E0
40
40
40
40
40
ENDCHAR
STARTCHAR 0067
ENCODING 103
SWIDTH 540 0
DWIDTH 6 0
BBX 5 8 0 -2
BITMAP
78
48
88
88
48
78
08
78
ENDCHAR
STARTCHAR 0068
ENCODING 104
SWIDTH 540 0
DWIDTH 6 0
BBX 4 8 1 0
BITMAP
80
80
F0
90
90
90
90
90
ENDCHAR
STARTCHAR 0069
ENCODING 105
SWIDTH 180 0
DWIDTH 2 0
BBX 1 8 1 0
BITMAP
80
00
80
80
80
80
80
80
ENDCHAR
STARTCHAR 006A
ENCODING 106
SWIDTH 270 0
DWIDTH 3 0
BBX 2 10 0 -2
BITMAP
40
00
40
40
40
40
40
40
40
C0
ENDCHAR
STARTCHAR 006B
ENCODING 107
SWIDTH 540 0
DWIDTH 6 0
BBX 4 8 1 0
BITMAP
80
80
90
A0
C0
A0
B0
90
ENDCHAR
STARTCHAR 006C
ENCODING 108
SWIDTH 180 0
DWIDTH 2 0
BBX 1 8 1 0
BITMAP
80
80
80
80
80
80
80
80
ENDCHAR
STARTCHAR 006D
ENCODING 109
SWIDTH 810 0
DWIDTH 9 0
BBX 7 6 1 0
BITMAP
EE
92
92
92
92
92
ENDCHAR
STARTCHAR 006E
ENCODING 110
SWIDTH 540 0
DWIDTH 6 0
BBX 4 6 1 0
BITMAP
F0
90
90
90
90
90
ENDCHAR
STARTCHAR 006F
ENCODING 111
SWIDTH 540 0
DWIDTH 6 0
BBX 6 6 0 0
BITMAP
70
48
84
84
48
78
ENDCHAR
STARTCHAR 0070
ENCODING 112
SWIDTH 540 0
DWIDTH 6 0
BBX 5 8 1 -2
BITMAP
F0
90
88
88
88
F0
80
80
ENDCHAR
STARTCHAR 0071
ENCODING 113
SWIDTH 540 0
DWIDTH 6 0
BBX 5 8 0 -2
BITMAP
70
48
88
88
C8
78
08
08
ENDCHAR
STARTCHAR 0072
ENCODING 114
SWIDTH 360 0
DWIDTH 4 0
BBX 2 6 1 0
BITMAP
C0
80
80
80
80
80
ENDCHAR
STARTCHAR 0073
ENCODING 115
SWIDTH 450 0
DWIDTH 5 0
BBX 5 6 0 0
BITMAP
70
48
40
38
08
78
ENDCHAR
STARTCHAR 0074
ENCODING 116
SWIDTH 270 0
DWIDTH 3 0
BBX 3 7 0 0
BITMAP
40
E0
40
40
40
40
60
ENDCHAR
STARTCHAR 0075
ENCODING 117
SWIDTH 540 0
DWIDTH 6 0
BBX 4 6 1 0
BITMAP
90
90
90
90
90
F0
ENDCHAR
STARTCHAR 0076
ENCODING 118
SWIDTH 450 0
DWIDTH 5 0
BBX 5 6 0 0
BITMAP
88
48
50
50
30
20
ENDCHAR
STARTCHAR 0077
ENCODING 119
SWIDTH 720 0
DWIDTH 8 0
BBX 8 6 0 0
BITMAP
99
9A
5A
6A
66
24
ENDCHAR
STARTCHAR 0078
ENCODING 120
SWIDTH 450 0
DWIDTH 5 0
BBX 5 6 0 0
BITMAP
88
50
30
20
50
88
ENDCHAR
STARTCHAR 0079
ENCODING 121
SWIDTH 450 0
DWIDTH 5 0
BBX 5 8 0 -2
BITMAP
88
48
50
50
50
20
20
C0
ENDCHAR
STARTCHAR 007A
ENCODING 122
SWIDTH 450 0
DWIDTH 5 0
BBX 5 6 0 0
BITMAP
78
10
10
20
40
F8
ENDCHAR
STARTCHAR 007B
ENCODING 123
SWIDTH 360 0
DWIDTH 4 0
BBX 3 10 0 -2
BITMAP
20
40
40
40
40
C0
40
40
40
60
ENDCHAR
STARTCHAR 007C
ENCODING 124
SWIDTH 270 0
DWIDTH 3 0
BBX 1 10 1 -2
BITMAP
80
80
80
80
80
80
80
80
80
80
ENDCHAR
STARTCHAR 007D
ENCODING 125
SWIDTH 360 0
DWIDTH 4 0
BBX 2 10 1 -2
BITMAP
80
80
80
80
40
40
80
80
80
80
ENDCHAR
STARTCHAR 007E
ENCODING 126
SWIDTH 540 0
DWIDTH 6 0
BBX 5 2 0 3
BITMAP
40
B8
ENDCHAR
STARTCHAR 00A0
ENCODING 160
SWIDTH 270 0
DWIDTH 3 0
BBX 0 0 0 0
BITMAP
ENDCHAR
STARTCHAR 00A1
ENCODING 161
SWIDTH 360 0
DWIDTH 4 0
BBX 1 8 1 -2
BITMAP
80
00
80
80
80
80
80
80
ENDCHAR
STARTCHAR 00A2
ENCODING 162
SWIDTH 540 0
DWIDTH 6 0
BBX 5 6 1 0
BITMAP
70
D0
C0
C0
C8
F0
ENDCHAR
STARTCHAR 00A3
ENCODING 163
SWIDTH 540 0
DWIDTH 6 0
BBX 6 8 0 0
BITMAP
38
48
44
40
30
20
40
FC
ENDCHAR
STARTCHAR 00A4
ENCODING 164
SWIDTH 540 0
DWIDTH 6 0
BBX 4 4 1 1
BITMAP
F0
90
90
F0
ENDCHAR
STARTCHAR 00A5
ENCODING 165
SWIDTH 540 0
DWIDTH 6 0
BBX 6 8 0 0
BITMAP
84
48
48
30
78
10
78
10
ENDCHAR
STARTCHAR 00A6
ENCODING 166
SWIDTH 270 0
DWIDTH 3 0
BBX 1 10 1 -2
BITMAP
80
80
80
80
00
00
80
80
80
80
ENDCHAR
STARTCHAR 00A7
ENCODING 167
SWIDTH 540 0
DWIDTH 6 0
BBX 6 10 0 -2
BITMAP
38
48
60
70
88
44
28
18
48
78
ENDCHAR
STARTCHAR 00A8
ENCODING 168
SWIDTH 360 0
DWIDTH 4 0
BBX 3 1 0 7
BITMAP
A0
ENDCHAR
STARTCHAR 00A9
ENCODING 169
SWIDTH 810 0
DWIDTH 9 0
BBX 8 8 0 0
BITMAP
1C
7E
61
A1
A1
9D
41
3E
ENDCHAR
STARTCHAR 00AA
ENCODING 170
SWIDTH 360 0
DWIDTH 4 0
BBX 4 5 0 3
BITMAP
E0
60
A0
50
F0
ENDCHAR
STARTCHAR 00AB
ENCODING 171
SWIDTH 540 0
DWIDTH 6 0
BBX 4 4 1 1
BITMAP
10
A0
A0
10
ENDCHAR
STARTCHAR 00AC
ENCODING 172
SWIDTH 540 0
DWIDTH 6 0
BBX 6 3 0 1
BITMAP
FC
04
04
ENDCHAR
STARTCHAR 00AD
ENCODING 173
SWIDTH 360 0
DWIDTH 4 0
BBX 2 1 1 3
BITMAP
C0
ENDCHAR
STARTCHAR 00AE
ENCODING 174
SWIDTH 810 0
DWIDTH 9 0
BBX 8 8 0 0
BITMAP
1C
62
5D
A5
9D
A5
65
3E
ENDCHAR
STARTCHAR 00AF
ENCODING 175
SWIDTH 360 0
DWIDTH 4 0
BBX 3 1 0 7
BITMAP
E0
ENDCHAR
STARTCHAR 00B0
ENCODING 176
SWIDTH 630 0
DWIDTH 7 0
BBX 3 4 2 4
BITMAP
40
A0
A0
C0
ENDCHAR
STARTCHAR 00B1
ENCODING 177
SWIDTH 540 0
DWIDTH 6 0
BBX 5 7 1 0
BITMAP
20
20
F8
20
20
00
F8
ENDCHAR
STARTCHAR 00B2
ENCODING 178
SWIDTH 360 0
DWIDTH 4 0
BBX 4 5 0 4
BITMAP
60
90
20
C0
F0
ENDCHAR
STARTCHAR 00B3
ENCODING 179
SWIDTH 360 0
DWIDTH 4 0
BBX 4 5 0 4
BITMAP
60
A0
60
90
60
ENDCHAR
STARTCHAR 00B4
ENCODING 180
SWIDTH 360 0
DWIDTH 4 0
BBX 1 1 2 7
BITMAP
80
ENDCHAR
STARTCHAR 00B5
ENCODING 181
SWIDTH 540 0
DWIDTH 6 0
BBX 5 8 1 -2
BITMAP
90
90
90
90
90
F8
80
80
ENDCHAR
STARTCHAR 00B6
ENCODING 182
SWIDTH 540 0
DWIDTH 6 0
BBX 5 10 1 -2
BITMAP
78
F0
F0
F0
F0
30
30
30
30
30
ENDCHAR
STARTCHAR 00B7
ENCODING 183
SWIDTH 270 0
DWIDTH 3 0
BBX 1 2 1 2
BITMAP
80
80
ENDCHAR
STARTCHAR 00B8
ENCODING 184
SWIDTH 360 0
DWIDTH 4 0
BBX 2 1 1 -1
BITMAP
C0
ENDCHAR
STARTCHAR 00B9
ENCODING 185
SWIDTH 360 0
DWIDTH 4 0
BBX 2 5 1 4
BITMAP
40
C0
40
40
40
ENDCHAR
STARTCHAR 00BA
ENCODING 186
SWIDTH 360 0
DWIDTH 4 0
BBX 4 5 0 3
BITMAP
60
90
A0
60
60
ENDCHAR
STARTCHAR 00BB
ENCODING 187
SWIDTH 540 0
DWIDTH 6 0
BBX 4 2 1 2
BITMAP
90
90
ENDCHAR
STARTCHAR 00BC
ENCODING 188
SWIDTH 900 0
DWIDTH 10 0
BBX 8 8 1 0
BITMAP
02
84
88
89
13
25
27
41
ENDCHAR
STARTCHAR 00BD
ENCODING 189
SWIDTH 900 0
DWIDTH 10 0
BBX 8 8 1 0
BITMAP
80
84
88
93
15
21
26
47
ENDCHAR
STARTCHAR 00BE
ENCODING 190
SWIDTH 900 0
DWIDTH 10 0
BBX 9 8 0 0
BITMAP
6000
2200
2400
9400
6900
1300
1380
2100
ENDCHAR
STARTCHAR 00BF
ENCODING 191
SWIDTH 540 0
DWIDTH 6 0
BBX 5 8 1 -2
BITMAP
20
00
20
20
40
80
88
70
ENDCHAR
STARTCHAR 00C0
ENCODING 192
SWIDTH 630 0
DWIDTH 7 0
BBX 7 10 0 0
BITMAP
10
00
18
38
28
2C
44
7C
46
82
ENDCHAR
STARTCHAR 00C1
ENCODING 193
SWIDTH 630 0
DWIDTH 7 0
BBX 7 10 0 0
BITMAP
08
10
18
38
28
2C
44
7C
46
82
ENDCHAR
STARTCHAR 00C2
ENCODING 194
SWIDTH 630 0
DWIDTH 7 0
BBX 7 10 0 0
BITMAP
18
00
18
38
28
2C
44
7C
46
82
ENDCHAR
STARTCHAR 00C3
ENCODING 195
SWIDTH 630 0
DWIDTH 7 0
BBX 7 10 0 0
BITMAP
30
08
18
38
28
2C
44
7C
46
82
ENDCHAR
STARTCHAR 00C4
ENCODING 196
SWIDTH 630 0
DWIDTH 7 0
BBX 7 10 0 0
BITMAP
28
00
18
38
28
2C
44
7C
42
82
ENDCHAR
STARTCHAR 00C5
ENCODING 197
SWIDTH 630 0
DWIDTH 7 0
BBX 7 11 0 0
BITMAP
10
28
10
18
38
28
2C
44
7C
46
82
ENDCHAR
STARTCHAR 00C6
ENCODING 198
SWIDTH 990 0
DWIDTH 11 0
BBX 11 8 0 0
BITMAP
1FC0
1400
2400
27C0
2400
7C00
4400
87E0
ENDCHAR
STARTCHAR 00C7
ENCODING 199
SWIDTH 720 0
DWIDTH 8 0
BBX 7 10 0 -2
BITMAP
3C
42
40
80
80
42
42
3C
10
18
ENDCHAR
STARTCHAR 00C8
ENCODING 200
SWIDTH 630 0
DWIDTH 7 0
BBX 6 10 1 0
BITMAP
20
00
F8
80
80
F8
80
80
80
FC
ENDCHAR
STARTCHAR 00C9
ENCODING 201
SWIDTH 630 0
DWIDTH 7 0
BBX 6 10 1 0
BITMAP
30
00
F8
80
80
F8
80
80
80
FC
ENDCHAR
STARTCHAR 00CA
ENCODING 202
SWIDTH 630 0
DWIDTH 7 0
BBX 6 10 1 0
BITMAP
30
00
F8
80
80
F8
80
80
80
FC
ENDCHAR
STARTCHAR 00CB
ENCODING 203
SWIDTH 630 0
DWIDTH 7 0
BBX 6 10 1 0
BITMAP
50
00
F8
80
80
F8
80
80
80
FC
ENDCHAR
STARTCHAR 00CC
ENCODING 204
SWIDTH 270 0
DWIDTH 3 0
BBX 1 10 1 0
BITMAP
80
00
80
80
80
80
80
80
80
80
ENDCHAR
STARTCHAR 00CD
ENCODING 205
SWIDTH 270 0
DWIDTH 3 0
BBX 2 10 1 0
BITMAP
C0
00
80
80
80
80
80
80
80
80
ENDCHAR
STARTCHAR 00CE
ENCODING 206
SWIDTH 270 0
DWIDTH 3 0
BBX 2 10 1 0
BITMAP
C0
00
80
80
80
80
80
80
80
80
ENDCHAR
STARTCHAR 00CF
ENCODING 207
SWIDTH 270 0
DWIDTH 3 0
BBX 3 10 0 0
BITMAP
A0
00
40
40
40
40
40
40
40
40
ENDCHAR
STARTCHAR 00D0
ENCODING 208
SWIDTH 720 0
DWIDTH 8 0
BBX 6 8 1 0
BITMAP
F8
84
84
84
C4
84
84
F8
ENDCHAR
STARTCHAR 00D1
ENCODING 209
SWIDTH 720 0
DWIDTH 8 0
BBX 6 10 1 0
BITMAP
28
50
84
C4
E4
A4
94
9C
8C
84
ENDCHAR
STARTCHAR 00D2
ENCODING 210
SWIDTH 810 0
DWIDTH 9 0
BBX 8 10 0 0
BITMAP
10
08
3E
42
41
81
81
41
43
3E
ENDCHAR
STARTCHAR 00D3
ENCODING 211
SWIDTH 810 0
DWIDTH 9 0
BBX 8 10 0 0
BITMAP
08
00
3E
42
41
81
81
41
43
3E
ENDCHAR
STARTCHAR 00D4
ENCODING 212
SWIDTH 810 0
DWIDTH 9 0
BBX 8 10 0 0
BITMAP
18
00
3E
42
41
81
81
41
43
3E
ENDCHAR
STARTCHAR 00D5
ENCODING 213
SWIDTH 810 0
DWIDTH 9 0
BBX 8 10 0 0
BITMAP
14
08
3E
42
41
81
81
41
43
3E
ENDCHAR
STARTCHAR 00D6
ENCODING 214
SWIDTH 810 0
DWIDTH 9 0
BBX 8 10 0 0
BITMAP
14
00
3E
42
41
81
81
41
43
3E
ENDCHAR
STARTCHAR 00D7
ENCODING 215
SWIDTH 540 0
DWIDTH 6 0
BBX 4 5 1 0
BITMAP
80
50
20
50
80
ENDCHAR
STARTCHAR 00D8
ENCODING 216
SWIDTH 810 0
DWIDTH 9 0
BBX 8 8 0 0
BITMAP
3F
43
45
89
91
61
43
3E
ENDCHAR
STARTCHAR 00D9
ENCODING 217
SWIDTH 720 0
DWIDTH 8 0
BBX 6 10 1 0
BITMAP
20
00
84
84
84
84
84
84
84
78
ENDCHAR
STARTCHAR 00DA
ENCODING 218
SWIDTH 720 0
DWIDTH 8 0
BBX 6 10 1 0
BITMAP
10
00
84
84
84
84
84
84
84
78
ENDCHAR
STARTCHAR 00DB
ENCODING 219
SWIDTH 720 0
DWIDTH 8 0
BBX 6 10 1 0
BITMAP
30
00
84
84
84
84
84
84
84
78
ENDCHAR
STARTCHAR 00DC
ENCODING 220
SWIDTH 720 0
DWIDTH 8 0
BBX 6 10 1 0
BITMAP
78
00
84
84
84
84
84
84
84
78
ENDCHAR
STARTCHAR 00DD
ENCODING 221
SWIDTH 630 0
DWIDTH 7 0
BBX 7 10 0 0
BITMAP
08
10
C2
44
24
38
18
10
10
10
ENDCHAR
STARTCHAR 00DE
ENCODING 222
SWIDTH 630 0
DWIDTH 7 0
BBX 6 8 1 0
BITMAP
80
F0
88
84
8C
F8
80
80
ENDCHAR
STARTCHAR 00DF
ENCODING 223
SWIDTH 630 0
DWIDTH 7 0
BBX 5 8 1 0
BITMAP
70
88
88
B0
88
88
88
B0
ENDCHAR
STARTCHAR 00E0
ENCODING 224
SWIDTH 540 0
DWIDTH 6 0
BBX 6 8 0 0
BITMAP
20
00
78
48
08
78
88
7C
ENDCHAR
STARTCHAR 00E1
ENCODING 225
SWIDTH 540 0
DWIDTH 6 0
BBX 6 8 0 0
BITMAP
10
00
78
48
08
78
88
7C
ENDCHAR
STARTCHAR 00E2
ENCODING 226
SWIDTH 540 0
DWIDTH 6 0
BBX 6 8 0 0
BITMAP
30
08
78
48
08
78
88
7C
ENDCHAR
STARTCHAR 00E3
ENCODING 227
SWIDTH 540 0
DWIDTH 6 0
BBX 6 8 0 0
BITMAP
28
10
78
48
08
78
88
7C
ENDCHAR
STARTCHAR 00E4
ENCODING 228
SWIDTH 540 0
DWIDTH 6 0
BBX 6 8 0 0
BITMAP
38
00
78
48
08
78
88
7C
ENDCHAR
STARTCHAR 00E5
ENCODING 229
SWIDTH 540 0
DWIDTH 6 0
BBX 6 8 0 0
BITMAP
30
30
78
48
08
78
88
7C
ENDCHAR
STARTCHAR 00E6
ENCODING 230
SWIDTH 900 0
DWIDTH 10 0
BBX 9 6 0 0
BITMAP
7700
4880
0880
7F00
8880
7780
ENDCHAR
STARTCHAR 00E7
ENCODING 231
SWIDTH 540 0
DWIDTH 6 0
BBX 5 8 0 -2
BITMAP
70
48
80
80
48
78
20
30
ENDCHAR
STARTCHAR 00E8
ENCODING 232
SWIDTH 540 0
DWIDTH 6 0
BBX 5 8 0 0
BITMAP
20
00
30
48
88
F0
48
78
ENDCHAR
STARTCHAR 00E9
ENCODING 233
SWIDTH 540 0
DWIDTH 6 0
BBX 5 8 0 0
BITMAP
10
00
30
48
88
F0
48
78
ENDCHAR
STARTCHAR 00EA
ENCODING 234
SWIDTH 540 0
DWIDTH 6 0
BBX 5 8 0 0
BITMAP
30
08
30
48
88
F0
48
78
ENDCHAR
STARTCHAR 00EB
ENCODING 235
SWIDTH 540 0
DWIDTH 6 0
BBX 5 8 0 0
BITMAP
78
00
30
48
88
F0
48
78
ENDCHAR
STARTCHAR 00EC
ENCODING 236
SWIDTH 180 0
DWIDTH 2 0
BBX 1 8 1 0
BITMAP
80
00
80
80
80
80
80
80
ENDCHAR
STARTCHAR 00ED
ENCODING 237
SWIDTH 180 0
DWIDTH 2 0
BBX 1 8 1 0
BITMAP
80
00
80
80
80
80
80
80
ENDCHAR
STARTCHAR 00EE
ENCODING 238
SWIDTH 270 0
DWIDTH 3 0
BBX 3 8 0 0
BITMAP
40
A0
40
40
40
40
40
40
ENDCHAR
STARTCHAR 00EF
ENCODING 239
SWIDTH 270 0
DWIDTH 3 0
BBX 3 8 0 0
BITMAP
A0
00
40
40
40
40
40
40
ENDCHAR
STARTCHAR 00F0
ENCODING 240
SWIDTH 540 0
DWIDTH 6 0
BBX 6 8 0 0
BITMAP
70
50
78
48
84
84
48
78
ENDCHAR
STARTCHAR 00F1
ENCODING 241
SWIDTH 540 0
DWIDTH 6 0
BBX 4 8 1 0
BITMAP
50
20
F0
90
90
90
90
90
ENDCHAR
STARTCHAR 00F2
ENCODING 242
SWIDTH 540 0
DWIDTH 6 0
BBX 6 8 0 0
BITMAP
20
00
70
48
84
84
48
78
ENDCHAR
STARTCHAR 00F3
ENCODING 243
SWIDTH 540 0
DWIDTH 6 0
BBX 6 8 0 0
BITMAP
10
00
70
48
84
84
48
78
ENDCHAR
STARTCHAR 00F4
ENCODING 244
SWIDTH 540 0
DWIDTH 6 0
BBX 6 8 0 0
BITMAP
30
40
70
48
84
84
48
78
ENDCHAR
STARTCHAR 00F5
ENCODING 245
SWIDTH 540 0
DWIDTH 6 0
BBX 6 8 0 0
BITMAP
28
10
70
48
84
84
48
78
ENDCHAR
STARTCHAR 00F6
ENCODING 246
SWIDTH 540 0
DWIDTH 6 0
BBX 6 8 0 0
BITMAP
70
00
70
48
84
84
48
78
ENDCHAR
STARTCHAR 00F7
ENCODING 247
SWIDTH 540 0
DWIDTH 6 0
BBX 5 5 1 0
BITMAP
20
00
F8
00
20
ENDCHAR
STARTCHAR 00F8
ENCODING 248
SWIDTH 540 0
DWIDTH 6 0
BBX 6 6 0 0
BITMAP
74
48
98
A4
48
78
ENDCHAR
STARTCHAR 00F9
ENCODING 249
SWIDTH 540 0
DWIDTH 6 0
BBX 4 8 1 0
BITMAP
40
00
90
90
90
90
90
F0
ENDCHAR
STARTCHAR 00FA
ENCODING 250
SWIDTH 540 0
DWIDTH 6 0
BBX 4 8 1 0
BITMAP
20
00
90
90
90
90
90
F0
ENDCHAR
STARTCHAR 00FB
ENCODING 251
SWIDTH 540 0
DWIDTH 6 0
BBX 4 8 1 0
BITMAP
60
80
90
90
90
90
90
F0
ENDCHAR
STARTCHAR 00FC
ENCODING 252
SWIDTH 540 0
DWIDTH 6 0
BBX 4 8 1 0
BITMAP
F0
00
90
90
90
90
90
F0
ENDCHAR
STARTCHAR 00FD
ENCODING 253
SWIDTH 450 0
DWIDTH 5 0
BBX 5 10 0 -2
BITMAP
10
20
88
48
50
50
50
20
20
C0
ENDCHAR
STARTCHAR 00FE
ENCODING 254
SWIDTH 540 0
DWIDTH 6 0
BBX 5 10 1 -2
BITMAP
80
80
F0
90
88
88
88
F0
80
80
ENDCHAR
STARTCHAR 00FF
ENCODING 255
SWIDTH 450 0
DWIDTH 5 0
BBX 5 10 0 -2
BITMAP
50
00
88
48
50
50
50
20
20
C0
ENDCHAR
STARTCHAR 0100
ENCODING 256
SWIDTH 630 0
DWIDTH 7 0
BBX 7 10 0 0
BITMAP
38
00
18
38
28
2C
44
7C
46
82
ENDCHAR
STARTCHAR 0101
ENCODING 257
SWIDTH 540 0
DWIDTH 6 0
BBX 6 8 0 0
BITMAP
38
00
78
48
08
78
88
7C
ENDCHAR
STARTCHAR 0102
ENCODING 258
SWIDTH 630 0
DWIDTH 7 0
BBX 7 10 0 0
BITMAP
20
18
18
38
28
2C
44
7C
46
82
ENDCHAR
STARTCHAR 0103
ENCODING 259
SWIDTH 540 0
DWIDTH 6 0
BBX 6 8 0 0
BITMAP
48
30
78
48
08
78
88
7C
ENDCHAR
STARTCHAR 0104
ENCODING 260
SWIDTH 630 0
DWIDTH 7 0
BBX 7 10 0 -2
BITMAP
18
18
28
24
44
7C
42
82
04
06
ENDCHAR
STARTCHAR 0105
ENCODING 261
SWIDTH 540 0
DWIDTH 6 0
BBX 6 8 0 -2
BITMAP
78
48
08
78
88
7C
08
08
ENDCHAR
STARTCHAR 0106
ENCODING 262
SWIDTH 720 0
DWIDTH 8 0
BBX 7 10 0 0
BITMAP
08
00
3C
42
40
80
80
42
42
3C
ENDCHAR
STARTCHAR 0107
ENCODING 263
SWIDTH 540 0
DWIDTH 6 0
BBX 5 8 0 0
BITMAP
10
00
70
48
80
80
48
78
ENDCHAR
STARTCHAR 0108
ENCODING 264
SWIDTH 720 0
DWIDTH 8 0
BBX 7 10 0 0
BITMAP
18
00
3C
42
40
80
80
42
42
3C
ENDCHAR
STARTCHAR 0109
ENCODING 265
SWIDTH 540 0
DWIDTH 6 0
BBX 5 8 0 0
BITMAP
30
10
70
48
80
80
48
78
ENDCHAR
STARTCHAR 010A
ENCODING 266
SWIDTH 720 0
DWIDTH 8 0
BBX 7 10 0 0
BITMAP
08
00
3C
42
40
80
80
42
42
3C
ENDCHAR
STARTCHAR 010B
ENCODING 267
SWIDTH 540 0
DWIDTH 6 0
BBX 5 8 0 0
BITMAP
20
00
70
48
80
80
48
78
ENDCHAR
STARTCHAR 010C
ENCODING 268
SWIDTH 720 0
DWIDTH 8 0
BBX 7 9 0 0
BITMAP
18
3C
42
40
80
80
42
42
3C
ENDCHAR
STARTCHAR 010D
ENCODING 269
SWIDTH 540 0
DWIDTH 6 0
BBX 5 8 0 0
BITMAP
30
30
70
48
80
80
48
78
ENDCHAR
STARTCHAR 010E
ENCODING 270
SWIDTH 720 0
DWIDTH 8 0
BBX 6 9 1 0
BITMAP
30
F8
8C
84
84
84
84
8C
F8
ENDCHAR
STARTCHAR 010F
ENCODING 271
SWIDTH 630 0
DWIDTH 7 0
BBX 7 8 0 0
BITMAP
0A
0A
78
48
88
88
48
78
ENDCHAR
STARTCHAR 0110
ENCODING 272
SWIDTH 720 0
DWIDTH 8 0
BBX 6 8 1 0
BITMAP
F8
84
84
84
C4
84
84
F8
ENDCHAR
STARTCHAR 0111
ENCODING 273
SWIDTH 540 0
DWIDTH 6 0
BBX 6 8 0 0
BITMAP
08
1C
78
48
88
88
48
78
ENDCHAR
STARTCHAR 0112
ENCODING 274
SWIDTH 630 0
DWIDTH 7 0
BBX 6 10 1 0
BITMAP
70
00
F8
80
80
F8
80
80
80
FC
ENDCHAR
STARTCHAR 0113
ENCODING 275
SWIDTH 540 0
DWIDTH 6 0
BBX 5 8 0 0
BITMAP
38
00
30
48
88
F0
48
78
ENDCHAR
STARTCHAR 0114
ENCODING 276
SWIDTH 630 0
DWIDTH 7 0
BBX 6 10 1 0
BITMAP
40
30
F8
80
80
F8
80
80
80
FC
ENDCHAR
STARTCHAR 0115
ENCODING 277
SWIDTH 540 0
DWIDTH 6 0
BBX 5 8 0 0
BITMAP
48
30
30
48
88
F0
48
78
ENDCHAR
STARTCHAR 0116
ENCODING 278
SWIDTH 630 0
DWIDTH 7 0
BBX 6 10 1 0
BITMAP
20
00
F8
80
80
F8
80
80
80
FC
ENDCHAR
STARTCHAR 0117
ENCODING 279
SWIDTH 540 0
DWIDTH 6 0
BBX 5 8 0 0
BITMAP
10
00
30
48
88
F0
48
78
ENDCHAR
STARTCHAR 0118
ENCODING 280
SWIDTH 630 0
DWIDTH 7 0
BBX 6 10 1 -2
BITMAP
F8
80
80
F8
80
80
80
FC
08
08
ENDCHAR
STARTCHAR 0119
ENCODING 281
SWIDTH 540 0
DWIDTH 6 0
BBX 5 8 0 -2
BITMAP
30
48
88
F0
48
78
10
10
ENDCHAR
STARTCHAR 011A
ENCODING 282
SWIDTH 630 0
DWIDTH 7 0
BBX 6 9 1 0
BITMAP
30
F8
80
80
F8
80
80
80
FC
ENDCHAR
STARTCHAR 011B
ENCODING 283
SWIDTH 540 0
DWIDTH 6 0
BBX 5 8 0 0
BITMAP
30
10
30
48
88
F0
48
78
ENDCHAR
STARTCHAR 011C
ENCODING 284
SWIDTH 720 0
DWIDTH 8 0
BBX 8 10 0 0
BITMAP
18
00
3E
42
40
80
8F
41
43
3D
ENDCHAR
STARTCHAR 011D
ENCODING 285
SWIDTH 540 0
DWIDTH 6 0
BBX 5 10 0 -2
BITMAP
30
08
78
48
88
88
48
78
08
78
ENDCHAR
STARTCHAR 011E
ENCODING 286
SWIDTH 720 0
DWIDTH 8 0
BBX 8 10 0 0
BITMAP
04
18
3E
42
40
80
8F
41
43
3D
ENDCHAR
STARTCHAR 011F
ENCODING 287
SWIDTH 540 0
DWIDTH 6 0
BBX 5 10 0 -2
BITMAP
50
20
78
48
88
88
48
78
08
78
ENDCHAR
STARTCHAR 0120
ENCODING 288
SWIDTH 720 0
DWIDTH 8 0
BBX 8 10 0 0
BITMAP
08
00
3E
42
40
80
8F
41
43
3D
ENDCHAR
STARTCHAR 0121
ENCODING 289
SWIDTH 540 0
DWIDTH 6 0
BBX 5 10 0 -2
BITMAP
20
00
78
48
88
88
48
78
08
78
ENDCHAR
STARTCHAR 0122
ENCODING 290
SWIDTH 720 0
DWIDTH 8 0
BBX 8 11 0 -3
BITMAP
3E
42
40
80
8F
41
43
3D
00
08
08
ENDCHAR
STARTCHAR 0123
ENCODING 291
SWIDTH 540 0
DWIDTH 6 0
BBX 5 10 0 -2
BITMAP
20
20
78
48
88
88
48
78
08
78
ENDCHAR
STARTCHAR 0124
ENCODING 292
SWIDTH 720 0
DWIDTH 8 0
BBX 6 10 1 0
BITMAP
30
00
84
84
84
FC
84
84
84
84
ENDCHAR
STARTCHAR 0125
ENCODING 293
SWIDTH 540 0
DWIDTH 6 0
BBX 4 10 1 0
BITMAP
60
50
80
80
F0
90
90
90
90
90
ENDCHAR
STARTCHAR 0126
ENCODING 294
SWIDTH 720 0
DWIDTH 8 0
BBX 6 8 1 0
BITMAP
84
84
FC
FC
84
84
84
84
ENDCHAR
STARTCHAR 0127
ENCODING 295
SWIDTH 540 0
DWIDTH 6 0
BBX 4 8 1 0
BITMAP
80
C0
F0
90
90
90
90
90
ENDCHAR
STARTCHAR 0128
ENCODING 296
SWIDTH 270 0
DWIDTH 3 0
BBX 3 10 0 0
BITMAP
80
E0
40
40
40
40
40
40
40
40
ENDCHAR
STARTCHAR 0129
ENCODING 297
SWIDTH 270 0
DWIDTH 3 0
BBX 3 8 0 0
BITMAP
A0
40
40
40
40
40
40
40
ENDCHAR
STARTCHAR 012A
ENCODING 298
SWIDTH 270 0
DWIDTH 3 0
BBX 3 10 0 0
BITMAP
E0
00
40
40
40
40
40
40
40
40
ENDCHAR
STARTCHAR 012B
ENCODING 299
SWIDTH 270 0
DWIDTH 3 0
BBX 3 8 0 0
BITMAP
E0
00
40
40
40
40
40
40
ENDCHAR
STARTCHAR 012C
ENCODING 300
SWIDTH 270 0
DWIDTH 3 0
BBX 3 10 0 0
BITMAP
A0
40
40
40
40
40
40
40
40
40
ENDCHAR
STARTCHAR 012D
ENCODING 301
SWIDTH 270 0
DWIDTH 3 0
BBX 3 8 0 0
BITMAP
A0
40
40
40
40
40
40
40
ENDCHAR
STARTCHAR 012E
ENCODING 302
SWIDTH 270 0
DWIDTH 3 0
BBX 2 10 0 -2
BITMAP
40
40
40
40
40
40
40
40
80
C0
ENDCHAR
STARTCHAR 012F
ENCODING 303
SWIDTH 270 0
DWIDTH 3 0
BBX 2 10 0 -2
BITMAP
40
00
40
40
40
40
40
40
80
80
ENDCHAR
STARTCHAR 0130
ENCODING 304
SWIDTH 270 0
DWIDTH 3 0
BBX 1 10 1 0
BITMAP
80
00
80
80
80
80
80
80
80
80
ENDCHAR
STARTCHAR 0131
ENCODING 305
SWIDTH 180 0
DWIDTH 2 0
BBX 1 6 1 0
BITMAP
80
80
80
80
80
80
ENDCHAR
STARTCHAR 0132
ENCODING 306
SWIDTH 720 0
DWIDTH 8 0
BBX 6 8 1 0
BITMAP
84
84
84
84
84
A4
A4
BC
ENDCHAR
STARTCHAR 0133
ENCODING 307
SWIDTH 360 0
DWIDTH 4 0
BBX 3 10 1 -2
BITMAP
A0
00
A0
A0
A0
A0
A0
A0
20
60
ENDCHAR
STARTCHAR 0134
ENCODING 308
SWIDTH 540 0
DWIDTH 6 0
BBX 5 10 0 0
BITMAP
18
00
08
08
08
08
08
88
88
70
ENDCHAR
STARTCHAR 0135
ENCODING 309
SWIDTH 270 0
DWIDTH 3 0
BBX 3 10 0 -2
BITMAP
40
A0
40
40
40
40
40
40
40
40
ENDCHAR
STARTCHAR 0136
ENCODING 310
SWIDTH 630 0
DWIDTH 7 0
BBX 6 10 1 -3
BITMAP
8C
98
B0
E0
D0
98
88
84
00
20
ENDCHAR
STARTCHAR 0137
ENCODING 311
SWIDTH 540 0
DWIDTH 6 0
BBX 4 11 1 -3
BITMAP
80
80
90
A0
C0
A0
B0
90
00
60
20
ENDCHAR
STARTCHAR 0138
ENCODING 312
SWIDTH 540 0
DWIDTH 6 0
BBX 4 6 1 0
BITMAP
90
A0
C0
C0
A0
90
ENDCHAR
STARTCHAR 0139
ENCODING 313
SWIDTH 540 0
DWIDTH 6 0
BBX 5 10 1 0
BITMAP
40
00
80
80
80
80
80
80
80
F8
ENDCHAR
STARTCHAR 013A
ENCODING 314
SWIDTH 270 0
DWIDTH 3 0
BBX 1 10 1 0
BITMAP
80
00
80
80
80
80
80
80
80
80
ENDCHAR
STARTCHAR 013B
ENCODING 315
SWIDTH 540 0
DWIDTH 6 0
BBX 5 11 1 -3
BITMAP
80
80
80
80
80
80
80
F8
00
20
20
ENDCHAR
STARTCHAR 013C
ENCODING 316
SWIDTH 180 0
DWIDTH 2 0
BBX 1 11 1 -3
BITMAP
80
80
80
80
80
80
80
80
00
80
80
ENDCHAR
STARTCHAR 013D
ENCODING 317
SWIDTH 540 0
DWIDTH 6 0
BBX 5 8 1 0
BITMAP
A0
A0
80
80
80
80
80
F8
ENDCHAR
STARTCHAR 013E
ENCODING 318
SWIDTH 360 0
DWIDTH 4 0
BBX 2 8 1 0
BITMAP
C0
C0
80
80
80
80
80
80
ENDCHAR
STARTCHAR 013F
ENCODING 319
SWIDTH 540 0
DWIDTH 6 0
BBX 5 8 1 0
BITMAP
80
80
80
80
88
88
80
F8
ENDCHAR
STARTCHAR 0140
ENCODING 320
SWIDTH 360 0
DWIDTH 4 0
BBX 3 8 1 0
BITMAP
80
80
80
80
A0
A0
80
80
ENDCHAR
STARTCHAR 0141
ENCODING 321
SWIDTH 630 0
DWIDTH 7 0
BBX 5 8 1 0
BITMAP
80
80
80
E0
80
80
80
F8
ENDCHAR
STARTCHAR 0142
ENCODING 322
SWIDTH 270 0
DWIDTH 3 0
BBX 3 8 0 0
BITMAP
40
40
40
60
C0
40
40
40
ENDCHAR
STARTCHAR 0143
ENCODING 323
SWIDTH 720 0
DWIDTH 8 0
BBX 6 10 1 0
BITMAP
10
00
84
C4
E4
A4
94
9C
8C
84
ENDCHAR
STARTCHAR 0144
ENCODING 324
SWIDTH 540 0
DWIDTH 6 0
BBX 4 8 1 0
BITMAP
20
00
F0
90
90
90
90
90
ENDCHAR
STARTCHAR 0145
ENCODING 325
SWIDTH 720 0
DWIDTH 8 0
BBX 6 10 1 -3
BITMAP
84
C4
E4
A4
94
9C
8C
84
00
20
ENDCHAR
STARTCHAR 0146
ENCODING 326
SWIDTH 540 0
DWIDTH 6 0
BBX 4 9 1 -3
BITMAP
F0
90
90
90
90
90
00
60
20
ENDCHAR
STARTCHAR 0147
ENCODING 327
SWIDTH 720 0
DWIDTH 8 0
BBX 6 9 1 0
BITMAP
30
84
C4
E4
A4
94
9C
8C
84
ENDCHAR
STARTCHAR 0148
ENCODING 328
SWIDTH 540 0
DWIDTH 6 0
BBX 4 8 1 0
BITMAP
60
60
F0
90
90
90
90
90
ENDCHAR
STARTCHAR 0149
ENCODING 329
SWIDTH 630 0
DWIDTH 7 0
BBX 6 8 0 0
BITMAP
C0
40
3C
24
24
24
24
24
ENDCHAR
STARTCHAR 014A
ENCODING 330
SWIDTH 630 0
DWIDTH 7 0
BBX 6 8 1 0
BITMAP
F8
8C
84
84
84
84
88
B8
ENDCHAR
STARTCHAR 014B
ENCODING 331
SWIDTH 540 0
DWIDTH 6 0
BBX 4 8 1 -2
BITMAP
F0
90
90
90
90
90
10
10
ENDCHAR
STARTCHAR 014C
ENCODING 332
SWIDTH 810 0
DWIDTH 9 0
BBX 8 10 0 0
BITMAP
1C
00
3E
42
41
81
81
41
43
3E
ENDCHAR
STARTCHAR 014D
ENCODING 333
SWIDTH 540 0
DWIDTH 6 0
BBX 6 8 0 0
BITMAP
78
00
70
48
84
84
48
78
ENDCHAR
STARTCHAR 014E
ENCODING 334
SWIDTH 810 0
DWIDTH 9 0
BBX 8 10 0 0
BITMAP
04
18
3E
42
41
81
81
41
43
3E
ENDCHAR
STARTCHAR 014F
ENCODING 335
SWIDTH 540 0
DWIDTH 6 0
BBX 6 8 0 0
BITMAP
48
30
70
48
84
84
48
78
ENDCHAR
STARTCHAR 0150
ENCODING 336
SWIDTH 810 0
DWIDTH 9 0
BBX 8 10 0 0
BITMAP
14
00
3E
42
41
81
81
41
43
3E
ENDCHAR
STARTCHAR 0151
ENCODING 337
SWIDTH 540 0
DWIDTH 6 0
BBX 6 8 0 0
BITMAP
28
10
70
48
84
84
48
78
ENDCHAR
STARTCHAR 0152
ENCODING 338
SWIDTH 990 0
DWIDTH 11 0
BBX 11 8 0 0
BITMAP
3BC0
4600
4200
83C0
8200
4200
4600
3BE0
ENDCHAR
STARTCHAR 0153
ENCODING 339
SWIDTH 900 0
DWIDTH 10 0
BBX 10 6 0 0
BITMAP
7380
4CC0
8440
8780
4C40
7F80
ENDCHAR
STARTCHAR 0154
ENCODING 340
SWIDTH 720 0
DWIDTH 8 0
BBX 6 10 1 0
BITMAP
10
20
F8
84
84
8C
F8
84
84
84
ENDCHAR
STARTCHAR 0155
ENCODING 341
SWIDTH 360 0
DWIDTH 4 0
BBX 2 8 1 0
BITMAP
40
00
C0
80
80
80
80
80
ENDCHAR
STARTCHAR 0156
ENCODING 342
SWIDTH 720 0
DWIDTH 8 0
BBX 6 10 1 -3
BITMAP
F8
84
84
8C
F8
84
84
84
00
30
ENDCHAR
STARTCHAR 0157
ENCODING 343
SWIDTH 360 0
DWIDTH 4 0
BBX 2 9 1 -3
BITMAP
C0
80
80
80
80
80
00
80
80
ENDCHAR
STARTCHAR 0158
ENCODING 344
SWIDTH 720 0
DWIDTH 8 0
BBX 6 9 1 0
BITMAP
30
F8
84
84
8C
F8
84
84
84
ENDCHAR
STARTCHAR 0159
ENCODING 345
SWIDTH 360 0
DWIDTH 4 0
BBX 2 8 1 0
BITMAP
C0
40
C0
80
80
80
80
80
ENDCHAR
STARTCHAR 015A
ENCODING 346
SWIDTH 630 0
DWIDTH 7 0
BBX 6 10 1 0
BITMAP
10
20
78
88
80
E0
18
84
84
F8
ENDCHAR
STARTCHAR 015B
ENCODING 347
SWIDTH 450 0
DWIDTH 5 0
BBX 5 8 0 0
BITMAP
10
20
70
48
40
38
88
78
ENDCHAR
STARTCHAR 015C
ENCODING 348
SWIDTH 630 0
DWIDTH 7 0
BBX 6 10 1 0
BITMAP
30
00
78
88
80
E0
18
84
84
F8
ENDCHAR
STARTCHAR 015D
ENCODING 349
SWIDTH 450 0
DWIDTH 5 0
BBX 5 8 0 0
BITMAP
30
50
70
48
40
38
88
78
ENDCHAR
STARTCHAR 015E
ENCODING 350
SWIDTH 630 0
DWIDTH 7 0
BBX 6 10 1 -2
BITMAP
78
88
80
E0
18
84
84
F8
20
70
ENDCHAR
STARTCHAR 015F
ENCODING 351
SWIDTH 450 0
DWIDTH 5 0
BBX 5 8 0 -2
BITMAP
70
48
40
38
88
78
20
70
ENDCHAR
STARTCHAR 0160
ENCODING 352
SWIDTH 630 0
DWIDTH 7 0
BBX 6 9 1 0
BITMAP
30
78
88
80
E0
18
84
84
F8
ENDCHAR
STARTCHAR 0161
ENCODING 353
SWIDTH 450 0
DWIDTH 5 0
BBX 5 8 0 0
BITMAP
50
20
70
48
40
38
88
78
ENDCHAR
STARTCHAR 0162
ENCODING 354
SWIDTH 630 0
DWIDTH 7 0
BBX 7 10 0 -2
BITMAP
FE
10
10
10
10
10
10
10
10
18
ENDCHAR
STARTCHAR 0163
ENCODING 355
SWIDTH 270 0
DWIDTH 3 0
BBX 3 9 0 -3
BITMAP
40
E0
40
40
40
40
60
40
20
ENDCHAR
STARTCHAR 0164
ENCODING 356
SWIDTH 630 0
DWIDTH 7 0
BBX 7 9 0 0
BITMAP
30
FE
10
10
10
10
10
10
10
ENDCHAR
STARTCHAR 0165
ENCODING 357
SWIDTH 360 0
DWIDTH 4 0
BBX 4 8 0 0
BITMAP
10
50
E0
40
40
40
40
60
ENDCHAR
STARTCHAR 0166
ENCODING 358
SWIDTH 630 0
DWIDTH 7 0
BBX 7 8 0 0
BITMAP
FE
10
10
7C
10
10
10
10
ENDCHAR
STARTCHAR 0167
ENCODING 359
SWIDTH 270 0
DWIDTH 3 0
BBX 3 7 0 0
BITMAP
40
E0
40
40
40
40
60
ENDCHAR
STARTCHAR 0168
ENCODING 360
SWIDTH 720 0
DWIDTH 8 0
BBX 6 10 1 0
BITMAP
28
50
84
84
84
84
84
84
84
78
ENDCHAR
STARTCHAR 0169
ENCODING 361
SWIDTH 540 0
DWIDTH 6 0
BBX 4 8 1 0
BITMAP
50
20
90
90
90
90
90
F0
ENDCHAR
STARTCHAR 016A
ENCODING 362
SWIDTH 720 0
DWIDTH 8 0
BBX 6 10 1 0
BITMAP
38
00
84
84
84
84
84
84
84
78
ENDCHAR
STARTCHAR 016B
ENCODING 363
SWIDTH 540 0
DWIDTH 6 0
BBX 4 8 1 0
BITMAP
F0
00
90
90
90
90
90
F0
ENDCHAR
STARTCHAR 016C
ENCODING 364
SWIDTH 720 0
DWIDTH 8 0
BBX 6 10 1 0
BITMAP
48
30
84
84
84
84
84
84
84
78
ENDCHAR
STARTCHAR 016D
ENCODING 365
SWIDTH 540 0
DWIDTH 6 0
BBX 4 8 1 0
BITMAP
90
60
90
90
90
90
90
F0
ENDCHAR
STARTCHAR 016E
ENCODING 366
SWIDTH 720 0
DWIDTH 8 0
BBX 6 11 1 0
BITMAP
10
30
30
84
84
84
84
84
84
84
78
ENDCHAR
STARTCHAR 016F
ENCODING 367
SWIDTH 540 0
DWIDTH 6 0
BBX 4 8 1 0
BITMAP
60
60
90
90
90
90
90
F0
ENDCHAR
STARTCHAR 0170
ENCODING 368
SWIDTH 720 0
DWIDTH 8 0
BBX 6 10 1 0
BITMAP
28
00
84
84
84
84
84
84
84
78
ENDCHAR
STARTCHAR 0171
ENCODING 369
SWIDTH 540 0
DWIDTH 6 0
BBX 4 8 1 0
BITMAP
50
A0
90
90
90
90
90
F0
ENDCHAR
STARTCHAR 0172
ENCODING 370
SWIDTH 720 0
DWIDTH 8 0
BBX 6 10 1 -2
BITMAP
84
84
84
84
84
84
84
78
10
18
ENDCHAR
STARTCHAR 0173
ENCODING 371
SWIDTH 540 0
DWIDTH 6 0
BBX 4 8 1 -2
BITMAP
90
90
90
90
90
F0
10
30
ENDCHAR
STARTCHAR 0174
ENCODING 372
SWIDTH 900 0
DWIDTH 10 0
BBX 10 10 0 0
BITMAP
0C00
0000
8C40
4C40
4CC0
4A80
5280
3280
3100
2100
ENDCHAR
STARTCHAR 0175
ENCODING 373
SWIDTH 720 0
DWIDTH 8 0
BBX 8 8 0 0
BITMAP
18
20
99
9A
5A
6A
66
24
ENDCHAR
STARTCHAR 0176
ENCODING 374
SWIDTH 630 0
DWIDTH 7 0
BBX 7 10 0 0
BITMAP
18
00
C2
44
24
38
18
10
10
10
ENDCHAR
STARTCHAR 0177
ENCODING 375
SWIDTH 450 0
DWIDTH 5 0
BBX 5 10 0 -2
BITMAP
30
50
88
48
50
50
50
20
20
C0
ENDCHAR
STARTCHAR 0178
ENCODING 376
SWIDTH 630 0
DWIDTH 7 0
BBX 7 10 0 0
BITMAP
28
00
C2
44
24
38
18
10
10
10
ENDCHAR
STARTCHAR 0179
ENCODING 377
SWIDTH 630 0
DWIDTH 7 0
BBX 6 10 0 0
BITMAP
08
10
7C
04
08
10
30
20
40
FC
ENDCHAR
STARTCHAR 017A
ENCODING 378
SWIDTH 450 0
DWIDTH 5 0
BBX 5 8 0 0
BITMAP
10
00
78
10
10
20
40
F8
ENDCHAR
STARTCHAR 017B
ENCODING 379
SWIDTH 630 0
DWIDTH 7 0
BBX 6 10 0 0
BITMAP
10
00
7C
04
08
10
30
20
40
FC
ENDCHAR
STARTCHAR 017C
ENCODING 380
SWIDTH 450 0
DWIDTH 5 0
BBX 5 8 0 0
BITMAP
20
00
78
10
10
20
40
F8
ENDCHAR
STARTCHAR 017D
ENCODING 381
SWIDTH 630 0
DWIDTH 7 0
BBX 6 9 0 0
BITMAP
38
7C
04
08
10
30
20
40
FC
ENDCHAR
STARTCHAR 017E
ENCODING 382
SWIDTH 450 0
DWIDTH 5 0
BBX 5 8 0 0
BITMAP
50
20
78
10
10
20
40
F8
ENDCHAR
STARTCHAR 017F
ENCODING 383
SWIDTH 270 0
DWIDTH 3 0
BBX 3 8 0 0
BITMAP
60
40
C0
40
40
40
40
40
ENDCHAR
STARTCHAR 0180
ENCODING 384
SWIDTH 540 0
DWIDTH 6 0
BBX 5 8 1 0
BITMAP
80
C0
F0
88
88
88
88
F0
ENDCHAR
STARTCHAR 0181
ENCODING 385
SWIDTH 810 0
DWIDTH 9 0
BBX 9 8 0 0
BITMAP
7F00
9100
5100
1F00
1100
1080
1080
1F00
ENDCHAR
STARTCHAR 0182
ENCODING 386
SWIDTH 630 0
DWIDTH 7 0
BBX 6 8 1 0
BITMAP
F8
80
80
F8
8C
84
84
F8
ENDCHAR
STARTCHAR 0183
ENCODING 387
SWIDTH 540 0
DWIDTH 6 0
BBX 5 8 1 0
BITMAP
F0
80
F0
98
88
88
88
F0
ENDCHAR
STARTCHAR 0184
ENCODING 388
SWIDTH 720 0
DWIDTH 8 0
BBX 7 8 0 0
BITMAP
40
C0
40
7C
42
42
42
7C
ENDCHAR
STARTCHAR 0185
ENCODING 389
SWIDTH 630 0
DWIDTH 7 0
BBX 6 8 0 0
BITMAP
40
C0
78
44
44
44
44
78
ENDCHAR
STARTCHAR 0186
ENCODING 390
SWIDTH 720 0
DWIDTH 8 0
BBX 6 8 1 0
BITMAP
78
8C
84
04
04
04
84
F8
ENDCHAR
STARTCHAR 0187
ENCODING 391
SWIDTH 720 0
DWIDTH 8 0
BBX 8 8 0 0
BITMAP
3D
42
40
80
80
42
42
3C
ENDCHAR
STARTCHAR 0188
ENCODING 392
SWIDTH 540 0
DWIDTH 6 0
BBX 6 6 0 0
BITMAP
7C
48
80
80
48
78
ENDCHAR
STARTCHAR 0189
ENCODING 393
SWIDTH 720 0
DWIDTH 8 0
BBX 6 8 1 0
BITMAP
F8
84
84
84
C4
84
84
F8
ENDCHAR
STARTCHAR 018A
ENCODING 394
SWIDTH 900 0
DWIDTH 10 0
BBX 9 8 0 0
BITMAP
7F00
9180
5080
1080
1080
1080
1180
1F00
ENDCHAR
STARTCHAR 018B
ENCODING 395
SWIDTH 630 0
DWIDTH 7 0
BBX 6 8 0 0
BITMAP
7C
04
04
3C
44
84
44
7C
ENDCHAR
STARTCHAR 018C
ENCODING 396
SWIDTH 540 0
DWIDTH 6 0
BBX 5 8 0 0
BITMAP
78
08
78
48
88
88
48
78
ENDCHAR
STARTCHAR 018D
ENCODING 397
SWIDTH 540 0
DWIDTH 6 0
BBX 6 8 0 -2
BITMAP
78
4C
84
84
48
30
10
78
ENDCHAR
STARTCHAR 018E
ENCODING 398
SWIDTH 630 0
DWIDTH 7 0
BBX 6 8 0 0
BITMAP
7C
04
04
7C
04
04
04
FC
ENDCHAR
STARTCHAR 018F
ENCODING 399
SWIDTH 720 0
DWIDTH 8 0
BBX 7 8 0 0
BITMAP
3C
42
02
02
FE
42
42
7C
ENDCHAR
STARTCHAR 0190
ENCODING 400
SWIDTH 630 0
DWIDTH 7 0
BBX 7 8 0 0
BITMAP
7C
44
40
60
70
C2
46
7C
ENDCHAR
STARTCHAR 0191
ENCODING 401
SWIDTH 630 0
DWIDTH 7 0
BBX 6 10 0 -2
BITMAP
7C
40
40
7C
40
40
40
40
40
C0
ENDCHAR
STARTCHAR 0192
ENCODING 402
SWIDTH 270 0
DWIDTH 3 0
BBX 3 10 0 -2
BITMAP
60
40
E0
40
40
40
40
40
40
C0
ENDCHAR
STARTCHAR 0193
ENCODING 403
SWIDTH 810 0
DWIDTH 9 0
BBX 9 8 0 0
BITMAP
3F80
4300
4000
8000
8F00
4100
4300
3D00
ENDCHAR
STARTCHAR 0194
ENCODING 404
SWIDTH 630 0
DWIDTH 7 0
BBX 7 8 0 0
BITMAP
C2
44
24
38
18
18
38
18
ENDCHAR
STARTCHAR 0195
ENCODING 405
SWIDTH 810 0
DWIDTH 9 0
BBX 8 8 1 0
BITMAP
80
80
F0
92
91
91
91
9E
ENDCHAR
STARTCHAR 0196
ENCODING 406
SWIDTH 270 0
DWIDTH 3 0
BBX 2 8 1 0
BITMAP
80
80
80
80
80
80
80
C0
ENDCHAR
STARTCHAR 0197
ENCODING 407
SWIDTH 360 0
DWIDTH 4 0
BBX 2 8 1 0
BITMAP
C0
C0
C0
C0
C0
C0
C0
C0
ENDCHAR
STARTCHAR 0198
ENCODING 408
SWIDTH 630 0
DWIDTH 7 0
BBX 6 8 1 0
BITMAP
8C
98
B0
E0
D0
98
88
84
ENDCHAR
STARTCHAR 0199
ENCODING 409
SWIDTH 540 0
DWIDTH 6 0
BBX 4 8 1 0
BITMAP
C0
80
90
A0
C0
A0
B0
90
ENDCHAR
STARTCHAR 019A
ENCODING 410
SWIDTH 360 0
DWIDTH 4 0
BBX 2 8 1 0
BITMAP
80
80
80
80
C0
80
80
80
ENDCHAR
STARTCHAR 019B
ENCODING 411
SWIDTH 540 0
DWIDTH 6 0
BBX 6 8 0 0
BITMAP
50
20
E0
30
50
50
48
8C
ENDCHAR
STARTCHAR 019C
ENCODING 412
SWIDTH 900 0
DWIDTH 10 0
BBX 8 8 1 0
BITMAP
91
91
91
91
91
91
93
ED
ENDCHAR
STARTCHAR 019D
ENCODING 413
SWIDTH 720 0
DWIDTH 8 0
BBX 7 10 0 -2
BITMAP
42
62
72
52
4A
4E
46
42
40
C0
ENDCHAR
STARTCHAR 019E
ENCODING 414
SWIDTH 540 0
DWIDTH 6 0
BBX 4 8 1 -2
BITMAP
F0
90
90
90
90
90
10
10
ENDCHAR
STARTCHAR 019F
ENCODING 415
SWIDTH 810 0
DWIDTH 9 0
BBX 8 8 0 0
BITMAP
3E
42
41
81
FF
41
43
3E
ENDCHAR
STARTCHAR 01A0
ENCODING 416
SWIDTH 810 0
DWIDTH 9 0
BBX 9 8 0 1
BITMAP
3E80
4300
4100
8100
8100
4100
4300
3E00
ENDCHAR
STARTCHAR 01A1
ENCODING 417
SWIDTH 540 0
DWIDTH 6 0
BBX 6 7 0 0
BITMAP
04
7C
48
84
84
48
78
ENDCHAR
STARTCHAR 01A2
ENCODING 418
SWIDTH 990 0
DWIDTH 11 0
BBX 10 8 0 0
BITMAP
3FC0
4340
4140
8140
8140
4140
4340
3E40
ENDCHAR
STARTCHAR 01A3
ENCODING 419
SWIDTH 720 0
DWIDTH 8 0
BBX 7 8 0 -2
BITMAP
7E
4A
86
86
4A
7A
02
02
ENDCHAR
STARTCHAR 01A4
ENCODING 420
SWIDTH 810 0
DWIDTH 9 0
BBX 9 8 0 0
BITMAP
7F00
9180
5080
1100
1E00
1000
1000
1000
ENDCHAR
STARTCHAR 01A5
ENCODING 421
SWIDTH 540 0
DWIDTH 6 0
BBX 5 10 1 -2
BITMAP
80
80
F0
90
88
88
88
F0
80
80
ENDCHAR
STARTCHAR 01A6
ENCODING 422
SWIDTH 630 0
DWIDTH 7 0
BBX 6 9 1 -1
BITMAP
80
F0
88
84
8C
F8
88
84
04
ENDCHAR
STARTCHAR 01A7
ENCODING 423
SWIDTH 630 0
DWIDTH 7 0
BBX 6 8 1 0
BITMAP
78
8C
0C
38
C0
84
84
F8
ENDCHAR
STARTCHAR 01A8
ENCODING 424
SWIDTH 540 0
DWIDTH 6 0
BBX 5 6 0 0
BITMAP
70
48
18
60
88
78
ENDCHAR
STARTCHAR 01A9
ENCODING 425
SWIDTH 630 0
DWIDTH 7 0
BBX 6 8 0 0
BITMAP
FC
40
20
30
30
20
40
FC
ENDCHAR
STARTCHAR 01AA
ENCODING 426
SWIDTH 360 0
DWIDTH 4 0
BBX 3 10 0 -2
BITMAP
C0
A0
60
20
20
20
20
20
20
20
ENDCHAR
STARTCHAR 01AB
ENCODING 427
SWIDTH 270 0
DWIDTH 3 0
BBX 3 9 0 -2
BITMAP
40
E0
40
40
40
40
60
20
60
ENDCHAR
STARTCHAR 01AC
ENCODING 428
SWIDTH 630 0
DWIDTH 7 0
BBX 7 8 0 0
BITMAP
FE
90
D0
10
10
10
10
10
ENDCHAR
STARTCHAR 01AD
ENCODING 429
SWIDTH 270 0
DWIDTH 3 0
BBX 3 8 0 0
BITMAP
60
40
E0
40
40
40
40
60
ENDCHAR
STARTCHAR 01AE
ENCODING 430
SWIDTH 630 0
DWIDTH 7 0
BBX 7 10 0 -2
BITMAP
FE
10
10
10
10
10
10
10
10
18
ENDCHAR
STARTCHAR 01AF
ENCODING 431
SWIDTH 810 0
DWIDTH 9 0
BBX 7 9 1 0
BITMAP
02
86
84
84
84
84
84
84
78
ENDCHAR
STARTCHAR 01B0
ENCODING 432
SWIDTH 630 0
DWIDTH 7 0
BBX 6 7 1 0
BITMAP
04
9C
90
90
90
90
F0
ENDCHAR
STARTCHAR 01B1
ENCODING 433
SWIDTH 720 0
DWIDTH 8 0
BBX 8 8 0 0
BITMAP
77
22
41
41
81
41
42
3C
ENDCHAR
STARTCHAR 01B2
ENCODING 434
SWIDTH 720 0
DWIDTH 8 0
BBX 6 8 1 0
BITMAP
88
8C
84
84
84
84
8C
F8
ENDCHAR
STARTCHAR 01B3
ENCODING 435
SWIDTH 720 0
DWIDTH 8 0
BBX 8 8 0 0
BITMAP
C3
44
24
38
18
10
10
10
ENDCHAR
STARTCHAR 01B4
ENCODING 436
SWIDTH 630 0
DWIDTH 7 0
BBX 7 10 0 -2
BITMAP
06
08
88
48
50
50
50
20
20
C0
ENDCHAR
STARTCHAR 01B5
ENCODING 437
SWIDTH 630 0
DWIDTH 7 0
BBX 6 8 0 0
BITMAP
7C
04
08
10
38
20
40
FC
ENDCHAR
STARTCHAR 01B6
ENCODING 438
SWIDTH 450 0
DWIDTH 5 0
BBX 5 6 0 0
BITMAP
78
10
10
60
40
F8
ENDCHAR
STARTCHAR 01B7
ENCODING 439
SWIDTH 630 0
DWIDTH 7 0
BBX 5 8 1 0
BITMAP
F8
08
10
30
08
08
88
F8
ENDCHAR
STARTCHAR 01B8
ENCODING 440
SWIDTH 630 0
DWIDTH 7 0
BBX 6 8 0 0
BITMAP
FC
40
20
30
40
80
C4
7C
ENDCHAR
STARTCHAR 01B9
ENCODING 441
SWIDTH 540 0
DWIDTH 6 0
BBX 5 8 0 -2
BITMAP
78
40
20
60
80
80
48
30
ENDCHAR
STARTCHAR 01BA
ENCODING 442
SWIDTH 540 0
DWIDTH 6 0
BBX 5 8 0 -2
BITMAP
78
10
10
38
08
08
F0
78
ENDCHAR
STARTCHAR 01BB
ENCODING 443
SWIDTH 540 0
DWIDTH 6 0
BBX 6 8 0 0
BITMAP
30
48
44
08
38
68
40
FC
ENDCHAR
STARTCHAR 01BE
ENCODING 446
SWIDTH 450 0
DWIDTH 5 0
BBX 5 7 0 0
BITMAP
20
70
20
10
08
88
78
ENDCHAR
STARTCHAR 01BF
ENCODING 447
SWIDTH 540 0
DWIDTH 6 0
BBX 5 8 1 -2
BITMAP
70
88
88
90
B0
C0
80
80
ENDCHAR
STARTCHAR 01C0
ENCODING 448
SWIDTH 270 0
DWIDTH 3 0
BBX 1 10 1 -2
BITMAP
80
80
80
80
80
80
80
80
80
80
ENDCHAR
STARTCHAR 01C1
ENCODING 449
SWIDTH 360 0
DWIDTH 4 0
BBX 2 10 1 -2
BITMAP
C0
C0
C0
C0
C0
C0
C0
C0
C0
C0
ENDCHAR
STARTCHAR 01C2
ENCODING 450
SWIDTH 540 0
DWIDTH 6 0
BBX 5 10 1 -2
BITMAP
20
20
20
20
F8
20
F8
20
20
20
ENDCHAR
STARTCHAR 01C3
ENCODING 451
SWIDTH 270 0
DWIDTH 3 0
BBX 1 8 1 0
BITMAP
80
80
80
80
80
80
00
80
ENDCHAR
STARTCHAR 01C4
ENCODING 452
SWIDTH 1260 0
DWIDTH 14 0
BBX 13 9 1 0
BITMAP
0060
F9F8
8C10
8420
8460
8440
8480
8D00
F9F8
ENDCHAR
STARTCHAR 01C5
ENCODING 453
SWIDTH 1170 0
DWIDTH 13 0
BBX 12 8 1 0
BITMAP
F8A0
8C40
85E0
8420
8440
8480
8D80
F9F0
ENDCHAR
STARTCHAR 01C6
ENCODING 454
SWIDTH 990 0
DWIDTH 11 0
BBX 11 8 0 0
BITMAP
0940
0880
79E0
4840
8840
8880
4900
7BE0
ENDCHAR
STARTCHAR 01C7
ENCODING 455
SWIDTH 1080 0
DWIDTH 12 0
BBX 10 8 1 0
BITMAP
8040
8040
8040
8040
8040
8440
8440
FB80
ENDCHAR
STARTCHAR 01C8
ENCODING 456
SWIDTH 810 0
DWIDTH 9 0
BBX 7 10 1 -2
BITMAP
82
80
82
82
82
82
82
FA
02
02
ENDCHAR
STARTCHAR 01C9
ENCODING 457
SWIDTH 450 0
DWIDTH 5 0
BBX 3 10 1 -2
BITMAP
A0
80
A0
A0
A0
A0
A0
A0
20
20
ENDCHAR
STARTCHAR 01CA
ENCODING 458
SWIDTH 1170 0
DWIDTH 13 0
BBX 11 8 1 0
BITMAP
8420
C420
E420
A420
9420
9D20
8D20
85E0
ENDCHAR
STARTCHAR 01CB
ENCODING 459
SWIDTH 900 0
DWIDTH 10 0
BBX 9 10 1 -2
BITMAP
8480
C400
E480
A480
9480
9C80
8C80
8480
0080
0180
ENDCHAR
STARTCHAR 01CC
ENCODING 460
SWIDTH 720 0
DWIDTH 8 0
BBX 7 10 1 -2
BITMAP
02
00
F2
92
92
92
92
92
02
06
ENDCHAR
STARTCHAR 01CD
ENCODING 461
SWIDTH 630 0
DWIDTH 7 0
BBX 7 9 0 0
BITMAP
18
18
38
28
2C
44
7C
46
82
ENDCHAR
STARTCHAR 01CE
ENCODING 462
SWIDTH 540 0
DWIDTH 6 0
BBX 6 8 0 0
BITMAP
30
30
78
48
08
78
88
7C
ENDCHAR
STARTCHAR 01CF
ENCODING 463
SWIDTH 270 0
DWIDTH 3 0
BBX 2 9 1 0
BITMAP
C0
80
80
80
80
80
80
80
80
ENDCHAR
STARTCHAR 01D0
ENCODING 464
SWIDTH 270 0
DWIDTH 3 0
BBX 3 8 0 0
BITMAP
A0
40
40
40
40
40
40
40
ENDCHAR
STARTCHAR 01D1
ENCODING 465
SWIDTH 810 0
DWIDTH 9 0
BBX 8 9 0 0
BITMAP
18
3E
42
41
81
81
41
43
3E
ENDCHAR
STARTCHAR 01D2
ENCODING 466
SWIDTH 540 0
DWIDTH 6 0
BBX 6 8 0 0
BITMAP
30
30
70
48
84
84
48
78
ENDCHAR
STARTCHAR 01D3
ENCODING 467
SWIDTH 720 0
DWIDTH 8 0
BBX 6 9 1 0
BITMAP
30
84
84
84
84
84
84
84
78
ENDCHAR
STARTCHAR 01D4
ENCODING 468
SWIDTH 540 0
DWIDTH 6 0
BBX 4 8 1 0
BITMAP
60
60
90
90
90
90
90
F0
ENDCHAR
STARTCHAR 01D5
ENCODING 469
SWIDTH 720 0
DWIDTH 8 0
BBX 6 11 1 0
BITMAP
70
78
78
84
84
84
84
84
84
84
78
ENDCHAR
STARTCHAR 01D6
ENCODING 470
SWIDTH 540 0
DWIDTH 6 0
BBX 4 9 1 0
BITMAP
70
F0
F0
90
90
90
90
90
F0
ENDCHAR
STARTCHAR 01D7
ENCODING 471
SWIDTH 720 0
DWIDTH 8 0
BBX 6 11 1 0
BITMAP
10
00
78
84
84
84
84
84
84
84
78
ENDCHAR
STARTCHAR 01D8
ENCODING 472
SWIDTH 540 0
DWIDTH 6 0
BBX 4 10 1 0
BITMAP
30
20
F0
00
90
90
90
90
90
F0
ENDCHAR
STARTCHAR 01D9
ENCODING 473
SWIDTH 720 0
DWIDTH 8 0
BBX 6 10 1 0
BITMAP
30
78
84
84
84
84
84
84
84
78
ENDCHAR
STARTCHAR 01DA
ENCODING 474
SWIDTH 540 0
DWIDTH 6 0
BBX 4 9 1 1
BITMAP
60
F0
F0
90
90
90
90
90
F0
ENDCHAR
STARTCHAR 01DB
ENCODING 475
SWIDTH 720 0
DWIDTH 8 0
BBX 6 11 1 0
BITMAP
20
00
78
84
84
84
84
84
84
84
78
ENDCHAR
STARTCHAR 01DC
ENCODING 476
SWIDTH 540 0
DWIDTH 6 0
BBX 4 10 1 0
BITMAP
C0
40
F0
F0
90
90
90
90
90
F0
ENDCHAR
STARTCHAR 01DD
ENCODING 477
SWIDTH 540 0
DWIDTH 6 0
BBX 6 6 0 0
BITMAP
70
48
08
FC
88
78
ENDCHAR
STARTCHAR 01DE
ENCODING 478
SWIDTH 630 0
DWIDTH 7 0
BBX 7 11 0 0
BITMAP
38
28
28
18
38
28
2C
44
7C
46
82
ENDCHAR
STARTCHAR 01DF
ENCODING 479
SWIDTH 540 0
DWIDTH 6 0
BBX 6 9 0 0
BITMAP
38
38
38
78
48
08
78
88
7C
ENDCHAR
STARTCHAR 01E0
ENCODING 480
SWIDTH 630 0
DWIDTH 7 0
BBX 7 10 0 0
BITMAP
18
10
18
38
28
2C
44
7C
46
82
ENDCHAR
STARTCHAR 01E1
ENCODING 481
SWIDTH 540 0
DWIDTH 6 0
BBX 6 9 0 0
BITMAP
38
30
30
78
48
08
78
88
7C
ENDCHAR
STARTCHAR 01E2
ENCODING 482
SWIDTH 990 0
DWIDTH 11 0
BBX 11 10 0 0
BITMAP
0700
0000
1FC0
1400
2400
27C0
2400
7C00
4400
87E0
ENDCHAR
STARTCHAR 01E3
ENCODING 483
SWIDTH 900 0
DWIDTH 10 0
BBX 9 8 0 0
BITMAP
1C00
0000
7700
4880
0880
7F00
8880
7780
ENDCHAR
STARTCHAR 01E4
ENCODING 484
SWIDTH 810 0
DWIDTH 9 0
BBX 8 8 0 0
BITMAP
3E
42
40
80
8F
4F
43
3D
ENDCHAR
STARTCHAR 01E5
ENCODING 485
SWIDTH 540 0
DWIDTH 6 0
BBX 5 8 0 -2
BITMAP
70
48
88
88
48
78
08
78
ENDCHAR
STARTCHAR 01E6
ENCODING 486
SWIDTH 720 0
DWIDTH 8 0
BBX 8 9 0 0
BITMAP
18
3E
42
40
80
8F
41
43
3D
ENDCHAR
STARTCHAR 01E7
ENCODING 487
SWIDTH 540 0
DWIDTH 6 0
BBX 5 10 0 -2
BITMAP
50
20
78
48
88
88
48
78
08
78
ENDCHAR
STARTCHAR 01E8
ENCODING 488
SWIDTH 630 0
DWIDTH 7 0
BBX 6 9 1 0
BITMAP
30
8C
98
B0
E0
D0
98
88
84
ENDCHAR
STARTCHAR 01E9
ENCODING 489
SWIDTH 540 0
DWIDTH 6 0
BBX 4 10 1 0
BITMAP
20
60
80
80
90
A0
C0
A0
B0
90
ENDCHAR
STARTCHAR 01EA
ENCODING 490
SWIDTH 810 0
DWIDTH 9 0
BBX 8 10 0 -2
BITMAP
3E
42
41
81
81
41
43
3E
10
10
ENDCHAR
STARTCHAR 01EB
ENCODING 491
SWIDTH 540 0
DWIDTH 6 0
BBX 6 8 0 -2
BITMAP
70
48
84
84
48
78
20
60
ENDCHAR
STARTCHAR 01EC
ENCODING 492
SWIDTH 810 0
DWIDTH 9 0
BBX 8 12 0 -2
BITMAP
1C
00
3E
42
41
81
81
41
43
3E
10
10
ENDCHAR
STARTCHAR 01ED
ENCODING 493
SWIDTH 540 0
DWIDTH 6 0
BBX 6 9 0 -2
BITMAP
78
70
48
84
84
48
78
20
60
ENDCHAR
STARTCHAR 01EE
ENCODING 494
SWIDTH 630 0
DWIDTH 7 0
BBX 5 9 1 0
BITMAP
70
F8
08
10
30
08
08
88
F8
ENDCHAR
STARTCHAR 01EF
ENCODING 495
SWIDTH 540 0
DWIDTH 6 0
BBX 5 10 0 -2
BITMAP
50
20
78
18
10
38
08
88
48
30
ENDCHAR
STARTCHAR 01F0
ENCODING 496
SWIDTH 180 0
DWIDTH 2 0
BBX 3 10 0 -2
BITMAP
A0
C0
40
40
40
40
40
40
40
C0
ENDCHAR
STARTCHAR 01F1
ENCODING 497
SWIDTH 1260 0
DWIDTH 14 0
BBX 13 8 1 0
BITMAP
F9F8
8C10
8430
8420
8440
8480
8D80
F9F8
ENDCHAR
STARTCHAR 01F2
ENCODING 498
SWIDTH 1170 0
DWIDTH 13 0
BBX 12 8 1 0
BITMAP
F800
8C00
85E0
8420
8440
8480
8D80
F9F0
ENDCHAR
STARTCHAR 01F3
ENCODING 499
SWIDTH 990 0
DWIDTH 11 0
BBX 11 8 0 0
BITMAP
0800
0800
79E0
4860
8840
8880
4900
7BE0
ENDCHAR
STARTCHAR 01F4
ENCODING 500
SWIDTH 720 0
DWIDTH 8 0
BBX 8 10 0 0
BITMAP
0C
00
3E
42
40
80
8F
41
43
3D
ENDCHAR
STARTCHAR 01F5
ENCODING 501
SWIDTH 540 0
DWIDTH 6 0
BBX 5 10 0 -2
BITMAP
10
00
78
48
88
88
48
78
08
78
ENDCHAR
STARTCHAR 01F7
ENCODING 503
SWIDTH 630 0
DWIDTH 7 0
BBX 5 8 1 0
BITMAP
F8
88
88
98
B0
E0
80
80
ENDCHAR
STARTCHAR 01F8
ENCODING 504
SWIDTH 720 0
DWIDTH 8 0
BBX 6 10 1 0
BITMAP
20
10
84
C4
E4
A4
94
9C
8C
84
ENDCHAR
STARTCHAR 01F9
ENCODING 505
SWIDTH 540 0
DWIDTH 6 0
BBX 4 8 1 0
BITMAP
40
00
F0
90
90
90
90
90
ENDCHAR
STARTCHAR 01FA
ENCODING 506
SWIDTH 630 0
DWIDTH 7 0
BBX 7 10 0 0
BITMAP
10
10
28
10
18
28
2C
44
7C
82
ENDCHAR
STARTCHAR 01FB
ENCODING 507
SWIDTH 540 0
DWIDTH 6 0
BBX 6 10 0 0
BITMAP
10
20
30
30
78
48
08
78
88
7C
ENDCHAR
STARTCHAR 01FC
ENCODING 508
SWIDTH 990 0
DWIDTH 11 0
BBX 11 10 0 0
BITMAP
0100
0000
1FC0
1400
2400
27C0
2400
7C00
4400
87E0
ENDCHAR
STARTCHAR 01FD
ENCODING 509
SWIDTH 900 0
DWIDTH 10 0
BBX 9 8 0 0
BITMAP
0400
0000
7700
4880
0880
7F00
8880
7780
ENDCHAR
STARTCHAR 01FE
ENCODING 510
SWIDTH 810 0
DWIDTH 9 0
BBX 8 10 0 0
BITMAP
0C
00
3F
43
45
89
91
61
43
3E
ENDCHAR
STARTCHAR 01FF
ENCODING 511
SWIDTH 630 0
DWIDTH 7 0
BBX 6 8 0 0
BITMAP
10
00
74
48
98
A4
48
78
ENDCHAR
STARTCHAR 0200
ENCODING 512
SWIDTH 630 0
DWIDTH 7 0
BBX 7 10 0 0
BITMAP
38
00
18
38
28
2C
44
7C
46
82
ENDCHAR
STARTCHAR 0201
ENCODING 513
SWIDTH 540 0
DWIDTH 6 0
BBX 6 8 0 0
BITMAP
50
30
78
48
08
78
88
7C
ENDCHAR
STARTCHAR 0202
ENCODING 514
SWIDTH 630 0
DWIDTH 7 0
BBX 7 10 0 0
BITMAP
38
20
18
38
28
2C
44
7C
46
82
ENDCHAR
STARTCHAR 0203
ENCODING 515
SWIDTH 540 0
DWIDTH 6 0
BBX 6 8 0 0
BITMAP
30
48
78
48
08
78
88
7C
ENDCHAR
STARTCHAR 0204
ENCODING 516
SWIDTH 630 0
DWIDTH 7 0
BBX 6 10 1 0
BITMAP
50
00
F8
80
80
F8
80
80
80
FC
ENDCHAR
STARTCHAR 0205
ENCODING 517
SWIDTH 540 0
DWIDTH 6 0
BBX 5 8 0 0
BITMAP
50
20
30
48
88
F0
48
78
ENDCHAR
STARTCHAR 0206
ENCODING 518
SWIDTH 630 0
DWIDTH 7 0
BBX 6 10 1 0
BITMAP
30
40
F8
80
80
F8
80
80
80
FC
ENDCHAR
STARTCHAR 0207
ENCODING 519
SWIDTH 540 0
DWIDTH 6 0
BBX 5 8 0 0
BITMAP
30
48
30
48
88
F0
48
78
ENDCHAR
STARTCHAR 0208
ENCODING 520
SWIDTH 270 0
DWIDTH 3 0
BBX 3 10 0 0
BITMAP
A0
00
40
40
40
40
40
40
40
40
ENDCHAR
STARTCHAR 0209
ENCODING 521
SWIDTH 270 0
DWIDTH 3 0
BBX 3 8 0 0
BITMAP
C0
20
40
40
40
40
40
40
ENDCHAR
STARTCHAR 020A
ENCODING 522
SWIDTH 270 0
DWIDTH 3 0
BBX 3 10 0 0
BITMAP
E0
80
40
40
40
40
40
40
40
40
ENDCHAR
STARTCHAR 020B
ENCODING 523
SWIDTH 270 0
DWIDTH 3 0
BBX 3 8 0 0
BITMAP
E0
20
40
40
40
40
40
40
ENDCHAR
STARTCHAR 020C
ENCODING 524
SWIDTH 810 0
DWIDTH 9 0
BBX 8 10 0 0
BITMAP
38
00
3E
42
41
81
81
41
43
3E
ENDCHAR
STARTCHAR 020D
ENCODING 525
SWIDTH 540 0
DWIDTH 6 0
BBX 6 8 0 0
BITMAP
50
10
70
48
84
84
48
78
ENDCHAR
STARTCHAR 020E
ENCODING 526
SWIDTH 810 0
DWIDTH 9 0
BBX 8 10 0 0
BITMAP
18
04
3E
42
41
81
81
41
43
3E
ENDCHAR
STARTCHAR 020F
ENCODING 527
SWIDTH 540 0
DWIDTH 6 0
BBX 6 8 0 0
BITMAP
30
48
70
48
84
84
48
78
ENDCHAR
STARTCHAR 0210
ENCODING 528
SWIDTH 720 0
DWIDTH 8 0
BBX 6 10 1 0
BITMAP
70
00
F8
84
84
8C
F8
84
84
84
ENDCHAR
STARTCHAR 0211
ENCODING 529
SWIDTH 360 0
DWIDTH 4 0
BBX 3 8 0 0
BITMAP
A0
40
60
40
40
40
40
40
ENDCHAR
STARTCHAR 0212
ENCODING 530
SWIDTH 720 0
DWIDTH 8 0
BBX 6 10 1 0
BITMAP
30
48
F8
84
84
8C
F8
84
84
84
ENDCHAR
STARTCHAR 0213
ENCODING 531
SWIDTH 360 0
DWIDTH 4 0
BBX 3 8 1 0
BITMAP
C0
20
C0
80
80
80
80
80
ENDCHAR
STARTCHAR 0214
ENCODING 532
SWIDTH 720 0
DWIDTH 8 0
BBX 6 10 1 0
BITMAP
50
00
84
84
84
84
84
84
84
78
ENDCHAR
STARTCHAR 0215
ENCODING 533
SWIDTH 540 0
DWIDTH 6 0
BBX 4 8 1 0
BITMAP
A0
50
90
90
90
90
90
F0
ENDCHAR
STARTCHAR 0216
ENCODING 534
SWIDTH 720 0
DWIDTH 8 0
BBX 6 10 1 0
BITMAP
30
48
84
84
84
84
84
84
84
78
ENDCHAR
STARTCHAR 0217
ENCODING 535
SWIDTH 540 0
DWIDTH 6 0
BBX 4 8 1 0
BITMAP
60
90
90
90
90
90
90
F0
ENDCHAR
STARTCHAR 0218
ENCODING 536
SWIDTH 630 0
DWIDTH 7 0
BBX 6 10 1 -3
BITMAP
78
88
80
E0
18
84
84
F8
00
20
ENDCHAR
STARTCHAR 0219
ENCODING 537
SWIDTH 450 0
DWIDTH 5 0
BBX 5 8 0 -3
BITMAP
70
48
40
38
88
78
00
20
ENDCHAR
STARTCHAR 021A
ENCODING 538
SWIDTH 630 0
DWIDTH 7 0
BBX 7 11 0 -3
BITMAP
FE
10
10
10
10
10
10
10
00
10
10
ENDCHAR
STARTCHAR 021B
ENCODING 539
SWIDTH 270 0
DWIDTH 3 0
BBX 3 9 0 -3
BITMAP
40
E0
40
40
40
40
60
00
40
ENDCHAR
STARTCHAR 021C
ENCODING 540
SWIDTH 540 0
DWIDTH 6 0
BBX 5 9 0 -1
BITMAP
30
48
88
08
38
08
08
38
60
ENDCHAR
STARTCHAR 021D
ENCODING 541
SWIDTH 450 0
DWIDTH 5 0
BBX 4 7 0 -1
BITMAP
70
90
10
70
10
30
C0
ENDCHAR
STARTCHAR 021E
ENCODING 542
SWIDTH 720 0
DWIDTH 8 0
BBX 6 9 1 0
BITMAP
30
84
84
84
FC
84
84
84
84
ENDCHAR
STARTCHAR 021F
ENCODING 543
SWIDTH 540 0
DWIDTH 6 0
BBX 4 10 1 0
BITMAP
50
20
80
80
F0
90
90
90
90
90
ENDCHAR
STARTCHAR 0220
ENCODING 544
SWIDTH 720 0
DWIDTH 8 0
BBX 6 10 1 -2
BITMAP
F8
84
84
84
84
84
84
84
04
04
ENDCHAR
STARTCHAR 0224
ENCODING 548
SWIDTH 630 0
DWIDTH 7 0
BBX 6 10 0 -2
BITMAP
7C
04
08
10
30
20
40
FC
04
04
ENDCHAR
STARTCHAR 0225
ENCODING 549
SWIDTH 450 0
DWIDTH 5 0
BBX 5 8 0 -2
BITMAP
78
10
10
20
40
F8
08
08
ENDCHAR
STARTCHAR 0226
ENCODING 550
SWIDTH 630 0
DWIDTH 7 0
BBX 7 10 0 0
BITMAP
10
00
18
38
28
2C
44
7C
46
82
ENDCHAR
STARTCHAR 0227
ENCODING 551
SWIDTH 540 0
DWIDTH 6 0
BBX 6 8 0 0
BITMAP
30
00
78
48
08
78
88
7C
ENDCHAR
STARTCHAR 0228
ENCODING 552
SWIDTH 630 0
DWIDTH 7 0
BBX 6 10 1 -2
BITMAP
F8
80
80
F8
80
80
80
FC
20
30
ENDCHAR
STARTCHAR 0229
ENCODING 553
SWIDTH 540 0
DWIDTH 6 0
BBX 5 9 0 -3
BITMAP
30
48
88
F0
48
78
20
10
20
ENDCHAR
STARTCHAR 022A
ENCODING 554
SWIDTH 810 0
DWIDTH 9 0
BBX 8 11 0 0
BITMAP
1C
14
14
3E
42
41
81
81
41
43
3E
ENDCHAR
STARTCHAR 022B
ENCODING 555
SWIDTH 540 0
DWIDTH 6 0
BBX 6 9 0 0
BITMAP
38
00
78
70
48
84
84
48
78
ENDCHAR
STARTCHAR 022C
ENCODING 556
SWIDTH 810 0
DWIDTH 9 0
BBX 8 11 0 0
BITMAP
1C
14
08
3E
42
41
81
81
41
43
3E
ENDCHAR
STARTCHAR 022D
ENCODING 557
SWIDTH 540 0
DWIDTH 6 0
BBX 6 9 0 0
BITMAP
38
00
70
70
48
84
84
48
78
ENDCHAR
STARTCHAR 022E
ENCODING 558
SWIDTH 810 0
DWIDTH 9 0
BBX 8 10 0 0
BITMAP
08
00
3E
42
41
81
81
41
43
3E
ENDCHAR
STARTCHAR 022F
ENCODING 559
SWIDTH 540 0
DWIDTH 6 0
BBX 6 8 0 0
BITMAP
30
00
70
48
84
84
48
78
ENDCHAR
STARTCHAR 0230
ENCODING 560
SWIDTH 810 0
DWIDTH 9 0
BBX 8 11 0 0
BITMAP
1C
08
00
3E
42
41
81
81
41
43
3E
ENDCHAR
STARTCHAR 0231
ENCODING 561
SWIDTH 540 0
DWIDTH 6 0
BBX 6 9 0 0
BITMAP
78
30
30
70
48
84
84
48
78
ENDCHAR
STARTCHAR 0232
ENCODING 562
SWIDTH 630 0
DWIDTH 7 0
BBX 7 9 0 0
BITMAP
18
C2
44
24
38
18
10
10
10
ENDCHAR
STARTCHAR 0233
ENCODING 563
SWIDTH 450 0
DWIDTH 5 0
BBX 5 9 0 -2
BITMAP
70
88
48
50
50
50
20
20
C0
ENDCHAR
STARTCHAR 0237
ENCODING 567
SWIDTH 180 0
DWIDTH 2 0
BBX 2 8 0 -2
BITMAP
40
40
40
40
40
40
40
C0
ENDCHAR
STARTCHAR 0238
ENCODING 568
SWIDTH 900 0
DWIDTH 10 0
BBX 10 8 0 0
BITMAP
0800
0800
7B80
4C80
8440
8840
4CC0
7B80
ENDCHAR
STARTCHAR 0239
ENCODING 569
SWIDTH 900 0
DWIDTH 10 0
BBX 10 8 0 -2
BITMAP
7380
4C80
8440
8840
CCC0
7B80
0800
0800
ENDCHAR
STARTCHAR 0250
ENCODING 592
SWIDTH 540 0
DWIDTH 6 0
BBX 6 6 0 0
BITMAP
F8
44
4C
70
48
78
ENDCHAR
STARTCHAR 0251
ENCODING 593
SWIDTH 540 0
DWIDTH 6 0
BBX 6 6 0 0
BITMAP
78
48
88
88
48
74
ENDCHAR
STARTCHAR 0252
ENCODING 594
SWIDTH 540 0
DWIDTH 6 0
BBX 6 6 0 0
BITMAP
F8
44
44
44
44
78
ENDCHAR
STARTCHAR 0253
ENCODING 595
SWIDTH 540 0
DWIDTH 6 0
BBX 5 8 1 0
BITMAP
C0
80
F0
98
88
88
88
F0
ENDCHAR
STARTCHAR 0254
ENCODING 596
SWIDTH 540 0
DWIDTH 6 0
BBX 5 6 0 0
BITMAP
70
C8
08
08
88
70
ENDCHAR
STARTCHAR 0255
ENCODING 597
SWIDTH 540 0
DWIDTH 6 0
BBX 5 6 0 0
BITMAP
70
48
80
90
68
F8
ENDCHAR
STARTCHAR 0256
ENCODING 598
SWIDTH 630 0
DWIDTH 7 0
BBX 6 10 0 -2
BITMAP
08
08
78
48
88
88
48
78
08
04
ENDCHAR
STARTCHAR 0257
ENCODING 599
SWIDTH 630 0
DWIDTH 7 0
BBX 6 8 0 0
BITMAP
04
08
78
48
88
88
48
78
ENDCHAR
STARTCHAR 0258
ENCODING 600
SWIDTH 540 0
DWIDTH 6 0
BBX 6 6 0 0
BITMAP
70
48
88
74
08
78
ENDCHAR
STARTCHAR 0259
ENCODING 601
SWIDTH 540 0
DWIDTH 6 0
BBX 6 6 0 0
BITMAP
70
48
08
FC
88
78
ENDCHAR
STARTCHAR 025A
ENCODING 602
SWIDTH 810 0
DWIDTH 9 0
BBX 8 6 0 0
BITMAP
76
4A
09
FC
88
78
ENDCHAR
STARTCHAR 025B
ENCODING 603
SWIDTH 450 0
DWIDTH 5 0
BBX 5 6 0 0
BITMAP
70
48
40
60
88
78
ENDCHAR
STARTCHAR 025C
ENCODING 604
SWIDTH 450 0
DWIDTH 5 0
BBX 5 6 0 0
BITMAP
70
88
18
38
88
78
ENDCHAR
STARTCHAR 025D
ENCODING 605
SWIDTH 720 0
DWIDTH 8 0
BBX 8 6 0 0
BITMAP
7C
8C
1B
38
88
78
ENDCHAR
STARTCHAR 025E
ENCODING 606
SWIDTH 540 0
DWIDTH 6 0
BBX 5 6 0 0
BITMAP
70
48
88
98
C8
78
ENDCHAR
STARTCHAR 025F
ENCODING 607
SWIDTH 270 0
DWIDTH 3 0
BBX 1 8 1 -2
BITMAP
80
80
80
80
80
80
80
80
ENDCHAR
STARTCHAR 0260
ENCODING 608
SWIDTH 540 0
DWIDTH 6 0
BBX 6 9 0 -2
BITMAP
04
78
48
88
88
48
78
08
78
ENDCHAR
STARTCHAR 0261
ENCODING 609
SWIDTH 540 0
DWIDTH 6 0
BBX 6 8 0 -2
BITMAP
74
48
88
88
48
78
08
78
ENDCHAR
STARTCHAR 0262
ENCODING 610
SWIDTH 540 0
DWIDTH 6 0
BBX 6 6 0 0
BITMAP
38
44
80
9C
44
7C
ENDCHAR
STARTCHAR 0263
ENCODING 611
SWIDTH 450 0
DWIDTH 5 0
BBX 5 9 0 -3
BITMAP
88
48
50
30
20
30
50
50
20
ENDCHAR
STARTCHAR 0264
ENCODING 612
SWIDTH 540 0
DWIDTH 6 0
BBX 6 6 0 0
BITMAP
78
B4
30
48
48
30
ENDCHAR
STARTCHAR 0265
ENCODING 613
SWIDTH 540 0
DWIDTH 6 0
BBX 4 8 1 -2
BITMAP
90
90
90
90
90
F0
10
10
ENDCHAR
STARTCHAR 0266
ENCODING 614
SWIDTH 540 0
DWIDTH 6 0
BBX 4 8 1 0
BITMAP
C0
80
F0
90
90
90
90
90
ENDCHAR
STARTCHAR 0267
ENCODING 615
SWIDTH 540 0
DWIDTH 6 0
BBX 4 10 1 -2
BITMAP
C0
80
F0
90
90
90
90
90
10
10
ENDCHAR
STARTCHAR 0268
ENCODING 616
SWIDTH 270 0
DWIDTH 3 0
BBX 1 8 1 0
BITMAP
80
00
80
80
80
80
80
80
ENDCHAR
STARTCHAR 0269
ENCODING 617
SWIDTH 270 0
DWIDTH 3 0
BBX 2 6 1 0
BITMAP
80
80
80
80
80
C0
ENDCHAR
STARTCHAR 026A
ENCODING 618
SWIDTH 270 0
DWIDTH 3 0
BBX 3 6 0 0
BITMAP
E0
40
40
40
40
E0
ENDCHAR
STARTCHAR 026B
ENCODING 619
SWIDTH 450 0
DWIDTH 5 0
BBX 5 8 0 0
BITMAP
20
20
20
68
B8
20
20
20
ENDCHAR
STARTCHAR 026C
ENCODING 620
SWIDTH 450 0
DWIDTH 5 0
BBX 4 8 0 0
BITMAP
20
20
60
A0
F0
20
20
20
ENDCHAR
STARTCHAR 026D
ENCODING 621
SWIDTH 270 0
DWIDTH 3 0
BBX 1 10 1 -2
BITMAP
80
80
80
80
80
80
80
80
80
80
ENDCHAR
STARTCHAR 026E
ENCODING 622
SWIDTH 630 0
DWIDTH 7 0
BBX 5 10 1 -2
BITMAP
80
80
F8
98
90
B8
88
88
48
30
ENDCHAR
STARTCHAR 026F
ENCODING 623
SWIDTH 810 0
DWIDTH 9 0
BBX 7 6 1 0
BITMAP
92
92
92
92
92
FE
ENDCHAR
STARTCHAR 0270
ENCODING 624
SWIDTH 810 0
DWIDTH 9 0
BBX 7 8 1 -2
BITMAP
92
92
92
92
92
FE
02
02
ENDCHAR
STARTCHAR 0271
ENCODING 625
SWIDTH 810 0
DWIDTH 9 0
BBX 7 8 1 -2
BITMAP
EE
92
92
92
92
92
02
02
ENDCHAR
STARTCHAR 0272
ENCODING 626
SWIDTH 540 0
DWIDTH 6 0
BBX 5 8 1 -2
BITMAP
B0
C8
88
88
88
88
80
80
ENDCHAR
STARTCHAR 0273
ENCODING 627
SWIDTH 540 0
DWIDTH 6 0
BBX 5 8 1 -2
BITMAP
F0
90
90
90
90
90
10
18
ENDCHAR
STARTCHAR 0274
ENCODING 628
SWIDTH 540 0
DWIDTH 6 0
BBX 4 6 1 0
BITMAP
90
D0
D0
B0
B0
90
ENDCHAR
STARTCHAR 0275
ENCODING 629
SWIDTH 540 0
DWIDTH 6 0
BBX 6 6 0 0
BITMAP
70
48
84
FC
48
78
ENDCHAR
STARTCHAR 0276
ENCODING 630
SWIDTH 720 0
DWIDTH 8 0
BBX 8 6 0 0
BITMAP
7F
48
88
8E
48
7F
ENDCHAR
STARTCHAR 0277
ENCODING 631
SWIDTH 720 0
DWIDTH 8 0
BBX 8 6 0 0
BITMAP
3C
42
91
91
91
7E
ENDCHAR
STARTCHAR 0278
ENCODING 632
SWIDTH 720 0
DWIDTH 8 0
BBX 7 10 0 -2
BITMAP
10
10
3C
52
92
92
52
7C
10
10
ENDCHAR
STARTCHAR 0279
ENCODING 633
SWIDTH 360 0
DWIDTH 4 0
BBX 3 6 0 0
BITMAP
20
20
20
20
20
E0
ENDCHAR
STARTCHAR 027A
ENCODING 634
SWIDTH 360 0
DWIDTH 4 0
BBX 3 8 0 0
BITMAP
20
20
20
20
20
20
20
E0
ENDCHAR
STARTCHAR 027B
ENCODING 635
SWIDTH 360 0
DWIDTH 4 0
BBX 3 8 0 -2
BITMAP
20
20
20
20
20
E0
20
20
ENDCHAR
STARTCHAR 027C
ENCODING 636
SWIDTH 360 0
DWIDTH 4 0
BBX 2 8 1 -2
BITMAP
C0
80
80
80
80
80
80
80
ENDCHAR
STARTCHAR 027D
ENCODING 637
SWIDTH 360 0
DWIDTH 4 0
BBX 2 8 1 -2
BITMAP
C0
80
80
80
80
80
80
80
ENDCHAR
STARTCHAR 027E
ENCODING 638
SWIDTH 360 0
DWIDTH 4 0
BBX 3 6 1 0
BITMAP
E0
A0
80
80
80
80
ENDCHAR
STARTCHAR 027F
ENCODING 639
SWIDTH 360 0
DWIDTH 4 0
BBX 3 8 0 -2
BITMAP
E0
A0
20
20
20
20
20
20
ENDCHAR
STARTCHAR 0280
ENCODING 640
SWIDTH 540 0
DWIDTH 6 0
BBX 4 6 1 0
BITMAP
E0
90
90
E0
A0
90
ENDCHAR
STARTCHAR 0281
ENCODING 641
SWIDTH 540 0
DWIDTH 6 0
BBX 5 6 1 0
BITMAP
98
B0
A0
F0
90
F0
ENDCHAR
STARTCHAR 0282
ENCODING 642
SWIDTH 540 0
DWIDTH 6 0
BBX 5 8 0 -2
BITMAP
70
48
40
38
88
F8
80
C0
ENDCHAR
STARTCHAR 0283
ENCODING 643
SWIDTH 270 0
DWIDTH 3 0
BBX 2 10 1 -2
BITMAP
C0
80
80
80
80
80
80
80
80
80
ENDCHAR
STARTCHAR 0284
ENCODING 644
SWIDTH 270 0
DWIDTH 3 0
BBX 2 10 1 -2
BITMAP
C0
80
80
80
80
C0
80
80
80
80
ENDCHAR
STARTCHAR 0285
ENCODING 645
SWIDTH 270 0
DWIDTH 3 0
BBX 3 8 0 -2
BITMAP
C0
40
40
40
40
40
40
60
ENDCHAR
STARTCHAR 0286
ENCODING 646
SWIDTH 450 0
DWIDTH 5 0
BBX 5 10 0 -2
BITMAP
18
10
10
10
10
10
10
10
F0
F0
ENDCHAR
STARTCHAR 0287
ENCODING 647
SWIDTH 270 0
DWIDTH 3 0
BBX 2 8 0 0
BITMAP
C0
40
40
40
40
40
40
40
ENDCHAR
STARTCHAR 0288
ENCODING 648
SWIDTH 270 0
DWIDTH 3 0
BBX 3 9 0 -2
BITMAP
40
E0
40
40
40
40
40
40
40
ENDCHAR
STARTCHAR 0289
ENCODING 649
SWIDTH 630 0
DWIDTH 7 0
BBX 5 6 1 0
BITMAP
88
88
88
F8
98
E8
ENDCHAR
STARTCHAR 028A
ENCODING 650
SWIDTH 630 0
DWIDTH 7 0
BBX 6 6 0 0
BITMAP
EC
44
84
84
44
78
ENDCHAR
STARTCHAR 028B
ENCODING 651
SWIDTH 540 0
DWIDTH 6 0
BBX 4 6 1 0
BITMAP
80
90
90
90
90
E0
ENDCHAR
STARTCHAR 028C
ENCODING 652
SWIDTH 450 0
DWIDTH 5 0
BBX 5 6 0 0
BITMAP
20
30
50
50
48
88
ENDCHAR
STARTCHAR 028D
ENCODING 653
SWIDTH 720 0
DWIDTH 8 0
BBX 8 6 0 0
BITMAP
24
66
6A
5A
5A
99
ENDCHAR
STARTCHAR 028E
ENCODING 654
SWIDTH 450 0
DWIDTH 5 0
BBX 5 8 0 0
BITMAP
18
20
20
30
50
50
48
88
ENDCHAR
STARTCHAR 028F
ENCODING 655
SWIDTH 540 0
DWIDTH 6 0
BBX 5 6 0 0
BITMAP
88
48
30
20
20
20
ENDCHAR
STARTCHAR 0290
ENCODING 656
SWIDTH 540 0
DWIDTH 6 0
BBX 5 8 0 -2
BITMAP
78
10
10
20
40
F8
08
08
ENDCHAR
STARTCHAR 0291
ENCODING 657
SWIDTH 540 0
DWIDTH 6 0
BBX 5 7 0 -1
BITMAP
78
10
10
20
58
F8
20
ENDCHAR
STARTCHAR 0292
ENCODING 658
SWIDTH 540 0
DWIDTH 6 0
BBX 5 8 0 -2
BITMAP
78
18
10
38
08
88
48
30
ENDCHAR
STARTCHAR 0293
ENCODING 659
SWIDTH 540 0
DWIDTH 6 0
BBX 5 8 0 -2
BITMAP
F8
10
20
30
08
78
58
20
ENDCHAR
STARTCHAR 0294
ENCODING 660
SWIDTH 450 0
DWIDTH 5 0
BBX 5 8 0 0
BITMAP
70
48
88
18
20
20
20
20
ENDCHAR
STARTCHAR 0295
ENCODING 661
SWIDTH 450 0
DWIDTH 5 0
BBX 5 8 0 0
BITMAP
70
C8
88
40
20
20
20
20
ENDCHAR
STARTCHAR 0296
ENCODING 662
SWIDTH 450 0
DWIDTH 5 0
BBX 5 8 0 0
BITMAP
20
20
20
20
60
88
88
70
ENDCHAR
STARTCHAR 0297
ENCODING 663
SWIDTH 720 0
DWIDTH 8 0
BBX 7 10 0 -2
BITMAP
3C
42
40
80
80
80
80
42
42
3C
ENDCHAR
STARTCHAR 0298
ENCODING 664
SWIDTH 810 0
DWIDTH 9 0
BBX 8 8 0 0
BITMAP
3E
42
41
89
89
41
43
3E
ENDCHAR
STARTCHAR 0299
ENCODING 665
SWIDTH 450 0
DWIDTH 5 0
BBX 4 6 1 0
BITMAP
E0
90
B0
F0
90
F0
ENDCHAR
STARTCHAR 029A
ENCODING 666
SWIDTH 540 0
DWIDTH 6 0
BBX 5 6 0 0
BITMAP
70
48
48
68
88
78
ENDCHAR
STARTCHAR 029B
ENCODING 667
SWIDTH 630 0
DWIDTH 7 0
BBX 7 6 0 0
BITMAP
3E
44
80
9C
44
7C
ENDCHAR
STARTCHAR 029C
ENCODING 668
SWIDTH 540 0
DWIDTH 6 0
BBX 4 6 1 0
BITMAP
90
90
90
F0
90
90
ENDCHAR
STARTCHAR 029D
ENCODING 669
SWIDTH 450 0
DWIDTH 5 0
BBX 4 10 0 -2
BITMAP
10
00
10
10
10
10
10
10
F0
F0
ENDCHAR
STARTCHAR 029E
ENCODING 670
SWIDTH 540 0
DWIDTH 6 0
BBX 5 8 0 -2
BITMAP
88
48
28
38
28
48
08
08
ENDCHAR
STARTCHAR 029F
ENCODING 671
SWIDTH 360 0
DWIDTH 4 0
BBX 3 6 1 0
BITMAP
80
80
80
80
80
E0
ENDCHAR
STARTCHAR 02A0
ENCODING 672
SWIDTH 630 0
DWIDTH 7 0
BBX 6 9 0 -2
BITMAP
04
78
48
88
88
C8
78
08
08
ENDCHAR
STARTCHAR 02A1
ENCODING 673
SWIDTH 450 0
DWIDTH 5 0
BBX 5 8 0 0
BITMAP
70
48
88
18
20
30
20
20
ENDCHAR
STARTCHAR 02A2
ENCODING 674
SWIDTH 450 0
DWIDTH 5 0
BBX 5 8 0 0
BITMAP
70
C8
88
40
20
30
20
20
ENDCHAR
STARTCHAR 02A3
ENCODING 675
SWIDTH 900 0
DWIDTH 10 0
BBX 10 8 0 0
BITMAP
0800
0800
77C0
4880
8980
8900
4A00
77C0
ENDCHAR
STARTCHAR 02A4
ENCODING 676
SWIDTH 990 0
DWIDTH 11 0
BBX 10 10 0 -2
BITMAP
0800
0800
77C0
4880
8980
89C0
4840
7840
0640
0180
ENDCHAR
STARTCHAR 02A5
ENCODING 677
SWIDTH 900 0
DWIDTH 10 0
BBX 10 9 0 -1
BITMAP
0800
0800
77C0
4880
8980
8900
4AC0
77C0
0100
ENDCHAR
STARTCHAR 02A6
ENCODING 678
SWIDTH 720 0
DWIDTH 8 0
BBX 7 7 0 0
BITMAP
40
EE
52
58
46
42
7E
ENDCHAR
STARTCHAR 02A7
ENCODING 679
SWIDTH 540 0
DWIDTH 6 0
BBX 6 10 0 -2
BITMAP
0C
48
F8
48
48
48
48
78
08
18
ENDCHAR
STARTCHAR 02A8
ENCODING 680
SWIDTH 720 0
DWIDTH 8 0
BBX 8 8 0 -1
BITMAP
40
EE
59
50
50
53
7F
04
ENDCHAR
STARTCHAR 02A9
ENCODING 681
SWIDTH 810 0
DWIDTH 9 0
BBX 8 10 0 -2
BITMAP
60
40
F7
49
51
51
51
51
01
03
ENDCHAR
STARTCHAR 02AA
ENCODING 682
SWIDTH 630 0
DWIDTH 7 0
BBX 6 8 1 0
BITMAP
80
80
B8
C4
E0
9C
84
FC
ENDCHAR
STARTCHAR 02AB
ENCODING 683
SWIDTH 540 0
DWIDTH 6 0
BBX 5 8 1 0
BITMAP
80
80
F8
98
90
A0
C0
F8
ENDCHAR
STARTCHAR 02AC
ENCODING 684
SWIDTH 540 0
DWIDTH 6 0
BBX 4 7 1 1
BITMAP
F0
F0
90
00
F0
F0
90
ENDCHAR
STARTCHAR 02AD
ENCODING 685
SWIDTH 450 0
DWIDTH 5 0
BBX 5 6 0 1
BITMAP
F8
88
00
00
F8
88
ENDCHAR
STARTCHAR 02AE
ENCODING 686
SWIDTH 540 0
DWIDTH 6 0
BBX 6 10 0 -2
BITMAP
C0
40
44
44
44
44
44
7C
04
04
ENDCHAR
STARTCHAR 02AF
ENCODING 687
SWIDTH 630 0
DWIDTH 7 0
BBX 6 10 0 -2
BITMAP
C0
40
44
44
44
44
44
7C
04
04
ENDCHAR
STARTCHAR 02B0
ENCODING 688
SWIDTH 360 0
DWIDTH 4 0
BBX 3 5 0 4
BITMAP
80
E0
A0
A0
A0
ENDCHAR
STARTCHAR 02B1
ENCODING 689
SWIDTH 360 0
DWIDTH 4 0
BBX 3 5 0 4
BITMAP
80
E0
A0
A0
A0
ENDCHAR
STARTCHAR 02B2
ENCODING 690
SWIDTH 180 0
DWIDTH 2 0
BBX 1 5 0 4
BITMAP
80
80
80
80
80
ENDCHAR
STARTCHAR 02B3
ENCODING 691
SWIDTH 270 0
DWIDTH 3 0
BBX 2 4 0 4
BITMAP
C0
80
80
80
ENDCHAR
STARTCHAR 02B4
ENCODING 692
SWIDTH 270 0
DWIDTH 3 0
BBX 2 4 0 4
BITMAP
40
40
40
80
ENDCHAR
STARTCHAR 02B5
ENCODING 693
SWIDTH 270 0
DWIDTH 3 0
BBX 2 5 0 3
BITMAP
40
40
40
C0
40
ENDCHAR
STARTCHAR 02B6
ENCODING 694
SWIDTH 360 0
DWIDTH 4 0
BBX 3 4 0 4
BITMAP
A0
C0
A0
E0
ENDCHAR
STARTCHAR 02B7
ENCODING 695
SWIDTH 540 0
DWIDTH 6 0
BBX 5 4 0 4
BITMAP
A0
A8
58
50
ENDCHAR
STARTCHAR 02B8
ENCODING 696
SWIDTH 360 0
DWIDTH 4 0
BBX 3 6 0 2
BITMAP
80
A0
A0
40
40
80
ENDCHAR
STARTCHAR 02B9
ENCODING 697
SWIDTH 270 0
DWIDTH 3 0
BBX 1 3 1 5
BITMAP
80
80
80
ENDCHAR
STARTCHAR 02BA
ENCODING 698
SWIDTH 450 0
DWIDTH 5 0
BBX 4 3 1 5
BITMAP
90
A0
A0
ENDCHAR
STARTCHAR 02BB
ENCODING 699
SWIDTH 270 0
DWIDTH 3 0
BBX 1 2 1 6
BITMAP
80
80
ENDCHAR
STARTCHAR 02BC
ENCODING 700
SWIDTH 270 0
DWIDTH 3 0
BBX 1 3 1 5
BITMAP
80
80
80
ENDCHAR
STARTCHAR 02BD
ENCODING 701
SWIDTH 270 0
DWIDTH 3 0
BBX 1 3 1 5
BITMAP
80
80
80
ENDCHAR
STARTCHAR 02BE
ENCODING 702
SWIDTH 270 0
DWIDTH 3 0
BBX 1 1 1 8
BITMAP
80
ENDCHAR
STARTCHAR 02BF
ENCODING 703
SWIDTH 270 0
DWIDTH 3 0
BBX 1 1 1 7
BITMAP
80
ENDCHAR
STARTCHAR 02C0
ENCODING 704
SWIDTH 360 0
DWIDTH 4 0
BBX 3 4 0 4
BITMAP
E0
20
40
40
ENDCHAR
STARTCHAR 02C1
ENCODING 705
SWIDTH 360 0
DWIDTH 4 0
BBX 3 3 0 4
BITMAP
E0
80
40
ENDCHAR
STARTCHAR 02C2
ENCODING 706
SWIDTH 360 0
DWIDTH 4 0
BBX 2 2 1 6
BITMAP
80
40
ENDCHAR
STARTCHAR 02C3
ENCODING 707
SWIDTH 360 0
DWIDTH 4 0
BBX 2 2 1 6
BITMAP
80
C0
ENDCHAR
STARTCHAR 02C4
ENCODING 708
SWIDTH 360 0
DWIDTH 4 0
BBX 2 2 1 6
BITMAP
80
40
ENDCHAR
STARTCHAR 02C5
ENCODING 709
SWIDTH 360 0
DWIDTH 4 0
BBX 2 1 1 8
BITMAP
C0
ENDCHAR
STARTCHAR 02C6
ENCODING 710
SWIDTH 360 0
DWIDTH 4 0
BBX 3 2 0 6
BITMAP
60
80
ENDCHAR
STARTCHAR 02C7
ENCODING 711
SWIDTH 360 0
DWIDTH 4 0
BBX 3 2 0 6
BITMAP
A0
40
ENDCHAR
STARTCHAR 02C8
ENCODING 712
SWIDTH 270 0
DWIDTH 3 0
BBX 1 3 1 6
BITMAP
80
80
80
ENDCHAR
STARTCHAR 02C9
ENCODING 713
SWIDTH 360 0
DWIDTH 4 0
BBX 3 1 0 7
BITMAP
E0
ENDCHAR
STARTCHAR 02CA
ENCODING 714
SWIDTH 360 0
DWIDTH 4 0
BBX 1 1 2 7
BITMAP
80
ENDCHAR
STARTCHAR 02CB
ENCODING 715
SWIDTH 360 0
DWIDTH 4 0
BBX 1 1 1 7
BITMAP
80
ENDCHAR
STARTCHAR 02CC
ENCODING 716
SWIDTH 270 0
DWIDTH 3 0
BBX 1 2 1 -3
BITMAP
80
80
ENDCHAR
STARTCHAR 02CD
ENCODING 717
SWIDTH 360 0
DWIDTH 4 0
BBX 3 1 0 -1
BITMAP
E0
ENDCHAR
STARTCHAR 02CE
ENCODING 718
SWIDTH 360 0
DWIDTH 4 0
BBX 2 1 1 -2
BITMAP
C0
ENDCHAR
STARTCHAR 02CF
ENCODING 719
SWIDTH 360 0
DWIDTH 4 0
BBX 1 1 1 -2
BITMAP
80
ENDCHAR
STARTCHAR 02D0
ENCODING 720
SWIDTH 360 0
DWIDTH 4 0
BBX 1 6 1 0
BITMAP
80
00
00
00
00
80
ENDCHAR
STARTCHAR 02D1
ENCODING 721
SWIDTH 360 0
DWIDTH 4 0
BBX 1 1 1 5
BITMAP
80
ENDCHAR
STARTCHAR 02D2
ENCODING 722
SWIDTH 270 0
DWIDTH 3 0
BBX 1 1 1 1
BITMAP
80
ENDCHAR
STARTCHAR 02D3
ENCODING 723
SWIDTH 270 0
DWIDTH 3 0
BBX 1 1 1 1
BITMAP
80
ENDCHAR
STARTCHAR 02D4
ENCODING 724
SWIDTH 360 0
DWIDTH 4 0
BBX 2 2 1 2
BITMAP
80
C0
ENDCHAR
STARTCHAR 02D5
ENCODING 725
SWIDTH 360 0
DWIDTH 4 0
BBX 2 2 1 2
BITMAP
C0
80
ENDCHAR
STARTCHAR 02D6
ENCODING 726
SWIDTH 360 0
DWIDTH 4 0
BBX 2 4 1 1
BITMAP
80
80
C0
80
ENDCHAR
STARTCHAR 02D7
ENCODING 727
SWIDTH 360 0
DWIDTH 4 0
BBX 2 1 1 2
BITMAP
C0
ENDCHAR
STARTCHAR 02D8
ENCODING 728
SWIDTH 360 0
DWIDTH 4 0
BBX 3 1 0 7
BITMAP
E0
ENDCHAR
STARTCHAR 02D9
ENCODING 729
SWIDTH 360 0
DWIDTH 4 0
BBX 1 1 1 7
BITMAP
80
ENDCHAR
STARTCHAR 02DA
ENCODING 730
SWIDTH 360 0
DWIDTH 4 0
BBX 2 2 1 6
BITMAP
C0
C0
ENDCHAR
STARTCHAR 02DB
ENCODING 731
SWIDTH 360 0
DWIDTH 4 0
BBX 1 2 1 -2
BITMAP
80
80
ENDCHAR
STARTCHAR 02DC
ENCODING 732
SWIDTH 360 0
DWIDTH 4 0
BBX 3 1 0 7
BITMAP
E0
ENDCHAR
STARTCHAR 02DD
ENCODING 733
SWIDTH 360 0
DWIDTH 4 0
BBX 3 2 0 6
BITMAP
A0
80
ENDCHAR
STARTCHAR 02DE
ENCODING 734
SWIDTH 360 0
DWIDTH 4 0
BBX 4 3 0 3
BITMAP
C0
40
30
ENDCHAR
STARTCHAR 02DF
ENCODING 735
SWIDTH 360 0
DWIDTH 4 0
BBX 3 2 0 6
BITMAP
60
80
ENDCHAR
STARTCHAR 02E0
ENCODING 736
SWIDTH 360 0
DWIDTH 4 0
BBX 3 6 0 2
BITMAP
80
A0
40
40
60
40
ENDCHAR
STARTCHAR 02E1
ENCODING 737
SWIDTH 180 0
DWIDTH 2 0
BBX 1 5 0 4
BITMAP
80
80
80
80
80
ENDCHAR
STARTCHAR 02E2
ENCODING 738
SWIDTH 360 0
DWIDTH 4 0
BBX 3 4 0 4
BITMAP
60
80
60
E0
ENDCHAR
STARTCHAR 02E3
ENCODING 739
SWIDTH 360 0
DWIDTH 4 0
BBX 3 4 0 4
BITMAP
80
60
40
A0
ENDCHAR
STARTCHAR 02E4
ENCODING 740
SWIDTH 360 0
DWIDTH 4 0
BBX 3 5 0 4
BITMAP
E0
80
40
40
40
ENDCHAR
STARTCHAR 02E5
ENCODING 741
SWIDTH 540 0
DWIDTH 6 0
BBX 5 9 0 0
BITMAP
F8
08
08
08
08
08
08
08
08
ENDCHAR
STARTCHAR 02E6
ENCODING 742
SWIDTH 540 0
DWIDTH 6 0
BBX 5 9 0 0
BITMAP
08
08
F8
08
08
08
08
08
08
ENDCHAR
STARTCHAR 02E7
ENCODING 743
SWIDTH 540 0
DWIDTH 6 0
BBX 5 9 0 0
BITMAP
08
08
08
08
F8
08
08
08
08
ENDCHAR
STARTCHAR 02E8
ENCODING 744
SWIDTH 540 0
DWIDTH 6 0
BBX 5 9 0 0
BITMAP
08
08
08
08
08
08
F8
08
08
ENDCHAR
STARTCHAR 02E9
ENCODING 745
SWIDTH 540 0
DWIDTH 6 0
BBX 5 9 0 0
BITMAP
08
08
08
08
08
08
08
08
F8
ENDCHAR
STARTCHAR 02EA
ENCODING 746
SWIDTH 540 0
DWIDTH 6 0
BBX 4 7 1 0
BITMAP
80
80
80
80
80
80
F0
ENDCHAR
STARTCHAR 02EB
ENCODING 747
SWIDTH 540 0
DWIDTH 6 0
BBX 4 7 1 0
BITMAP
80
80
80
F0
80
80
80
ENDCHAR
STARTCHAR 02EC
ENCODING 748
SWIDTH 360 0
DWIDTH 4 0
BBX 2 2 1 -3
BITMAP
C0
80
ENDCHAR
STARTCHAR 02ED
ENCODING 749
SWIDTH 360 0
DWIDTH 4 0
BBX 3 2 0 7
BITMAP
E0
E0
ENDCHAR
STARTCHAR 02EE
ENCODING 750
SWIDTH 360 0
DWIDTH 4 0
BBX 3 2 1 5
BITMAP
A0
A0
ENDCHAR
STARTCHAR 02EF
ENCODING 751
SWIDTH 360 0
DWIDTH 4 0
BBX 2 1 1 -1
BITMAP
C0
ENDCHAR
STARTCHAR 02F0
ENCODING 752
SWIDTH 360 0
DWIDTH 4 0
BBX 2 2 1 -3
BITMAP
80
40
ENDCHAR
STARTCHAR 02F1
ENCODING 753
SWIDTH 360 0
DWIDTH 4 0
BBX 2 2 1 -2
BITMAP
80
40
ENDCHAR
STARTCHAR 02F2
ENCODING 754
SWIDTH 360 0
DWIDTH 4 0
BBX 2 2 1 -2
BITMAP
80
C0
ENDCHAR
STARTCHAR 02F3
ENCODING 755
SWIDTH 360 0
DWIDTH 4 0
BBX 2 2 1 -3
BITMAP
C0
C0
ENDCHAR
STARTCHAR 02F4
ENCODING 756
SWIDTH 270 0
DWIDTH 3 0
BBX 1 1 1 5
BITMAP
80
ENDCHAR
STARTCHAR 02F5
ENCODING 757
SWIDTH 360 0
DWIDTH 4 0
BBX 4 2 0 4
BITMAP
E0
50
ENDCHAR
STARTCHAR 02F6
ENCODING 758
SWIDTH 360 0
DWIDTH 4 0
BBX 3 2 0 4
BITMAP
A0
80
ENDCHAR
STARTCHAR 02F7
ENCODING 759
SWIDTH 360 0
DWIDTH 4 0
BBX 3 1 0 -1
BITMAP
E0
ENDCHAR
STARTCHAR 02F8
ENCODING 760
SWIDTH 270 0
DWIDTH 3 0
BBX 1 6 1 1
BITMAP
80
00
00
00
00
80
ENDCHAR
STARTCHAR 02F9
ENCODING 761
SWIDTH 180 0
DWIDTH 2 0
BBX 2 2 0 6
BITMAP
C0
80
ENDCHAR
STARTCHAR 02FA
ENCODING 762
SWIDTH 180 0
DWIDTH 2 0
BBX 2 2 0 6
BITMAP
C0
40
ENDCHAR
STARTCHAR 02FB
ENCODING 763
SWIDTH 180 0
DWIDTH 2 0
BBX 2 2 0 -1
BITMAP
80
C0
ENDCHAR
STARTCHAR 02FC
ENCODING 764
SWIDTH 180 0
DWIDTH 2 0
BBX 2 2 0 -1
BITMAP
40
C0
ENDCHAR
STARTCHAR 02FD
ENCODING 765
SWIDTH 360 0
DWIDTH 4 0
BBX 4 2 0 -2
BITMAP
90
F0
ENDCHAR
STARTCHAR 02FE
ENCODING 766
SWIDTH 360 0
DWIDTH 4 0
BBX 4 2 0 -2
BITMAP
80
F0
ENDCHAR
STARTCHAR 02FF
ENCODING 767
SWIDTH 360 0
DWIDTH 4 0
BBX 3 1 0 -1
BITMAP
E0
ENDCHAR
STARTCHAR 0300
ENCODING 768
SWIDTH 0 0
DWIDTH 0 0
BBX 1 1 -3 7
BITMAP
80
ENDCHAR
STARTCHAR 0301
ENCODING 769
SWIDTH 0 0
DWIDTH 0 0
BBX 1 1 -2 7
BITMAP
80
ENDCHAR
STARTCHAR 0302
ENCODING 770
SWIDTH 0 0
DWIDTH 0 0
BBX 3 2 -3 6
BITMAP
C0
20
ENDCHAR
STARTCHAR 0303
ENCODING 771
SWIDTH 0 0
DWIDTH 0 0
BBX 3 1 -3 7
BITMAP
E0
ENDCHAR
STARTCHAR 0304
ENCODING 772
SWIDTH 0 0
DWIDTH 0 0
BBX 3 1 -3 7
BITMAP
E0
ENDCHAR
STARTCHAR 0305
ENCODING 773
SWIDTH 0 0
DWIDTH 0 0
BBX 6 1 -5 7
BITMAP
FC
ENDCHAR
STARTCHAR 0306
ENCODING 774
SWIDTH 0 0
DWIDTH 0 0
BBX 3 1 -3 7
BITMAP
E0
ENDCHAR
STARTCHAR 0307
ENCODING 775
SWIDTH 0 0
DWIDTH 0 0
BBX 1 1 -2 7
BITMAP
80
ENDCHAR
STARTCHAR 0308
ENCODING 776
SWIDTH 0 0
DWIDTH 0 0
BBX 3 1 -3 7
BITMAP
A0
ENDCHAR
STARTCHAR 0309
ENCODING 777
SWIDTH 0 0
DWIDTH 0 0
BBX 2 2 -3 6
BITMAP
40
80
ENDCHAR
STARTCHAR 030A
ENCODING 778
SWIDTH 0 0
DWIDTH 0 0
BBX 2 2 -3 6
BITMAP
C0
C0
ENDCHAR
STARTCHAR 030B
ENCODING 779
SWIDTH 0 0
DWIDTH 0 0
BBX 3 2 -3 6
BITMAP
A0
40
ENDCHAR
STARTCHAR 030C
ENCODING 780
SWIDTH 0 0
DWIDTH 0 0
BBX 2 2 -3 6
BITMAP
C0
40
ENDCHAR
STARTCHAR 030D
ENCODING 781
SWIDTH 0 0
DWIDTH 0 0
BBX 1 3 -2 6
BITMAP
80
80
80
ENDCHAR
STARTCHAR 030E
ENCODING 782
SWIDTH 0 0
DWIDTH 0 0
BBX 2 3 -3 6
BITMAP
80
C0
80
ENDCHAR
STARTCHAR 030F
ENCODING 783
SWIDTH 0 0
DWIDTH 0 0
BBX 3 2 -4 6
BITMAP
A0
60
ENDCHAR
STARTCHAR 0310
ENCODING 784
SWIDTH 0 0
DWIDTH 0 0
BBX 3 2 -3 7
BITMAP
40
E0
ENDCHAR
STARTCHAR 0311
ENCODING 785
SWIDTH 0 0
DWIDTH 0 0
BBX 3 1 -3 7
BITMAP
E0
ENDCHAR
STARTCHAR 0312
ENCODING 786
SWIDTH 0 0
DWIDTH 0 0
BBX 1 1 -2 7
BITMAP
80
ENDCHAR
STARTCHAR 0313
ENCODING 787
SWIDTH 0 0
DWIDTH 0 0
BBX 1 1 -2 6
BITMAP
80
ENDCHAR
STARTCHAR 0314
ENCODING 788
SWIDTH 0 0
DWIDTH 0 0
BBX 1 2 -2 6
BITMAP
80
80
ENDCHAR
STARTCHAR 0315
ENCODING 789
SWIDTH 0 0
DWIDTH 0 0
BBX 1 2 0 6
BITMAP
80
80
ENDCHAR
STARTCHAR 0316
ENCODING 790
SWIDTH 0 0
DWIDTH 0 0
BBX 1 1 -3 -2
BITMAP
80
ENDCHAR
STARTCHAR 0317
ENCODING 791
SWIDTH 0 0
DWIDTH 0 0
BBX 1 1 -2 -2
BITMAP
80
ENDCHAR
STARTCHAR 0318
ENCODING 792
SWIDTH 0 0
DWIDTH 0 0
BBX 2 2 -3 -3
BITMAP
C0
40
ENDCHAR
STARTCHAR 0319
ENCODING 793
SWIDTH 0 0
DWIDTH 0 0
BBX 2 2 -3 -3
BITMAP
80
C0
ENDCHAR
STARTCHAR 031A
ENCODING 794
SWIDTH 0 0
DWIDTH 0 0
BBX 3 3 -2 5
BITMAP
E0
20
20
ENDCHAR
STARTCHAR 031B
ENCODING 795
SWIDTH 0 0
DWIDTH 0 0
BBX 3 2 -2 5
BITMAP
20
E0
ENDCHAR
STARTCHAR 031C
ENCODING 796
SWIDTH 0 0
DWIDTH 0 0
BBX 1 1 -2 -1
BITMAP
80
ENDCHAR
STARTCHAR 031D
ENCODING 797
SWIDTH 0 0
DWIDTH 0 0
BBX 3 2 -3 -2
BITMAP
40
E0
ENDCHAR
STARTCHAR 031E
ENCODING 798
SWIDTH 0 0
DWIDTH 0 0
BBX 3 2 -3 -2
BITMAP
E0
40
ENDCHAR
STARTCHAR 031F
ENCODING 799
SWIDTH 0 0
DWIDTH 0 0
BBX 3 2 -3 -3
BITMAP
E0
40
ENDCHAR
STARTCHAR 0320
ENCODING 800
SWIDTH 0 0
DWIDTH 0 0
BBX 2 1 -4 -2
BITMAP
C0
ENDCHAR
STARTCHAR 0321
ENCODING 801
SWIDTH 0 0
DWIDTH 0 0
BBX 1 3 -1 -2
BITMAP
80
80
80
ENDCHAR
STARTCHAR 0322
ENCODING 802
SWIDTH 0 0
DWIDTH 0 0
BBX 1 3 -1 -2
BITMAP
80
80
80
ENDCHAR
STARTCHAR 0323
ENCODING 803
SWIDTH 0 0
DWIDTH 0 0
BBX 1 1 -3 -2
BITMAP
80
ENDCHAR
STARTCHAR 0324
ENCODING 804
SWIDTH 0 0
DWIDTH 0 0
BBX 3 1 -4 -2
BITMAP
A0
ENDCHAR
STARTCHAR 0325
ENCODING 805
SWIDTH 0 0
DWIDTH 0 0
BBX 3 3 -4 -3
BITMAP
40
A0
40
ENDCHAR
STARTCHAR 0326
ENCODING 806
SWIDTH 0 0
DWIDTH 0 0
BBX 1 1 -3 -3
BITMAP
80
ENDCHAR
STARTCHAR 0327
ENCODING 807
SWIDTH 0 0
DWIDTH 0 0
BBX 2 2 -3 -2
BITMAP
80
C0
ENDCHAR
STARTCHAR 0328
ENCODING 808
SWIDTH 0 0
DWIDTH 0 0
BBX 1 2 -3 -2
BITMAP
80
80
ENDCHAR
STARTCHAR 0329
ENCODING 809
SWIDTH 0 0
DWIDTH 0 0
BBX 1 3 -3 -3
BITMAP
80
80
80
ENDCHAR
STARTCHAR 032A
ENCODING 810
SWIDTH 0 0
DWIDTH 0 0
BBX 3 1 -3 -2
BITMAP
E0
ENDCHAR
STARTCHAR 032B
ENCODING 811
SWIDTH 0 0
DWIDTH 0 0
BBX 3 1 -3 -2
BITMAP
E0
ENDCHAR
STARTCHAR 032C
ENCODING 812
SWIDTH 0 0
DWIDTH 0 0
BBX 2 1 -3 -2
BITMAP
C0
ENDCHAR
STARTCHAR 032D
ENCODING 813
SWIDTH 0 0
DWIDTH 0 0
BBX 2 1 -3 -2
BITMAP
C0
ENDCHAR
STARTCHAR 032E
ENCODING 814
SWIDTH 0 0
DWIDTH 0 0
BBX 3 1 -3 -2
BITMAP
E0
ENDCHAR
STARTCHAR 032F
ENCODING 815
SWIDTH 0 0
DWIDTH 0 0
BBX 3 1 -3 -2
BITMAP
E0
ENDCHAR
STARTCHAR 0330
ENCODING 816
SWIDTH 0 0
DWIDTH 0 0
BBX 3 1 -4 -2
BITMAP
E0
ENDCHAR
STARTCHAR 0331
ENCODING 817
SWIDTH 0 0
DWIDTH 0 0
BBX 3 1 -4 -2
BITMAP
E0
ENDCHAR
STARTCHAR 0332
ENCODING 818
SWIDTH 0 0
DWIDTH 0 0
BBX 7 1 -7 -2
BITMAP
FE
ENDCHAR
STARTCHAR 0333
ENCODING 819
SWIDTH 0 0
DWIDTH 0 0
BBX 7 2 -7 -3
BITMAP
FE
FE
ENDCHAR
STARTCHAR 0334
ENCODING 820
SWIDTH 0 0
DWIDTH 0 0
BBX 3 1 -5 3
BITMAP
E0
ENDCHAR
STARTCHAR 0335
ENCODING 821
SWIDTH 0 0
DWIDTH 0 0
BBX 2 1 -4 2
BITMAP
C0
ENDCHAR
STARTCHAR 0336
ENCODING 822
SWIDTH 0 0
DWIDTH 0 0
BBX 7 1 -8 2
BITMAP
FE
ENDCHAR
STARTCHAR 0337
ENCODING 823
SWIDTH 0 0
DWIDTH 0 0
BBX 7 7 -7 0
BITMAP
02
04
08
10
20
40
80
ENDCHAR
STARTCHAR 0338
ENCODING 824
SWIDTH 0 0
DWIDTH 0 0
BBX 7 9 -8 -1
BITMAP
02
02
04
08
10
10
20
40
80
ENDCHAR
STARTCHAR 0339
ENCODING 825
SWIDTH 0 0
DWIDTH 0 0
BBX 1 1 -3 -3
BITMAP
80
ENDCHAR
STARTCHAR 033A
ENCODING 826
SWIDTH 0 0
DWIDTH 0 0
BBX 3 1 -4 -2
BITMAP
E0
ENDCHAR
STARTCHAR 033B
ENCODING 827
SWIDTH 0 0
DWIDTH 0 0
BBX 3 3 -4 -3
BITMAP
E0
A0
E0
ENDCHAR
STARTCHAR 033C
ENCODING 828
SWIDTH 0 0
DWIDTH 0 0
BBX 3 1 -4 -2
BITMAP
E0
ENDCHAR
STARTCHAR 033D
ENCODING 829
SWIDTH 0 0
DWIDTH 0 0
BBX 2 1 -3 6
BITMAP
C0
ENDCHAR
STARTCHAR 033E
ENCODING 830
SWIDTH 0 0
DWIDTH 0 0
BBX 1 2 -2 6
BITMAP
80
80
ENDCHAR
STARTCHAR 033F
ENCODING 831
SWIDTH 0 0
DWIDTH 0 0
BBX 7 2 -7 7
BITMAP
FE
FE
ENDCHAR
STARTCHAR 0340
ENCODING 832
SWIDTH 0 0
DWIDTH 0 0
BBX 1 1 -3 7
BITMAP
80
ENDCHAR
STARTCHAR 0341
ENCODING 833
SWIDTH 0 0
DWIDTH 0 0
BBX 1 1 -2 7
BITMAP
80
ENDCHAR
STARTCHAR 0342
ENCODING 834
SWIDTH 0 0
DWIDTH 0 0
BBX 4 1 -4 7
BITMAP
F0
ENDCHAR
STARTCHAR 0343
ENCODING 835
SWIDTH 0 0
DWIDTH 0 0
BBX 1 1 -2 6
BITMAP
80
ENDCHAR
STARTCHAR 0344
ENCODING 836
SWIDTH 0 0
DWIDTH 0 0
BBX 4 2 -4 7
BITMAP
20
D0
ENDCHAR
STARTCHAR 0345
ENCODING 837
SWIDTH 0 0
DWIDTH 0 0
BBX 2 2 -4 -2
BITMAP
80
40
ENDCHAR
STARTCHAR 0346
ENCODING 838
SWIDTH 0 0
DWIDTH 0 0
BBX 3 1 -3 7
BITMAP
E0
ENDCHAR
STARTCHAR 0347
ENCODING 839
SWIDTH 0 0
DWIDTH 0 0
BBX 3 2 -4 -3
BITMAP
E0
E0
ENDCHAR
STARTCHAR 0348
ENCODING 840
SWIDTH 0 0
DWIDTH 0 0
BBX 3 3 -4 -3
BITMAP
A0
A0
A0
ENDCHAR
STARTCHAR 0349
ENCODING 841
SWIDTH 0 0
DWIDTH 0 0
BBX 2 2 -3 -3
BITMAP
C0
40
ENDCHAR
STARTCHAR 034A
ENCODING 842
SWIDTH 0 0
DWIDTH 0 0
BBX 3 2 -4 7
BITMAP
20
E0
ENDCHAR
STARTCHAR 034B
ENCODING 843
SWIDTH 0 0
DWIDTH 0 0
BBX 3 4 -4 6
BITMAP
40
A0
40
80
ENDCHAR
STARTCHAR 034C
ENCODING 844
SWIDTH 0 0
DWIDTH 0 0
BBX 3 3 -4 6
BITMAP
E0
00
E0
ENDCHAR
STARTCHAR 034D
ENCODING 845
SWIDTH 0 0
DWIDTH 0 0
BBX 4 2 -5 -3
BITMAP
10
F0
ENDCHAR
STARTCHAR 034E
ENCODING 846
SWIDTH 0 0
DWIDTH 0 0
BBX 1 1 -4 -3
BITMAP
80
ENDCHAR
STARTCHAR 034F
ENCODING 847
SWIDTH 0 0
DWIDTH 0 0
BBX 0 0 0 0
BITMAP
ENDCHAR
STARTCHAR 0350
ENCODING 848
SWIDTH 0 0
DWIDTH 0 0
BBX 2 2 -3 6
BITMAP
80
C0
ENDCHAR
STARTCHAR 0351
ENCODING 849
SWIDTH 0 0
DWIDTH 0 0
BBX 1 1 -2 8
BITMAP
80
ENDCHAR
STARTCHAR 0352
ENCODING 850
SWIDTH 0 0
DWIDTH 0 0
BBX 3 3 -4 6
BITMAP
60
80
40
ENDCHAR
STARTCHAR 0353
ENCODING 851
SWIDTH 0 0
DWIDTH 0 0
BBX 3 2 -5 -3
BITMAP
40
A0
ENDCHAR
STARTCHAR 0354
ENCODING 852
SWIDTH 0 0
DWIDTH 0 0
BBX 2 2 -4 -2
BITMAP
C0
40
ENDCHAR
STARTCHAR 0355
ENCODING 853
SWIDTH 0 0
DWIDTH 0 0
BBX 2 2 -4 -2
BITMAP
80
40
ENDCHAR
STARTCHAR 0356
ENCODING 854
SWIDTH 0 0
DWIDTH 0 0
BBX 3 2 -4 -2
BITMAP
20
80
ENDCHAR
STARTCHAR 0357
ENCODING 855
SWIDTH 0 0
DWIDTH 0 0
BBX 1 1 -2 8
BITMAP
80
ENDCHAR
STARTCHAR 0358
ENCODING 856
SWIDTH 0 0
DWIDTH 0 0
BBX 2 1 -4 7
BITMAP
C0
ENDCHAR
STARTCHAR 0359
ENCODING 857
SWIDTH 0 0
DWIDTH 0 0
BBX 2 1 -4 -2
BITMAP
C0
ENDCHAR
STARTCHAR 035A
ENCODING 858
SWIDTH 0 0
DWIDTH 0 0
BBX 5 2 -6 -3
BITMAP
F8
50
ENDCHAR
STARTCHAR 035B
ENCODING 859
SWIDTH 0 0
DWIDTH 0 0
BBX 3 3 -4 6
BITMAP
40
E0
40
ENDCHAR
STARTCHAR 035C
ENCODING 860
SWIDTH 0 0
DWIDTH 0 0
BBX 8 2 -4 -2
BITMAP
81
7E
ENDCHAR
STARTCHAR 035D
ENCODING 861
SWIDTH 0 0
DWIDTH 0 0
BBX 8 2 -4 7
BITMAP
81
7E
ENDCHAR
STARTCHAR 035E
ENCODING 862
SWIDTH 0 0
DWIDTH 0 0
BBX 6 1 -3 7
BITMAP
FC
ENDCHAR
STARTCHAR 035F
ENCODING 863
SWIDTH 0 0
DWIDTH 0 0
BBX 6 1 -3 -1
BITMAP
FC
ENDCHAR
STARTCHAR 0360
ENCODING 864
SWIDTH 0 0
DWIDTH 0 0
BBX 7 2 -3 6
BITMAP
E2
1C
ENDCHAR
STARTCHAR 0361
ENCODING 865
SWIDTH 0 0
DWIDTH 0 0
BBX 8 2 -4 7
BITMAP
7E
81
ENDCHAR
STARTCHAR 0362
ENCODING 866
SWIDTH 0 0
DWIDTH 0 0
BBX 6 3 -3 -3
BITMAP
08
FC
08
ENDCHAR
STARTCHAR 0363
ENCODING 867
SWIDTH 0 0
DWIDTH 0 0
BBX 2 2 -4 6
BITMAP
40
C0
ENDCHAR
STARTCHAR 0364
ENCODING 868
SWIDTH 0 0
DWIDTH 0 0
BBX 2 2 -4 6
BITMAP
C0
C0
ENDCHAR
STARTCHAR 0365
ENCODING 869
SWIDTH 0 0
DWIDTH 0 0
BBX 0 0 -3 6
BITMAP
ENDCHAR
STARTCHAR 0366
ENCODING 870
SWIDTH 0 0
DWIDTH 0 0
BBX 2 2 -4 6
BITMAP
C0
C0
ENDCHAR
STARTCHAR 0367
ENCODING 871
SWIDTH 0 0
DWIDTH 0 0
BBX 2 2 -4 6
BITMAP
80
C0
ENDCHAR
STARTCHAR 0368
ENCODING 872
SWIDTH 0 0
DWIDTH 0 0
BBX 1 2 -4 6
BITMAP
80
80
ENDCHAR
STARTCHAR 0369
ENCODING 873
SWIDTH 0 0
DWIDTH 0 0
BBX 2 2 -4 7
BITMAP
C0
C0
ENDCHAR
STARTCHAR 036A
ENCODING 874
SWIDTH 0 0
DWIDTH 0 0
BBX 2 3 -4 6
BITMAP
80
C0
80
ENDCHAR
STARTCHAR 036B
ENCODING 875
SWIDTH 0 0
DWIDTH 0 0
BBX 2 1 -4 6
BITMAP
C0
ENDCHAR
STARTCHAR 036C
ENCODING 876
SWIDTH 0 0
DWIDTH 0 0
BBX 0 0 -3 6
BITMAP
ENDCHAR
STARTCHAR 036D
ENCODING 877
SWIDTH 0 0
DWIDTH 0 0
BBX 1 1 -3 7
BITMAP
80
ENDCHAR
STARTCHAR 036E
ENCODING 878
SWIDTH 0 0
DWIDTH 0 0
BBX 2 2 -4 6
BITMAP
C0
80
ENDCHAR
STARTCHAR 036F
ENCODING 879
SWIDTH 0 0
DWIDTH 0 0
BBX 2 1 -4 7
BITMAP
C0
ENDCHAR
STARTCHAR 0374
ENCODING 884
SWIDTH 270 0
DWIDTH 3 0
BBX 1 3 1 5
BITMAP
80
80
80
ENDCHAR
STARTCHAR 0375
ENCODING 885
SWIDTH 180 0
DWIDTH 2 0
BBX 2 2 0 -2
BITMAP
40
80
ENDCHAR
STARTCHAR 037A
ENCODING 890
SWIDTH 360 0
DWIDTH 4 0
BBX 1 2 1 -2
BITMAP
80
80
ENDCHAR
STARTCHAR 037B
ENCODING 891
SWIDTH 450 0
DWIDTH 5 0
BBX 4 6 0 0
BITMAP
E0
10
10
10
10
F0
ENDCHAR
STARTCHAR 037C
ENCODING 892
SWIDTH 450 0
DWIDTH 5 0
BBX 4 6 0 0
BITMAP
30
40
90
90
40
70
ENDCHAR
STARTCHAR 037D
ENCODING 893
SWIDTH 450 0
DWIDTH 5 0
BBX 4 6 0 0
BITMAP
E0
10
50
50
10
F0
ENDCHAR
STARTCHAR 037E
ENCODING 894
SWIDTH 270 0
DWIDTH 3 0
BBX 1 7 1 -2
BITMAP
80
00
00
00
00
80
80
ENDCHAR
STARTCHAR 0384
ENCODING 900
SWIDTH 360 0
DWIDTH 4 0
BBX 1 1 2 7
BITMAP
80
ENDCHAR
STARTCHAR 0385
ENCODING 901
SWIDTH 360 0
DWIDTH 4 0
BBX 4 2 0 7
BITMAP
20
D0
ENDCHAR
STARTCHAR 0386
ENCODING 902
SWIDTH 630 0
DWIDTH 7 0
BBX 7 8 0 0
BITMAP
58
38
28
2C
44
7C
46
82
ENDCHAR
STARTCHAR 0387
ENCODING 903
SWIDTH 270 0
DWIDTH 3 0
BBX 1 1 1 5
BITMAP
80
ENDCHAR
STARTCHAR 0388
ENCODING 904
SWIDTH 810 0
DWIDTH 9 0
BBX 7 8 1 0
BITMAP
BE
20
20
3E
20
20
20
3E
ENDCHAR
STARTCHAR 0389
ENCODING 905
SWIDTH 900 0
DWIDTH 10 0
BBX 8 8 1 0
BITMAP
A1
21
21
3F
21
21
21
21
ENDCHAR
STARTCHAR 038A
ENCODING 906
SWIDTH 450 0
DWIDTH 5 0
BBX 3 8 1 0
BITMAP
A0
20
20
20
20
20
20
20
ENDCHAR
STARTCHAR 038C
ENCODING 908
SWIDTH 900 0
DWIDTH 10 0
BBX 9 8 0 0
BITMAP
5E00
A100
2080
4080
4080
2080
2100
1F00
ENDCHAR
STARTCHAR 038E
ENCODING 910
SWIDTH 900 0
DWIDTH 10 0
BBX 8 8 1 0
BITMAP
A1
11
12
0C
0C
04
04
04
ENDCHAR
STARTCHAR 038F
ENCODING 911
SWIDTH 810 0
DWIDTH 9 0
BBX 7 8 1 0
BITMAP
BC
46
82
82
82
82
44
EE
ENDCHAR
STARTCHAR 0390
ENCODING 912
SWIDTH 270 0
DWIDTH 3 0
BBX 3 8 0 0
BITMAP
E0
00
40
40
40
40
40
60
ENDCHAR
STARTCHAR 0391
ENCODING 913
SWIDTH 630 0
DWIDTH 7 0
BBX 7 8 0 0
BITMAP
18
38
28
2C
44
7C
46
82
ENDCHAR
STARTCHAR 0392
ENCODING 914
SWIDTH 630 0
DWIDTH 7 0
BBX 6 8 1 0
BITMAP
F8
88
88
F8
88
84
84
F8
ENDCHAR
STARTCHAR 0393
ENCODING 915
SWIDTH 630 0
DWIDTH 7 0
BBX 5 8 1 0
BITMAP
F8
80
80
80
80
80
80
80
ENDCHAR
STARTCHAR 0394
ENCODING 916
SWIDTH 720 0
DWIDTH 8 0
BBX 7 8 0 0
BITMAP
18
28
28
24
44
46
42
FE
ENDCHAR
STARTCHAR 0395
ENCODING 917
SWIDTH 630 0
DWIDTH 7 0
BBX 6 8 1 0
BITMAP
F8
80
80
F8
80
80
80
FC
ENDCHAR
STARTCHAR 0396
ENCODING 918
SWIDTH 630 0
DWIDTH 7 0
BBX 6 8 0 0
BITMAP
7C
04
08
10
30
20
40
FC
ENDCHAR
STARTCHAR 0397
ENCODING 919
SWIDTH 720 0
DWIDTH 8 0
BBX 6 8 1 0
BITMAP
84
84
84
FC
84
84
84
84
ENDCHAR
STARTCHAR 0398
ENCODING 920
SWIDTH 810 0
DWIDTH 9 0
BBX 8 8 0 0
BITMAP
3E
42
41
81
9D
41
43
3E
ENDCHAR
STARTCHAR 0399
ENCODING 921
SWIDTH 270 0
DWIDTH 3 0
BBX 1 8 1 0
BITMAP
80
80
80
80
80
80
80
80
ENDCHAR
STARTCHAR 039A
ENCODING 922
SWIDTH 630 0
DWIDTH 7 0
BBX 6 8 1 0
BITMAP
8C
98
B0
E0
D0
98
88
84
ENDCHAR
STARTCHAR 039B
ENCODING 923
SWIDTH 630 0
DWIDTH 7 0
BBX 7 8 0 0
BITMAP
18
38
28
2C
44
44
42
82
ENDCHAR
STARTCHAR 039C
ENCODING 924
SWIDTH 810 0
DWIDTH 9 0
BBX 7 8 1 0
BITMAP
82
C6
C6
C6
AA
AA
9A
92
ENDCHAR
STARTCHAR 039D
ENCODING 925
SWIDTH 720 0
DWIDTH 8 0
BBX 6 8 1 0
BITMAP
84
C4
E4
A4
94
9C
8C
84
ENDCHAR
STARTCHAR 039E
ENCODING 926
SWIDTH 630 0
DWIDTH 7 0
BBX 6 8 0 0
BITMAP
7C
00
00
7C
00
00
00
FC
ENDCHAR
STARTCHAR 039F
ENCODING 927
SWIDTH 810 0
DWIDTH 9 0
BBX 8 8 0 0
BITMAP
3E
42
41
81
81
41
43
3E
ENDCHAR
STARTCHAR 03A0
ENCODING 928
SWIDTH 720 0
DWIDTH 8 0
BBX 6 8 1 0
BITMAP
FC
84
84
84
84
84
84
84
ENDCHAR
STARTCHAR 03A1
ENCODING 929
SWIDTH 630 0
DWIDTH 7 0
BBX 6 8 1 0
BITMAP
F8
8C
84
88
F0
80
80
80
ENDCHAR
STARTCHAR 03A3
ENCODING 931
SWIDTH 630 0
DWIDTH 7 0
BBX 7 8 0 0
BITMAP
7C
60
20
10
10
20
40
FE
ENDCHAR
STARTCHAR 03A4
ENCODING 932
SWIDTH 630 0
DWIDTH 7 0
BBX 7 8 0 0
BITMAP
FE
10
10
10
10
10
10
10
ENDCHAR
STARTCHAR 03A5
ENCODING 933
SWIDTH 630 0
DWIDTH 7 0
BBX 6 8 1 0
BITMAP
84
88
48
70
20
20
20
20
ENDCHAR
STARTCHAR 03A6
ENCODING 934
SWIDTH 720 0
DWIDTH 8 0
BBX 8 8 0 0
BITMAP
08
3C
4A
89
C9
4A
3C
08
ENDCHAR
STARTCHAR 03A7
ENCODING 935
SWIDTH 630 0
DWIDTH 7 0
BBX 6 8 1 0
BITMAP
8C
C8
50
20
30
50
88
8C
ENDCHAR
STARTCHAR 03A8
ENCODING 936
SWIDTH 720 0
DWIDTH 8 0
BBX 7 8 1 0
BITMAP
92
92
92
92
92
FC
10
10
ENDCHAR
STARTCHAR 03A9
ENCODING 937
SWIDTH 720 0
DWIDTH 8 0
BBX 8 8 0 0
BITMAP
3C
42
41
81
81
42
42
E7
ENDCHAR
STARTCHAR 03AA
ENCODING 938
SWIDTH 270 0
DWIDTH 3 0
BBX 3 10 0 0
BITMAP
A0
00
40
40
40
40
40
40
40
40
ENDCHAR
STARTCHAR 03AB
ENCODING 939
SWIDTH 630 0
DWIDTH 7 0
BBX 6 10 1 0
BITMAP
50
00
84
88
48
70
20
20
20
20
ENDCHAR
STARTCHAR 03AC
ENCODING 940
SWIDTH 540 0
DWIDTH 6 0
BBX 6 8 0 0
BITMAP
08
10
34
4C
8C
8C
8C
7C
ENDCHAR
STARTCHAR 03AD
ENCODING 941
SWIDTH 450 0
DWIDTH 5 0
BBX 5 8 0 0
BITMAP
10
00
70
88
80
60
88
78
ENDCHAR
STARTCHAR 03AE
ENCODING 942
SWIDTH 540 0
DWIDTH 6 0
BBX 5 10 0 -2
BITMAP
18
00
B8
48
48
48
48
48
08
08
ENDCHAR
STARTCHAR 03AF
ENCODING 943
SWIDTH 270 0
DWIDTH 3 0
BBX 2 8 1 0
BITMAP
40
80
80
80
80
80
80
C0
ENDCHAR
STARTCHAR 03B0
ENCODING 944
SWIDTH 540 0
DWIDTH 6 0
BBX 4 8 1 0
BITMAP
F0
00
80
90
90
90
90
F0
ENDCHAR
STARTCHAR 03B1
ENCODING 945
SWIDTH 540 0
DWIDTH 6 0
BBX 6 6 0 0
BITMAP
34
4C
8C
8C
8C
7C
ENDCHAR
STARTCHAR 03B2
ENCODING 946
SWIDTH 540 0
DWIDTH 6 0
BBX 5 10 1 -2
BITMAP
E0
90
90
E0
90
88
88
F0
80
80
ENDCHAR
STARTCHAR 03B3
ENCODING 947
SWIDTH 540 0
DWIDTH 6 0
BBX 5 8 0 -2
BITMAP
80
48
48
30
30
10
10
10
ENDCHAR
STARTCHAR 03B4
ENCODING 948
SWIDTH 540 0
DWIDTH 6 0
BBX 6 8 0 0
BITMAP
78
20
10
68
84
84
CC
78
ENDCHAR
STARTCHAR 03B5
ENCODING 949
SWIDTH 450 0
DWIDTH 5 0
BBX 5 6 0 0
BITMAP
70
88
80
60
88
78
ENDCHAR
STARTCHAR 03B6
ENCODING 950
SWIDTH 450 0
DWIDTH 5 0
BBX 5 10 0 -2
BITMAP
F0
20
40
40
80
80
40
70
08
08
ENDCHAR
STARTCHAR 03B7
ENCODING 951
SWIDTH 540 0
DWIDTH 6 0
BBX 5 8 0 -2
BITMAP
B8
48
48
48
48
48
08
08
ENDCHAR
STARTCHAR 03B8
ENCODING 952
SWIDTH 540 0
DWIDTH 6 0
BBX 5 8 0 0
BITMAP
70
48
88
88
F8
88
48
70
ENDCHAR
STARTCHAR 03B9
ENCODING 953
SWIDTH 270 0
DWIDTH 3 0
BBX 2 6 1 0
BITMAP
80
80
80
80
80
C0
ENDCHAR
STARTCHAR 03BA
ENCODING 954
SWIDTH 540 0
DWIDTH 6 0
BBX 4 6 1 0
BITMAP
90
A0
C0
A0
A0
90
ENDCHAR
STARTCHAR 03BB
ENCODING 955
SWIDTH 540 0
DWIDTH 6 0
BBX 6 8 0 0
BITMAP
40
20
20
30
50
50
48
8C
ENDCHAR
STARTCHAR 03BC
ENCODING 956
SWIDTH 540 0
DWIDTH 6 0
BBX 4 8 1 -2
BITMAP
90
90
90
90
90
F0
80
80
ENDCHAR
STARTCHAR 03BD
ENCODING 957
SWIDTH 450 0
DWIDTH 5 0
BBX 5 6 0 0
BITMAP
88
48
50
50
30
20
ENDCHAR
STARTCHAR 03BE
ENCODING 958
SWIDTH 450 0
DWIDTH 5 0
BBX 5 10 0 -2
BITMAP
78
40
40
60
50
80
80
78
08
08
ENDCHAR
STARTCHAR 03BF
ENCODING 959
SWIDTH 540 0
DWIDTH 6 0
BBX 6 6 0 0
BITMAP
30
48
84
84
48
78
ENDCHAR
STARTCHAR 03C0
ENCODING 960
SWIDTH 630 0
DWIDTH 7 0
BBX 6 6 0 0
BITMAP
FC
44
44
44
44
44
ENDCHAR
STARTCHAR 03C1
ENCODING 961
SWIDTH 540 0
DWIDTH 6 0
BBX 5 8 1 -2
BITMAP
70
88
88
88
88
F0
80
80
ENDCHAR
STARTCHAR 03C2
ENCODING 962
SWIDTH 540 0
DWIDTH 6 0
BBX 6 8 0 -2
BITMAP
38
48
80
80
40
38
0C
08
ENDCHAR
STARTCHAR 03C3
ENCODING 963
SWIDTH 630 0
DWIDTH 7 0
BBX 6 6 0 0
BITMAP
3C
48
84
84
48
78
ENDCHAR
STARTCHAR 03C4
ENCODING 964
SWIDTH 450 0
DWIDTH 5 0
BBX 5 6 0 0
BITMAP
F8
20
20
20
20
30
ENDCHAR
STARTCHAR 03C5
ENCODING 965
SWIDTH 540 0
DWIDTH 6 0
BBX 4 6 1 0
BITMAP
80
90
90
90
90
F0
ENDCHAR
STARTCHAR 03C6
ENCODING 966
SWIDTH 720 0
DWIDTH 8 0
BBX 7 8 0 -2
BITMAP
1C
52
92
92
52
7E
10
10
ENDCHAR
STARTCHAR 03C7
ENCODING 967
SWIDTH 540 0
DWIDTH 6 0
BBX 6 8 0 -2
BITMAP
C4
48
28
30
10
38
48
4C
ENDCHAR
STARTCHAR 03C8
ENCODING 968
SWIDTH 720 0
DWIDTH 8 0
BBX 6 8 1 -2
BITMAP
A4
A4
A4
A4
A4
F8
20
20
ENDCHAR
STARTCHAR 03C9
ENCODING 969
SWIDTH 720 0
DWIDTH 8 0
BBX 8 6 0 0
BITMAP
42
42
91
91
91
7E
ENDCHAR
STARTCHAR 03CA
ENCODING 970
SWIDTH 270 0
DWIDTH 3 0
BBX 3 8 0 0
BITMAP
A0
00
40
40
40
40
40
60
ENDCHAR
STARTCHAR 03CB
ENCODING 971
SWIDTH 540 0
DWIDTH 6 0
BBX 4 8 1 0
BITMAP
F0
00
80
90
90
90
90
F0
ENDCHAR
STARTCHAR 03CC
ENCODING 972
SWIDTH 540 0
DWIDTH 6 0
BBX 6 8 0 0
BITMAP
18
00
30
48
84
84
48
78
ENDCHAR
STARTCHAR 03CD
ENCODING 973
SWIDTH 540 0
DWIDTH 6 0
BBX 4 8 1 0
BITMAP
20
00
80
90
90
90
90
F0
ENDCHAR
STARTCHAR 03CE
ENCODING 974
SWIDTH 720 0
DWIDTH 8 0
BBX 8 8 0 0
BITMAP
04
08
42
42
91
91
91
7E
ENDCHAR
STARTCHAR 03D1
ENCODING 977
SWIDTH 540 0
DWIDTH 6 0
BBX 5 8 0 0
BITMAP
38
48
48
48
38
88
48
70
ENDCHAR
STARTCHAR 03D2
ENCODING 978
SWIDTH 720 0
DWIDTH 8 0
BBX 7 8 0 0
BITMAP
C6
28
30
10
10
10
10
10
ENDCHAR
STARTCHAR 03D3
ENCODING 979
SWIDTH 900 0
DWIDTH 10 0
BBX 10 8 0 0
BITMAP
71C0
8A00
0C00
0400
0400
0400
0400
0400
ENDCHAR
STARTCHAR 03D4
ENCODING 980
SWIDTH 720 0
DWIDTH 8 0
BBX 7 10 0 0
BITMAP
28
00
C6
28
30
10
10
10
10
10
ENDCHAR
STARTCHAR 03D5
ENCODING 981
SWIDTH 720 0
DWIDTH 8 0
BBX 7 10 0 -2
BITMAP
10
10
3C
52
92
92
52
7C
10
10
ENDCHAR
STARTCHAR 03D6
ENCODING 982
SWIDTH 720 0
DWIDTH 8 0
BBX 8 6 0 0
BITMAP
FF
42
91
91
91
7E
ENDCHAR
STARTCHAR 03D7
ENCODING 983
SWIDTH 540 0
DWIDTH 6 0
BBX 6 8 0 -2
BITMAP
C4
28
30
30
50
4C
04
04
ENDCHAR
STARTCHAR 03F0
ENCODING 1008
SWIDTH 540 0
DWIDTH 6 0
BBX 5 6 1 0
BITMAP
C8
50
60
60
E0
B8
ENDCHAR
STARTCHAR 03F1
ENCODING 1009
SWIDTH 540 0
DWIDTH 6 0
BBX 5 8 1 -2
BITMAP
70
88
88
88
88
F0
80
F0
ENDCHAR
STARTCHAR 03F2
ENCODING 1010
SWIDTH 450 0
DWIDTH 5 0
BBX 4 6 0 0
BITMAP
30
40
80
80
40
70
ENDCHAR
STARTCHAR 03F3
ENCODING 1011
SWIDTH 270 0
DWIDTH 3 0
BBX 2 10 0 -2
BITMAP
40
00
40
40
40
40
40
40
40
C0
ENDCHAR
STARTCHAR 03F4
ENCODING 1012
SWIDTH 810 0
DWIDTH 9 0
BBX 8 8 0 0
BITMAP
3E
42
41
81
FF
41
43
3E
ENDCHAR
STARTCHAR 03F5
ENCODING 1013
SWIDTH 270 0
DWIDTH 3 0
BBX 3 6 0 0
BITMAP
20
40
80
E0
40
60
ENDCHAR
STARTCHAR 03F6
ENCODING 1014
SWIDTH 270 0
DWIDTH 3 0
BBX 2 6 1 0
BITMAP
80
40
C0
40
40
80
ENDCHAR
STARTCHAR 03F9
ENCODING 1017
SWIDTH 630 0
DWIDTH 7 0
BBX 6 8 0 0
BITMAP
3C
40
40
80
80
40
40
3C
ENDCHAR
STARTCHAR 03FD
ENCODING 1021
SWIDTH 630 0
DWIDTH 7 0
BBX 6 8 0 0
BITMAP
F8
04
04
04
04
04
04
F8
ENDCHAR
STARTCHAR 03FE
ENCODING 1022
SWIDTH 630 0
DWIDTH 7 0
BBX 6 8 0 0
BITMAP
3C
40
40
88
88
40
40
3C
ENDCHAR
STARTCHAR 03FF
ENCODING 1023
SWIDTH 630 0
DWIDTH 7 0
BBX 6 8 0 0
BITMAP
F8
04
04
24
24
04
04
F8
ENDCHAR
STARTCHAR 0400
ENCODING 1024
SWIDTH 630 0
DWIDTH 7 0
BBX 6 10 1 0
BITMAP
20
00
F8
80
80
F8
80
80
80
FC
ENDCHAR
STARTCHAR 0401
ENCODING 1025
SWIDTH 630 0
DWIDTH 7 0
BBX 6 10 1 0
BITMAP
50
00
F8
80
80
F8
80
80
80
FC
ENDCHAR
STARTCHAR 0402
ENCODING 1026
SWIDTH 720 0
DWIDTH 8 0
BBX 8 10 0 -2
BITMAP
FC
10
10
1E
11
11
11
11
01
06
ENDCHAR
STARTCHAR 0403
ENCODING 1027
SWIDTH 630 0
DWIDTH 7 0
BBX 5 10 1 0
BITMAP
30
00
F8
80
80
80
80
80
80
80
ENDCHAR
STARTCHAR 0404
ENCODING 1028
SWIDTH 720 0
DWIDTH 8 0
BBX 7 8 0 0
BITMAP
3C
42
40
FC
80
42
42
3C
ENDCHAR
STARTCHAR 0405
ENCODING 1029
SWIDTH 630 0
DWIDTH 7 0
BBX 6 8 1 0
BITMAP
78
88
80
E0
18
84
84
F8
ENDCHAR
STARTCHAR 0406
ENCODING 1030
SWIDTH 270 0
DWIDTH 3 0
BBX 1 8 1 0
BITMAP
80
80
80
80
80
80
80
80
ENDCHAR
STARTCHAR 0407
ENCODING 1031
SWIDTH 270 0
DWIDTH 3 0
BBX 3 10 0 0
BITMAP
A0
00
40
40
40
40
40
40
40
40
ENDCHAR
STARTCHAR 0408
ENCODING 1032
SWIDTH 540 0
DWIDTH 6 0
BBX 5 8 0 0
BITMAP
08
08
08
08
08
88
88
70
ENDCHAR
STARTCHAR 0409
ENCODING 1033
SWIDTH 990 0
DWIDTH 11 0
BBX 11 8 0 0
BITMAP
3C00
2400
2400
2780
6440
4420
4460
C7C0
ENDCHAR
STARTCHAR 040A
ENCODING 1034
SWIDTH 990 0
DWIDTH 11 0
BBX 10 8 1 0
BITMAP
8800
8800
8800
FF00
8880
8840
88C0
8F80
ENDCHAR
STARTCHAR 040B
ENCODING 1035
SWIDTH 720 0
DWIDTH 8 0
BBX 8 8 0 0
BITMAP
FC
10
10
1E
11
11
11
11
ENDCHAR
STARTCHAR 040C
ENCODING 1036
SWIDTH 630 0
DWIDTH 7 0
BBX 5 10 1 0
BITMAP
10
20
88
90
A0
C0
C0
A0
90
88
ENDCHAR
STARTCHAR 040D
ENCODING 1037
SWIDTH 720 0
DWIDTH 8 0
BBX 6 10 1 0
BITMAP
20
00
84
8C
9C
94
A4
A4
C4
84
ENDCHAR
STARTCHAR 040E
ENCODING 1038
SWIDTH 630 0
DWIDTH 7 0
BBX 6 10 0 0
BITMAP
28
10
C4
44
68
28
30
10
20
20
ENDCHAR
STARTCHAR 040F
ENCODING 1039
SWIDTH 720 0
DWIDTH 8 0
BBX 6 9 1 -1
BITMAP
84
84
84
84
84
84
84
FC
20
ENDCHAR
STARTCHAR 0410
ENCODING 1040
SWIDTH 630 0
DWIDTH 7 0
BBX 7 8 0 0
BITMAP
18
38
28
2C
44
7C
46
82
ENDCHAR
STARTCHAR 0411
ENCODING 1041
SWIDTH 630 0
DWIDTH 7 0
BBX 6 8 1 0
BITMAP
F8
80
80
F8
8C
84
84
F8
ENDCHAR
STARTCHAR 0412
ENCODING 1042
SWIDTH 630 0
DWIDTH 7 0
BBX 6 8 1 0
BITMAP
F8
88
88
F8
88
84
84
F8
ENDCHAR
STARTCHAR 0413
ENCODING 1043
SWIDTH 630 0
DWIDTH 7 0
BBX 5 8 1 0
BITMAP
F8
80
80
80
80
80
80
80
ENDCHAR
STARTCHAR 0414
ENCODING 1044
SWIDTH 810 0
DWIDTH 9 0
BBX 9 9 0 -1
BITMAP
1F00
1100
1100
1100
1100
2100
2100
FF80
8080
ENDCHAR
STARTCHAR 0415
ENCODING 1045
SWIDTH 630 0
DWIDTH 7 0
BBX 6 8 1 0
BITMAP
F8
80
80
F8
80
80
80
FC
ENDCHAR
STARTCHAR 0416
ENCODING 1046
SWIDTH 900 0
DWIDTH 10 0
BBX 8 8 1 0
BITMAP
89
4A
2C
3C
2C
6E
CB
89
ENDCHAR
STARTCHAR 0417
ENCODING 1047
SWIDTH 630 0
DWIDTH 7 0
BBX 7 8 0 0
BITMAP
7C
44
04
0C
1C
82
42
7C
ENDCHAR
STARTCHAR 0418
ENCODING 1048
SWIDTH 720 0
DWIDTH 8 0
BBX 6 8 1 0
BITMAP
84
8C
9C
94
A4
A4
C4
84
ENDCHAR
STARTCHAR 0419
ENCODING 1049
SWIDTH 720 0
DWIDTH 8 0
BBX 6 10 1 0
BITMAP
48
30
84
8C
9C
94
A4
A4
C4
84
ENDCHAR
STARTCHAR 041A
ENCODING 1050
SWIDTH 630 0
DWIDTH 7 0
BBX 5 8 1 0
BITMAP
88
90
A0
C0
C0
A0
90
88
ENDCHAR
STARTCHAR 041B
ENCODING 1051
SWIDTH 630 0
DWIDTH 7 0
BBX 7 8 0 0
BITMAP
3E
26
26
26
66
46
46
C6
ENDCHAR
STARTCHAR 041C
ENCODING 1052
SWIDTH 810 0
DWIDTH 9 0
BBX 7 8 1 0
BITMAP
82
C6
C6
C6
AA
AA
9A
92
ENDCHAR
STARTCHAR 041D
ENCODING 1053
SWIDTH 720 0
DWIDTH 8 0
BBX 6 8 1 0
BITMAP
84
84
84
FC
84
84
84
84
ENDCHAR
STARTCHAR 041E
ENCODING 1054
SWIDTH 810 0
DWIDTH 9 0
BBX 8 8 0 0
BITMAP
3E
42
41
81
81
41
43
3E
ENDCHAR
STARTCHAR 041F
ENCODING 1055
SWIDTH 720 0
DWIDTH 8 0
BBX 6 8 1 0
BITMAP
FC
84
84
84
84
84
84
84
ENDCHAR
STARTCHAR 0420
ENCODING 1056
SWIDTH 630 0
DWIDTH 7 0
BBX 6 8 1 0
BITMAP
F8
8C
84
88
F0
80
80
80
ENDCHAR
STARTCHAR 0421
ENCODING 1057
SWIDTH 720 0
DWIDTH 8 0
BBX 7 8 0 0
BITMAP
3C
42
40
80
80
42
42
3C
ENDCHAR
STARTCHAR 0422
ENCODING 1058
SWIDTH 630 0
DWIDTH 7 0
BBX 7 8 0 0
BITMAP
FE
10
10
10
10
10
10
10
ENDCHAR
STARTCHAR 0423
ENCODING 1059
SWIDTH 630 0
DWIDTH 7 0
BBX 6 8 0 0
BITMAP
C4
44
68
28
30
10
20
20
ENDCHAR
STARTCHAR 0424
ENCODING 1060
SWIDTH 810 0
DWIDTH 9 0
BBX 9 8 0 0
BITMAP
0800
3F00
4980
C880
C880
4980
3F00
0800
ENDCHAR
STARTCHAR 0425
ENCODING 1061
SWIDTH 630 0
DWIDTH 7 0
BBX 6 8 1 0
BITMAP
8C
C8
50
20
30
50
88
8C
ENDCHAR
STARTCHAR 0426
ENCODING 1062
SWIDTH 720 0
DWIDTH 8 0
BBX 7 9 1 -1
BITMAP
84
84
84
84
84
84
84
FE
02
ENDCHAR
STARTCHAR 0427
ENCODING 1063
SWIDTH 630 0
DWIDTH 7 0
BBX 5 8 1 0
BITMAP
88
88
88
88
F8
08
08
08
ENDCHAR
STARTCHAR 0428
ENCODING 1064
SWIDTH 810 0
DWIDTH 9 0
BBX 7 8 1 0
BITMAP
92
92
92
92
92
92
92
FE
ENDCHAR
STARTCHAR 0429
ENCODING 1065
SWIDTH 810 0
DWIDTH 9 0
BBX 8 9 1 -1
BITMAP
92
92
92
92
92
92
92
FF
01
ENDCHAR
STARTCHAR 042A
ENCODING 1066
SWIDTH 810 0
DWIDTH 9 0
BBX 9 8 0 0
BITMAP
F000
1000
1000
1F00
1180
1080
1080
1F00
ENDCHAR
STARTCHAR 042B
ENCODING 1067
SWIDTH 900 0
DWIDTH 10 0
BBX 8 8 1 0
BITMAP
81
81
81
F9
85
85
85
F9
ENDCHAR
STARTCHAR 042C
ENCODING 1068
SWIDTH 630 0
DWIDTH 7 0
BBX 6 8 1 0
BITMAP
80
80
80
F8
84
84
84
F8
ENDCHAR
STARTCHAR 042D
ENCODING 1069
SWIDTH 720 0
DWIDTH 8 0
BBX 7 8 0 0
BITMAP
3C
42
02
3E
02
C2
42
7C
ENDCHAR
STARTCHAR 042E
ENCODING 1070
SWIDTH 990 0
DWIDTH 11 0
BBX 9 8 1 0
BITMAP
8F00
9080
A080
E080
A080
A080
9080
8F00
ENDCHAR
STARTCHAR 042F
ENCODING 1071
SWIDTH 720 0
DWIDTH 8 0
BBX 6 8 1 0
BITMAP
FC
84
84
84
7C
64
C4
84
ENDCHAR
STARTCHAR 0430
ENCODING 1072
SWIDTH 540 0
DWIDTH 6 0
BBX 6 6 0 0
BITMAP
78
48
08
78
88
7C
ENDCHAR
STARTCHAR 0431
ENCODING 1073
SWIDTH 540 0
DWIDTH 6 0
BBX 6 9 0 0
BITMAP
08
38
40
B0
C8
84
84
48
78
ENDCHAR
STARTCHAR 0432
ENCODING 1074
SWIDTH 450 0
DWIDTH 5 0
BBX 4 6 1 0
BITMAP
E0
90
B0
F0
90
F0
ENDCHAR
STARTCHAR 0433
ENCODING 1075
SWIDTH 360 0
DWIDTH 4 0
BBX 3 6 1 0
BITMAP
E0
80
80
80
80
80
ENDCHAR
STARTCHAR 0434
ENCODING 1076
SWIDTH 540 0
DWIDTH 6 0
BBX 6 7 0 -1
BITMAP
38
28
28
28
48
FC
84
ENDCHAR
STARTCHAR 0435
ENCODING 1077
SWIDTH 540 0
DWIDTH 6 0
BBX 5 6 0 0
BITMAP
30
48
88
F0
48
78
ENDCHAR
STARTCHAR 0436
ENCODING 1078
SWIDTH 720 0
DWIDTH 8 0
BBX 7 6 1 0
BITMAP
92
54
38
38
54
92
ENDCHAR
STARTCHAR 0437
ENCODING 1079
SWIDTH 450 0
DWIDTH 5 0
BBX 5 6 0 0
BITMAP
70
88
18
38
88
78
ENDCHAR
STARTCHAR 0438
ENCODING 1080
SWIDTH 540 0
DWIDTH 6 0
BBX 4 6 1 0
BITMAP
90
B0
B0
D0
D0
90
ENDCHAR
STARTCHAR 0439
ENCODING 1081
SWIDTH 540 0
DWIDTH 6 0
BBX 4 8 1 0
BITMAP
90
60
90
B0
B0
D0
D0
90
ENDCHAR
STARTCHAR 043A
ENCODING 1082
SWIDTH 450 0
DWIDTH 5 0
BBX 4 6 1 0
BITMAP
90
A0
C0
C0
A0
90
ENDCHAR
STARTCHAR 043B
ENCODING 1083
SWIDTH 450 0
DWIDTH 5 0
BBX 5 6 0 0
BITMAP
78
48
48
48
48
88
ENDCHAR
STARTCHAR 043C
ENCODING 1084
SWIDTH 630 0
DWIDTH 7 0
BBX 5 6 1 0
BITMAP
88
98
D8
E8
A8
A8
ENDCHAR
STARTCHAR 043D
ENCODING 1085
SWIDTH 540 0
DWIDTH 6 0
BBX 4 6 1 0
BITMAP
90
90
90
F0
90
90
ENDCHAR
STARTCHAR 043E
ENCODING 1086
SWIDTH 540 0
DWIDTH 6 0
BBX 6 6 0 0
BITMAP
70
48
84
84
48
78
ENDCHAR
STARTCHAR 043F
ENCODING 1087
SWIDTH 540 0
DWIDTH 6 0
BBX 4 6 1 0
BITMAP
F0
90
90
90
90
90
ENDCHAR
STARTCHAR 0440
ENCODING 1088
SWIDTH 540 0
DWIDTH 6 0
BBX 5 8 1 -2
BITMAP
F0
90
88
88
88
F0
80
80
ENDCHAR
STARTCHAR 0441
ENCODING 1089
SWIDTH 540 0
DWIDTH 6 0
BBX 5 6 0 0
BITMAP
70
48
80
80
48
78
ENDCHAR
STARTCHAR 0442
ENCODING 1090
SWIDTH 450 0
DWIDTH 5 0
BBX 4 6 0 0
BITMAP
F0
20
20
20
20
20
ENDCHAR
STARTCHAR 0443
ENCODING 1091
SWIDTH 450 0
DWIDTH 5 0
BBX 5 8 0 -2
BITMAP
88
48
50
50
50
20
20
C0
ENDCHAR
STARTCHAR 0444
ENCODING 1092
SWIDTH 810 0
DWIDTH 9 0
BBX 9 9 0 -2
BITMAP
0800
7B00
4C80
8880
8880
8880
7F00
0800
0800
ENDCHAR
STARTCHAR 0445
ENCODING 1093
SWIDTH 450 0
DWIDTH 5 0
BBX 5 6 0 0
BITMAP
88
50
30
20
50
88
ENDCHAR
STARTCHAR 0446
ENCODING 1094
SWIDTH 540 0
DWIDTH 6 0
BBX 5 7 1 -1
BITMAP
90
90
90
90
90
F8
08
ENDCHAR
STARTCHAR 0447
ENCODING 1095
SWIDTH 450 0
DWIDTH 5 0
BBX 4 6 1 0
BITMAP
10
90
90
F0
10
10
ENDCHAR
STARTCHAR 0448
ENCODING 1096
SWIDTH 630 0
DWIDTH 7 0
BBX 6 6 1 0
BITMAP
A4
A4
A4
A4
A4
FC
ENDCHAR
STARTCHAR 0449
ENCODING 1097
SWIDTH 720 0
DWIDTH 8 0
BBX 6 7 1 -1
BITMAP
A4
A4
A4
A4
A4
FC
04
ENDCHAR
STARTCHAR 044A
ENCODING 1098
SWIDTH 630 0
DWIDTH 7 0
BBX 7 6 0 0
BITMAP
E0
20
3C
22
22
3C
ENDCHAR
STARTCHAR 044B
ENCODING 1099
SWIDTH 630 0
DWIDTH 7 0
BBX 6 6 1 0
BITMAP
84
84
E4
94
94
F4
ENDCHAR
STARTCHAR 044C
ENCODING 1100
SWIDTH 540 0
DWIDTH 6 0
BBX 4 6 1 0
BITMAP
80
80
E0
90
90
F0
ENDCHAR
STARTCHAR 044D
ENCODING 1101
SWIDTH 540 0
DWIDTH 6 0
BBX 5 6 0 0
BITMAP
70
48
08
38
88
70
ENDCHAR
STARTCHAR 044E
ENCODING 1102
SWIDTH 720 0
DWIDTH 8 0
BBX 7 6 1 0
BITMAP
9C
A6
A2
E2
A2
BC
ENDCHAR
STARTCHAR 044F
ENCODING 1103
SWIDTH 540 0
DWIDTH 6 0
BBX 4 6 1 0
BITMAP
F0
90
90
70
D0
90
ENDCHAR
STARTCHAR 0450
ENCODING 1104
SWIDTH 540 0
DWIDTH 6 0
BBX 5 8 0 0
BITMAP
20
00
30
48
88
F0
48
78
ENDCHAR
STARTCHAR 0451
ENCODING 1105
SWIDTH 540 0
DWIDTH 6 0
BBX 5 8 0 0
BITMAP
28
00
30
48
88
F0
48
78
ENDCHAR
STARTCHAR 0452
ENCODING 1106
SWIDTH 540 0
DWIDTH 6 0
BBX 5 10 1 -2
BITMAP
80
C0
B0
C8
88
88
88
88
10
20
ENDCHAR
STARTCHAR 0453
ENCODING 1107
SWIDTH 360 0
DWIDTH 4 0
BBX 3 8 1 0
BITMAP
40
00
E0
80
80
80
80
80
ENDCHAR
STARTCHAR 0454
ENCODING 1108
SWIDTH 540 0
DWIDTH 6 0
BBX 5 6 0 0
BITMAP
70
48
80
E0
48
78
ENDCHAR
STARTCHAR 0455
ENCODING 1109
SWIDTH 540 0
DWIDTH 6 0
BBX 5 6 0 0
BITMAP
70
48
40
38
88
78
ENDCHAR
STARTCHAR 0456
ENCODING 1110
SWIDTH 180 0
DWIDTH 2 0
BBX 1 8 1 0
BITMAP
80
00
80
80
80
80
80
80
ENDCHAR
STARTCHAR 0457
ENCODING 1111
SWIDTH 270 0
DWIDTH 3 0
BBX 3 8 0 0
BITMAP
A0
00
40
40
40
40
40
40
ENDCHAR
STARTCHAR 0458
ENCODING 1112
SWIDTH 270 0
DWIDTH 3 0
BBX 2 10 0 -2
BITMAP
40
00
40
40
40
40
40
40
40
C0
ENDCHAR
STARTCHAR 0459
ENCODING 1113
SWIDTH 810 0
DWIDTH 9 0
BBX 8 6 0 0
BITMAP
78
48
48
4F
49
8F
ENDCHAR
STARTCHAR 045A
ENCODING 1114
SWIDTH 810 0
DWIDTH 9 0
BBX 8 6 1 0
BITMAP
90
90
90
FF
91
9E
ENDCHAR
STARTCHAR 045B
ENCODING 1115
SWIDTH 540 0
DWIDTH 6 0
BBX 5 8 1 0
BITMAP
80
C0
B0
C8
88
88
88
88
ENDCHAR
STARTCHAR 045C
ENCODING 1116
SWIDTH 450 0
DWIDTH 5 0
BBX 4 8 1 0
BITMAP
20
40
90
A0
C0
C0
A0
90
ENDCHAR
STARTCHAR 045D
ENCODING 1117
SWIDTH 540 0
DWIDTH 6 0
BBX 4 8 1 0
BITMAP
40
00
90
B0
B0
D0
D0
90
ENDCHAR
STARTCHAR 045E
ENCODING 1118
SWIDTH 450 0
DWIDTH 5 0
BBX 5 10 0 -2
BITMAP
40
70
88
48
50
50
50
20
20
C0
ENDCHAR
STARTCHAR 045F
ENCODING 1119
SWIDTH 540 0
DWIDTH 6 0
BBX 4 7 1 -1
BITMAP
90
90
90
90
90
F0
40
ENDCHAR
STARTCHAR 0460
ENCODING 1120
SWIDTH 900 0
DWIDTH 10 0
BBX 10 8 0 0
BITMAP
8440
8440
8C40
4C40
4C80
5A80
7380
3300
ENDCHAR
STARTCHAR 0461
ENCODING 1121
SWIDTH 630 0
DWIDTH 7 0
BBX 7 6 0 0
BITMAP
82
92
92
5A
6A
64
ENDCHAR
STARTCHAR 0462
ENCODING 1122
SWIDTH 810 0
DWIDTH 9 0
BBX 9 8 0 0
BITMAP
1000
FC00
1000
1F00
1100
1180
1100
1F00
ENDCHAR
STARTCHAR 0463
ENCODING 1123
SWIDTH 630 0
DWIDTH 7 0
BBX 7 7 0 0
BITMAP
20
F8
20
3C
26
22
3C
ENDCHAR
STARTCHAR 0464
ENCODING 1124
SWIDTH 900 0
DWIDTH 10 0
BBX 9 8 1 0
BITMAP
8F00
9180
A000
FE00
A000
A080
9180
9F00
ENDCHAR
STARTCHAR 0465
ENCODING 1125
SWIDTH 720 0
DWIDTH 8 0
BBX 6 6 1 0
BITMAP
9C
A4
C0
F0
A4
BC
ENDCHAR
STARTCHAR 0466
ENCODING 1126
SWIDTH 810 0
DWIDTH 9 0
BBX 8 8 0 0
BITMAP
18
1C
14
24
22
7E
49
89
ENDCHAR
STARTCHAR 0467
ENCODING 1127
SWIDTH 540 0
DWIDTH 6 0
BBX 6 6 0 0
BITMAP
10
30
28
48
78
B4
ENDCHAR
STARTCHAR 0468
ENCODING 1128
SWIDTH 990 0
DWIDTH 11 0
BBX 10 8 1 0
BITMAP
8600
8600
8B00
8900
9180
FF80
B480
A440
ENDCHAR
STARTCHAR 0469
ENCODING 1129
SWIDTH 720 0
DWIDTH 8 0
BBX 7 6 1 0
BITMAP
88
98
94
F4
BC
DA
ENDCHAR
STARTCHAR 046A
ENCODING 1130
SWIDTH 900 0
DWIDTH 10 0
BBX 8 8 1 0
BITMAP
7E
24
18
18
2C
6E
CB
89
ENDCHAR
STARTCHAR 046B
ENCODING 1131
SWIDTH 720 0
DWIDTH 8 0
BBX 7 6 1 0
BITMAP
FC
68
30
38
54
92
ENDCHAR
STARTCHAR 046C
ENCODING 1132
SWIDTH 1080 0
DWIDTH 12 0
BBX 11 8 1 0
BITMAP
8F80
8D00
8700
FE00
8700
8A80
9240
A260
ENDCHAR
STARTCHAR 046D
ENCODING 1133
SWIDTH 900 0
DWIDTH 10 0
BBX 9 6 1 0
BITMAP
BF00
9200
8C00
FE00
B500
E480
ENDCHAR
STARTCHAR 046E
ENCODING 1134
SWIDTH 630 0
DWIDTH 7 0
BBX 7 11 0 -2
BITMAP
28
7C
44
04
0C
1C
02
02
7C
80
78
ENDCHAR
STARTCHAR 046F
ENCODING 1135
SWIDTH 450 0
DWIDTH 5 0
BBX 5 9 0 -2
BITMAP
40
70
88
18
38
08
78
40
70
ENDCHAR
STARTCHAR 0470
ENCODING 1136
SWIDTH 720 0
DWIDTH 8 0
BBX 7 8 1 0
BITMAP
92
92
92
92
92
FC
10
10
ENDCHAR
STARTCHAR 0471
ENCODING 1137
SWIDTH 720 0
DWIDTH 8 0
BBX 6 8 1 -2
BITMAP
A4
A4
A4
A4
A4
F8
20
20
ENDCHAR
STARTCHAR 0472
ENCODING 1138
SWIDTH 810 0
DWIDTH 9 0
BBX 8 8 0 0
BITMAP
3E
42
41
81
FF
41
43
3E
ENDCHAR
STARTCHAR 0473
ENCODING 1139
SWIDTH 540 0
DWIDTH 6 0
BBX 6 6 0 0
BITMAP
70
48
84
FC
48
78
ENDCHAR
STARTCHAR 0474
ENCODING 1140
SWIDTH 720 0
DWIDTH 8 0
BBX 8 8 0 0
BITMAP
83
44
44
44
28
28
18
10
ENDCHAR
STARTCHAR 0475
ENCODING 1141
SWIDTH 540 0
DWIDTH 6 0
BBX 6 6 0 0
BITMAP
8C
48
50
50
30
20
ENDCHAR
STARTCHAR 0476
ENCODING 1142
SWIDTH 720 0
DWIDTH 8 0
BBX 8 10 0 0
BITMAP
28
00
83
44
44
44
28
28
18
10
ENDCHAR
STARTCHAR 0477
ENCODING 1143
SWIDTH 540 0
DWIDTH 6 0
BBX 6 8 0 0
BITMAP
50
20
8C
48
50
50
30
20
ENDCHAR
STARTCHAR 0478
ENCODING 1144
SWIDTH 1170 0
DWIDTH 13 0
BBX 13 10 0 -2
BITMAP
3C00
4200
4388
8190
8190
4150
4260
3C60
0040
00C0
ENDCHAR
STARTCHAR 0479
ENCODING 1145
SWIDTH 900 0
DWIDTH 10 0
BBX 10 8 0 -2
BITMAP
7440
4A40
8A80
8A80
8980
7900
0100
0300
ENDCHAR
STARTCHAR 047A
ENCODING 1146
SWIDTH 900 0
DWIDTH 10 0
BBX 9 8 0 0
BITMAP
1E00
6100
4080
C080
8080
4080
6100
1E00
ENDCHAR
STARTCHAR 047B
ENCODING 1147
SWIDTH 630 0
DWIDTH 7 0
BBX 6 6 0 0
BITMAP
38
4C
84
84
44
78
ENDCHAR
STARTCHAR 047C
ENCODING 1148
SWIDTH 900 0
DWIDTH 10 0
BBX 10 11 0 0
BITMAP
1E00
1180
0C00
8440
8440
8C40
4C40
4C80
5A80
7380
3300
ENDCHAR
STARTCHAR 047D
ENCODING 1149
SWIDTH 630 0
DWIDTH 7 0
BBX 7 9 0 0
BITMAP
3C
42
10
82
92
92
5A
6A
64
ENDCHAR
STARTCHAR 047E
ENCODING 1150
SWIDTH 900 0
DWIDTH 10 0
BBX 10 10 0 0
BITMAP
3F00
0000
8440
8440
8C40
4C40
4C80
5A80
7380
3300
ENDCHAR
STARTCHAR 047F
ENCODING 1151
SWIDTH 630 0
DWIDTH 7 0
BBX 7 8 0 0
BITMAP
FE
00
82
92
92
5A
6A
64
ENDCHAR
STARTCHAR 0482
ENCODING 1154
SWIDTH 450 0
DWIDTH 5 0
BBX 5 7 0 -1
BITMAP
10
10
38
20
A0
70
40
ENDCHAR
STARTCHAR 0483
ENCODING 1155
SWIDTH 0 0
DWIDTH 0 0
BBX 4 2 -4 7
BITMAP
10
F0
ENDCHAR
STARTCHAR 0484
ENCODING 1156
SWIDTH 0 0
DWIDTH 0 0
BBX 3 1 -3 7
BITMAP
E0
ENDCHAR
STARTCHAR 0485
ENCODING 1157
SWIDTH 0 0
DWIDTH 0 0
BBX 2 1 -3 6
BITMAP
C0
ENDCHAR
STARTCHAR 0486
ENCODING 1158
SWIDTH 0 0
DWIDTH 0 0
BBX 2 1 -3 7
BITMAP
C0
ENDCHAR
STARTCHAR 0487
ENCODING 1159
SWIDTH 0 0
DWIDTH 0 0
BBX 6 2 -6 6
BITMAP
F8
84
ENDCHAR
STARTCHAR 0488
ENCODING 1160
SWIDTH 0 0
DWIDTH 0 0
BBX 0 0 -8 -1
BITMAP
ENDCHAR
STARTCHAR 0489
ENCODING 1161
SWIDTH 0 0
DWIDTH 0 0
BBX 12 12 -8 -2
BITMAP
0400
4040
2000
0000
0000
8030
0000
0000
2000
4040
0400
0400
ENDCHAR
STARTCHAR 048A
ENCODING 1162
SWIDTH 720 0
DWIDTH 8 0
BBX 7 11 1 -1
BITMAP
48
30
84
8C
9C
94
A4
A4
C4
86
02
ENDCHAR
STARTCHAR 048B
ENCODING 1163
SWIDTH 540 0
DWIDTH 6 0
BBX 5 9 1 -1
BITMAP
90
60
90
B0
B0
D0
D0
98
08
ENDCHAR
STARTCHAR 048C
ENCODING 1164
SWIDTH 720 0
DWIDTH 8 0
BBX 7 8 0 0
BITMAP
40
E0
40
78
46
42
42
7C
ENDCHAR
STARTCHAR 048D
ENCODING 1165
SWIDTH 540 0
DWIDTH 6 0
BBX 5 6 0 0
BITMAP
40
E0
40
78
48
78
ENDCHAR
STARTCHAR 048E
ENCODING 1166
SWIDTH 630 0
DWIDTH 7 0
BBX 6 8 1 0
BITMAP
F8
8C
84
98
FC
80
80
80
ENDCHAR
STARTCHAR 048F
ENCODING 1167
SWIDTH 540 0
DWIDTH 6 0
BBX 5 8 1 -2
BITMAP
F0
90
88
88
A8
F0
80
80
ENDCHAR
STARTCHAR 0490
ENCODING 1168
SWIDTH 630 0
DWIDTH 7 0
BBX 5 9 1 0
BITMAP
08
F8
80
80
80
80
80
80
80
ENDCHAR
STARTCHAR 0491
ENCODING 1169
SWIDTH 360 0
DWIDTH 4 0
BBX 3 7 1 0
BITMAP
20
E0
80
80
80
80
80
ENDCHAR
STARTCHAR 0492
ENCODING 1170
SWIDTH 630 0
DWIDTH 7 0
BBX 5 8 1 0
BITMAP
F8
80
80
C0
80
80
80
80
ENDCHAR
STARTCHAR 0493
ENCODING 1171
SWIDTH 450 0
DWIDTH 5 0
BBX 4 6 0 0
BITMAP
70
40
E0
40
40
40
ENDCHAR
STARTCHAR 0494
ENCODING 1172
SWIDTH 630 0
DWIDTH 7 0
BBX 5 10 1 -2
BITMAP
F8
80
80
F0
88
88
88
88
08
30
ENDCHAR
STARTCHAR 0495
ENCODING 1173
SWIDTH 450 0
DWIDTH 5 0
BBX 4 8 1 -2
BITMAP
E0
80
E0
90
90
90
30
40
ENDCHAR
STARTCHAR 0496
ENCODING 1174
SWIDTH 900 0
DWIDTH 10 0
BBX 9 9 1 -1
BITMAP
8900
4A00
2C00
3C00
2C00
6E00
CB00
8980
0080
ENDCHAR
STARTCHAR 0497
ENCODING 1175
SWIDTH 810 0
DWIDTH 9 0
BBX 8 7 1 -1
BITMAP
92
54
38
38
54
93
01
ENDCHAR
STARTCHAR 0498
ENCODING 1176
SWIDTH 630 0
DWIDTH 7 0
BBX 7 10 0 -2
BITMAP
7C
44
04
0C
1C
82
42
7C
10
18
ENDCHAR
STARTCHAR 0499
ENCODING 1177
SWIDTH 450 0
DWIDTH 5 0
BBX 5 8 0 -2
BITMAP
70
88
18
38
88
78
20
30
ENDCHAR
STARTCHAR 049A
ENCODING 1178
SWIDTH 630 0
DWIDTH 7 0
BBX 6 9 1 -1
BITMAP
88
90
A0
C0
C0
A0
90
8C
04
ENDCHAR
STARTCHAR 049B
ENCODING 1179
SWIDTH 450 0
DWIDTH 5 0
BBX 4 7 1 -1
BITMAP
90
A0
C0
C0
A0
90
10
ENDCHAR
STARTCHAR 049C
ENCODING 1180
SWIDTH 630 0
DWIDTH 7 0
BBX 6 8 1 0
BITMAP
8C
D0
E0
C0
C0
F0
98
8C
ENDCHAR
STARTCHAR 049D
ENCODING 1181
SWIDTH 540 0
DWIDTH 6 0
BBX 4 6 1 0
BITMAP
90
E0
C0
C0
E0
90
ENDCHAR
STARTCHAR 049E
ENCODING 1182
SWIDTH 720 0
DWIDTH 8 0
BBX 7 8 0 0
BITMAP
46
EC
50
60
70
58
4C
42
ENDCHAR
STARTCHAR 049F
ENCODING 1183
SWIDTH 540 0
DWIDTH 6 0
BBX 5 6 0 0
BITMAP
48
D0
60
60
50
48
ENDCHAR
STARTCHAR 04A0
ENCODING 1184
SWIDTH 810 0
DWIDTH 9 0
BBX 9 8 0 0
BITMAP
F180
1200
1400
1800
1800
1400
1200
1180
ENDCHAR
STARTCHAR 04A1
ENCODING 1185
SWIDTH 630 0
DWIDTH 7 0
BBX 7 6 0 0
BITMAP
E6
28
30
30
28
26
ENDCHAR
STARTCHAR 04A2
ENCODING 1186
SWIDTH 720 0
DWIDTH 8 0
BBX 7 9 1 -1
BITMAP
84
84
84
FC
84
84
84
86
02
ENDCHAR
STARTCHAR 04A3
ENCODING 1187
SWIDTH 540 0
DWIDTH 6 0
BBX 5 7 1 -1
BITMAP
90
90
90
F0
90
98
08
ENDCHAR
STARTCHAR 04A4
ENCODING 1188
SWIDTH 990 0
DWIDTH 11 0
BBX 10 8 1 0
BITMAP
87C0
8400
8400
FC00
8400
8400
8400
8400
ENDCHAR
STARTCHAR 04A5
ENCODING 1189
SWIDTH 720 0
DWIDTH 8 0
BBX 7 6 1 0
BITMAP
9E
90
90
F0
90
90
ENDCHAR
STARTCHAR 04A6
ENCODING 1190
SWIDTH 1080 0
DWIDTH 12 0
BBX 10 10 1 -2
BITMAP
FC00
8400
8400
87C0
8440
8440
8440
8440
0040
0180
ENDCHAR
STARTCHAR 04A7
ENCODING 1191
SWIDTH 810 0
DWIDTH 9 0
BBX 7 8 1 -2
BITMAP
F0
90
96
9A
92
92
02
04
ENDCHAR
STARTCHAR 04A8
ENCODING 1192
SWIDTH 810 0
DWIDTH 9 0
BBX 8 8 0 0
BITMAP
30
4E
4A
91
91
52
4A
3F
ENDCHAR
STARTCHAR 04A9
ENCODING 1193
SWIDTH 630 0
DWIDTH 7 0
BBX 7 6 0 0
BITMAP
20
58
98
A4
98
7E
ENDCHAR
STARTCHAR 04AA
ENCODING 1194
SWIDTH 720 0
DWIDTH 8 0
BBX 7 10 0 -2
BITMAP
3C
42
40
80
80
42
42
3C
08
08
ENDCHAR
STARTCHAR 04AB
ENCODING 1195
SWIDTH 540 0
DWIDTH 6 0
BBX 5 8 0 -2
BITMAP
70
48
80
80
48
78
10
10
ENDCHAR
STARTCHAR 04AC
ENCODING 1196
SWIDTH 630 0
DWIDTH 7 0
BBX 7 9 0 -1
BITMAP
FE
10
10
10
10
10
10
18
08
ENDCHAR
STARTCHAR 04AD
ENCODING 1197
SWIDTH 450 0
DWIDTH 5 0
BBX 4 7 0 -1
BITMAP
F0
20
20
20
20
20
20
ENDCHAR
STARTCHAR 04AE
ENCODING 1198
SWIDTH 630 0
DWIDTH 7 0
BBX 7 8 0 0
BITMAP
C2
44
24
38
18
10
10
10
ENDCHAR
STARTCHAR 04AF
ENCODING 1199
SWIDTH 540 0
DWIDTH 6 0
BBX 6 8 0 -2
BITMAP
C4
44
48
28
30
10
10
10
ENDCHAR
STARTCHAR 04B0
ENCODING 1200
SWIDTH 630 0
DWIDTH 7 0
BBX 7 8 0 0
BITMAP
C2
44
24
38
18
7E
10
10
ENDCHAR
STARTCHAR 04B1
ENCODING 1201
SWIDTH 540 0
DWIDTH 6 0
BBX 6 8 0 -2
BITMAP
C4
44
48
28
30
FC
10
10
ENDCHAR
STARTCHAR 04B2
ENCODING 1202
SWIDTH 630 0
DWIDTH 7 0
BBX 6 9 1 -1
BITMAP
8C
C8
50
20
30
50
88
8C
04
ENDCHAR
STARTCHAR 04B3
ENCODING 1203
SWIDTH 450 0
DWIDTH 5 0
BBX 5 7 0 -1
BITMAP
88
50
30
20
50
88
08
ENDCHAR
STARTCHAR 04B4
ENCODING 1204
SWIDTH 900 0
DWIDTH 10 0
BBX 10 9 0 -1
BITMAP
FC80
1080
1080
1080
1080
1080
1080
1FC0
0040
ENDCHAR
STARTCHAR 04B5
ENCODING 1205
SWIDTH 630 0
DWIDTH 7 0
BBX 7 7 0 -1
BITMAP
F4
24
24
24
24
3E
02
ENDCHAR
STARTCHAR 04B6
ENCODING 1206
SWIDTH 630 0
DWIDTH 7 0
BBX 6 9 1 -1
BITMAP
88
88
88
88
F8
08
08
0C
04
ENDCHAR
STARTCHAR 04B7
ENCODING 1207
SWIDTH 540 0
DWIDTH 6 0
BBX 5 7 0 -1
BITMAP
88
88
88
78
08
08
08
ENDCHAR
STARTCHAR 04B8
ENCODING 1208
SWIDTH 630 0
DWIDTH 7 0
BBX 5 8 1 0
BITMAP
88
88
88
A8
F8
28
28
08
ENDCHAR
STARTCHAR 04B9
ENCODING 1209
SWIDTH 450 0
DWIDTH 5 0
BBX 5 6 0 0
BITMAP
88
88
A8
78
28
08
ENDCHAR
STARTCHAR 04BA
ENCODING 1210
SWIDTH 630 0
DWIDTH 7 0
BBX 5 8 1 0
BITMAP
80
80
80
F8
88
88
88
88
ENDCHAR
STARTCHAR 04BB
ENCODING 1211
SWIDTH 450 0
DWIDTH 5 0
BBX 4 6 1 0
BITMAP
80
80
E0
90
90
90
ENDCHAR
STARTCHAR 04BC
ENCODING 1212
SWIDTH 900 0
DWIDTH 10 0
BBX 10 8 0 0
BITMAP
6F00
9880
50C0
3FC0
1000
1000
1080
0F80
ENDCHAR
STARTCHAR 04BD
ENCODING 1213
SWIDTH 720 0
DWIDTH 8 0
BBX 7 6 0 0
BITMAP
5C
A2
A2
7C
22
1E
ENDCHAR
STARTCHAR 04BE
ENCODING 1214
SWIDTH 900 0
DWIDTH 10 0
BBX 10 10 0 -2
BITMAP
6F00
9880
50C0
3FC0
1000
1000
1080
0F80
0200
0200
ENDCHAR
STARTCHAR 04BF
ENCODING 1215
SWIDTH 720 0
DWIDTH 8 0
BBX 7 8 0 -2
BITMAP
5C
A2
A2
7C
22
1E
08
08
ENDCHAR
STARTCHAR 04C0
ENCODING 1216
SWIDTH 270 0
DWIDTH 3 0
BBX 1 8 1 0
BITMAP
80
80
80
80
80
80
80
80
ENDCHAR
STARTCHAR 04C1
ENCODING 1217
SWIDTH 900 0
DWIDTH 10 0
BBX 8 10 1 0
BITMAP
24
18
89
4A
2C
3C
2C
6E
CB
89
ENDCHAR
STARTCHAR 04C2
ENCODING 1218
SWIDTH 720 0
DWIDTH 8 0
BBX 7 8 1 0
BITMAP
08
30
92
54
38
38
54
92
ENDCHAR
STARTCHAR 04C3
ENCODING 1219
SWIDTH 630 0
DWIDTH 7 0
BBX 6 10 1 -2
BITMAP
8C
90
A0
C0
F8
84
84
84
04
18
ENDCHAR
STARTCHAR 04C4
ENCODING 1220
SWIDTH 450 0
DWIDTH 5 0
BBX 4 8 1 -2
BITMAP
90
A0
C0
E0
90
90
10
20
ENDCHAR
STARTCHAR 04C5
ENCODING 1221
SWIDTH 720 0
DWIDTH 8 0
BBX 7 9 0 -1
BITMAP
3E
26
26
26
66
46
46
C6
02
ENDCHAR
STARTCHAR 04C6
ENCODING 1222
SWIDTH 540 0
DWIDTH 6 0
BBX 5 7 0 -1
BITMAP
78
48
48
48
48
88
08
ENDCHAR
STARTCHAR 04C7
ENCODING 1223
SWIDTH 720 0
DWIDTH 8 0
BBX 6 10 1 -2
BITMAP
84
84
84
FC
84
84
84
84
04
18
ENDCHAR
STARTCHAR 04C8
ENCODING 1224
SWIDTH 540 0
DWIDTH 6 0
BBX 4 8 1 -2
BITMAP
90
90
90
F0
90
90
10
20
ENDCHAR
STARTCHAR 04C9
ENCODING 1225
SWIDTH 720 0
DWIDTH 8 0
BBX 7 9 1 -1
BITMAP
84
84
84
FC
84
84
84
86
02
ENDCHAR
STARTCHAR 04CA
ENCODING 1226
SWIDTH 540 0
DWIDTH 6 0
BBX 5 7 1 -1
BITMAP
90
90
90
F0
90
98
08
ENDCHAR
STARTCHAR 04CB
ENCODING 1227
SWIDTH 630 0
DWIDTH 7 0
BBX 5 9 1 -1
BITMAP
88
88
88
88
F8
08
08
18
10
ENDCHAR
STARTCHAR 04CC
ENCODING 1228
SWIDTH 450 0
DWIDTH 5 0
BBX 5 7 0 -1
BITMAP
88
88
88
78
08
18
10
ENDCHAR
STARTCHAR 04CD
ENCODING 1229
SWIDTH 900 0
DWIDTH 10 0
BBX 8 9 1 -1
BITMAP
82
C6
C6
C6
AA
AA
9A
93
01
ENDCHAR
STARTCHAR 04CE
ENCODING 1230
SWIDTH 630 0
DWIDTH 7 0
BBX 6 7 1 -1
BITMAP
88
98
D8
E8
A8
AC
04
ENDCHAR
STARTCHAR 04CF
ENCODING 1231
SWIDTH 270 0
DWIDTH 3 0
BBX 1 8 1 0
BITMAP
80
80
80
80
80
80
80
80
ENDCHAR
STARTCHAR 04D0
ENCODING 1232
SWIDTH 630 0
DWIDTH 7 0
BBX 7 10 0 0
BITMAP
20
18
18
38
28
2C
44
7C
46
82
ENDCHAR
STARTCHAR 04D1
ENCODING 1233
SWIDTH 540 0
DWIDTH 6 0
BBX 6 8 0 0
BITMAP
48
30
78
48
08
78
88
7C
ENDCHAR
STARTCHAR 04D2
ENCODING 1234
SWIDTH 630 0
DWIDTH 7 0
BBX 7 10 0 0
BITMAP
28
00
18
38
28
2C
44
7C
46
82
ENDCHAR
STARTCHAR 04D3
ENCODING 1235
SWIDTH 540 0
DWIDTH 6 0
BBX 6 8 0 0
BITMAP
38
00
78
48
08
78
88
7C
ENDCHAR
STARTCHAR 04D4
ENCODING 1236
SWIDTH 990 0
DWIDTH 11 0
BBX 11 8 0 0
BITMAP
1FC0
1400
2400
27C0
2400
7C00
4400
87E0
ENDCHAR
STARTCHAR 04D5
ENCODING 1237
SWIDTH 900 0
DWIDTH 10 0
BBX 9 6 0 0
BITMAP
7700
4880
0880
7F00
8880
7780
ENDCHAR
STARTCHAR 04D6
ENCODING 1238
SWIDTH 630 0
DWIDTH 7 0
BBX 6 10 1 0
BITMAP
40
30
F8
80
80
F8
80
80
80
FC
ENDCHAR
STARTCHAR 04D7
ENCODING 1239
SWIDTH 540 0
DWIDTH 6 0
BBX 5 8 0 0
BITMAP
48
30
30
48
88
F0
48
78
ENDCHAR
STARTCHAR 04D8
ENCODING 1240
SWIDTH 720 0
DWIDTH 8 0
BBX 7 8 0 0
BITMAP
3C
42
02
02
FE
42
42
7C
ENDCHAR
STARTCHAR 04D9
ENCODING 1241
SWIDTH 540 0
DWIDTH 6 0
BBX 6 6 0 0
BITMAP
78
48
04
FC
48
30
ENDCHAR
STARTCHAR 04DA
ENCODING 1242
SWIDTH 720 0
DWIDTH 8 0
BBX 7 10 0 0
BITMAP
28
00
3C
42
02
02
FE
42
42
7C
ENDCHAR
STARTCHAR 04DB
ENCODING 1243
SWIDTH 540 0
DWIDTH 6 0
BBX 6 8 0 0
BITMAP
38
00
78
48
04
FC
48
30
ENDCHAR
STARTCHAR 04DC
ENCODING 1244
SWIDTH 900 0
DWIDTH 10 0
BBX 8 10 1 0
BITMAP
1C
00
89
4A
2C
3C
2C
6E
CB
89
ENDCHAR
STARTCHAR 04DD
ENCODING 1245
SWIDTH 720 0
DWIDTH 8 0
BBX 7 8 1 0
BITMAP
28
00
92
54
38
38
54
92
ENDCHAR
STARTCHAR 04DE
ENCODING 1246
SWIDTH 630 0
DWIDTH 7 0
BBX 7 10 0 0
BITMAP
28
00
7C
44
04
0C
1C
82
42
7C
ENDCHAR
STARTCHAR 04DF
ENCODING 1247
SWIDTH 450 0
DWIDTH 5 0
BBX 5 8 0 0
BITMAP
50
00
70
88
18
38
88
78
ENDCHAR
STARTCHAR 04E0
ENCODING 1248
SWIDTH 630 0
DWIDTH 7 0
BBX 5 8 1 0
BITMAP
F8
08
10
30
08
08
88
F8
ENDCHAR
STARTCHAR 04E1
ENCODING 1249
SWIDTH 540 0
DWIDTH 6 0
BBX 6 8 0 -2
BITMAP
78
08
10
38
08
84
48
30
ENDCHAR
STARTCHAR 04E2
ENCODING 1250
SWIDTH 720 0
DWIDTH 8 0
BBX 6 10 1 0
BITMAP
78
00
84
8C
9C
94
A4
A4
C4
84
ENDCHAR
STARTCHAR 04E3
ENCODING 1251
SWIDTH 540 0
DWIDTH 6 0
BBX 4 8 1 0
BITMAP
70
00
90
B0
B0
D0
D0
90
ENDCHAR
STARTCHAR 04E4
ENCODING 1252
SWIDTH 720 0
DWIDTH 8 0
BBX 6 10 1 0
BITMAP
78
00
84
8C
9C
94
A4
A4
C4
84
ENDCHAR
STARTCHAR 04E5
ENCODING 1253
SWIDTH 540 0
DWIDTH 6 0
BBX 4 8 1 0
BITMAP
50
00
90
B0
B0
D0
D0
90
ENDCHAR
STARTCHAR 04E6
ENCODING 1254
SWIDTH 810 0
DWIDTH 9 0
BBX 8 10 0 0
BITMAP
14
00
3E
42
41
81
81
41
43
3E
ENDCHAR
STARTCHAR 04E7
ENCODING 1255
SWIDTH 540 0
DWIDTH 6 0
BBX 6 8 0 0
BITMAP
28
00
70
48
84
84
48
78
ENDCHAR
STARTCHAR 04E8
ENCODING 1256
SWIDTH 810 0
DWIDTH 9 0
BBX 8 8 0 0
BITMAP
3E
42
41
81
FF
41
43
3E
ENDCHAR
STARTCHAR 04E9
ENCODING 1257
SWIDTH 540 0
DWIDTH 6 0
BBX 6 6 0 0
BITMAP
70
48
84
FC
48
78
ENDCHAR
STARTCHAR 04EA
ENCODING 1258
SWIDTH 810 0
DWIDTH 9 0
BBX 8 10 0 0
BITMAP
14
00
3E
42
41
81
FF
41
43
3E
ENDCHAR
STARTCHAR 04EB
ENCODING 1259
SWIDTH 540 0
DWIDTH 6 0
BBX 6 8 0 0
BITMAP
78
00
70
48
84
FC
48
78
ENDCHAR
STARTCHAR 04EC
ENCODING 1260
SWIDTH 720 0
DWIDTH 8 0
BBX 7 10 0 0
BITMAP
28
00
3C
42
02
3E
02
C2
42
7C
ENDCHAR
STARTCHAR 04ED
ENCODING 1261
SWIDTH 540 0
DWIDTH 6 0
BBX 5 8 0 0
BITMAP
50
00
70
48
08
38
88
70
ENDCHAR
STARTCHAR 04EE
ENCODING 1262
SWIDTH 630 0
DWIDTH 7 0
BBX 6 10 0 0
BITMAP
38
00
C4
44
68
28
30
10
20
20
ENDCHAR
STARTCHAR 04EF
ENCODING 1263
SWIDTH 450 0
DWIDTH 5 0
BBX 5 10 0 -2
BITMAP
70
00
88
48
50
50
50
20
20
C0
ENDCHAR
STARTCHAR 04F0
ENCODING 1264
SWIDTH 630 0
DWIDTH 7 0
BBX 6 10 0 0
BITMAP
28
00
C4
44
68
28
30
10
20
20
ENDCHAR
STARTCHAR 04F1
ENCODING 1265
SWIDTH 450 0
DWIDTH 5 0
BBX 5 10 0 -2
BITMAP
50
00
88
48
50
50
50
20
20
C0
ENDCHAR
STARTCHAR 04F2
ENCODING 1266
SWIDTH 630 0
DWIDTH 7 0
BBX 6 10 0 0
BITMAP
38
00
C4
44
68
28
30
10
20
20
ENDCHAR
STARTCHAR 04F3
ENCODING 1267
SWIDTH 450 0
DWIDTH 5 0
BBX 5 10 0 -2
BITMAP
70
00
88
48
50
50
50
20
20
C0
ENDCHAR
STARTCHAR 04F4
ENCODING 1268
SWIDTH 630 0
DWIDTH 7 0
BBX 5 10 1 0
BITMAP
50
00
88
88
88
88
F8
08
08
08
ENDCHAR
STARTCHAR 04F5
ENCODING 1269
SWIDTH 450 0
DWIDTH 5 0
BBX 4 8 1 0
BITMAP
A0
00
10
90
90
F0
10
10
ENDCHAR
STARTCHAR 04F6
ENCODING 1270
SWIDTH 630 0
DWIDTH 7 0
BBX 5 9 1 -1
BITMAP
F8
80
80
80
80
80
80
C0
40
ENDCHAR
STARTCHAR 04F7
ENCODING 1271
SWIDTH 360 0
DWIDTH 4 0
BBX 3 7 1 -1
BITMAP
E0
80
80
80
80
80
80
ENDCHAR
STARTCHAR 04F8
ENCODING 1272
SWIDTH 900 0
DWIDTH 10 0
BBX 8 10 1 0
BITMAP
28
00
81
81
81
F9
85
85
85
F9
ENDCHAR
STARTCHAR 04F9
ENCODING 1273
SWIDTH 630 0
DWIDTH 7 0
BBX 6 8 1 0
BITMAP
50
00
84
84
E4
94
94
F4
ENDCHAR
STARTCHAR 04FA
ENCODING 1274
SWIDTH 630 0
DWIDTH 7 0
BBX 5 10 1 -2
BITMAP
F8
80
80
C0
80
80
80
C0
40
40
ENDCHAR
STARTCHAR 04FB
ENCODING 1275
SWIDTH 450 0
DWIDTH 5 0
BBX 4 8 0 -2
BITMAP
70
40
E0
40
40
60
20
60
ENDCHAR
STARTCHAR 04FC
ENCODING 1276
SWIDTH 630 0
DWIDTH 7 0
BBX 6 10 1 -2
BITMAP
8C
C8
50
20
30
50
88
8C
04
18
ENDCHAR
STARTCHAR 04FD
ENCODING 1277
SWIDTH 450 0
DWIDTH 5 0
BBX 5 8 0 -2
BITMAP
88
50
30
20
50
88
08
10
ENDCHAR
STARTCHAR 04FE
ENCODING 1278
SWIDTH 630 0
DWIDTH 7 0
BBX 6 8 1 0
BITMAP
8C
C8
50
F8
30
50
88
8C
ENDCHAR
STARTCHAR 04FF
ENCODING 1279
SWIDTH 450 0
DWIDTH 5 0
BBX 5 6 0 0
BITMAP
88
50
20
70
50
88
ENDCHAR
STARTCHAR 0510
ENCODING 1296
SWIDTH 630 0
DWIDTH 7 0
BBX 7 8 0 0
BITMAP
7C
44
40
60
70
C2
46
7C
ENDCHAR
STARTCHAR 0511
ENCODING 1297
SWIDTH 450 0
DWIDTH 5 0
BBX 5 6 0 0
BITMAP
70
48
40
60
88
78
ENDCHAR
STARTCHAR 0512
ENCODING 1298
SWIDTH 630 0
DWIDTH 7 0
BBX 7 10 0 -2
BITMAP
3E
26
26
26
66
46
46
C6
04
0C
ENDCHAR
STARTCHAR 0513
ENCODING 1299
SWIDTH 450 0
DWIDTH 5 0
BBX 5 8 0 -2
BITMAP
78
48
48
48
48
88
08
10
ENDCHAR
STARTCHAR 051A
ENCODING 1306
SWIDTH 810 0
DWIDTH 9 0
BBX 8 9 0 -1
BITMAP
3E
43
41
81
81
41
47
3E
01
ENDCHAR
STARTCHAR 051B
ENCODING 1307
SWIDTH 540 0
DWIDTH 6 0
BBX 5 8 0 -2
BITMAP
70
48
88
88
C8
78
08
08
ENDCHAR
STARTCHAR 051C
ENCODING 1308
SWIDTH 900 0
DWIDTH 10 0
BBX 10 8 0 0
BITMAP
8C40
4C40
4CC0
4A80
5280
3280
3100
2100
ENDCHAR
STARTCHAR 051D
ENCODING 1309
SWIDTH 720 0
DWIDTH 8 0
BBX 8 6 0 0
BITMAP
99
9A
5A
6A
66
24
ENDCHAR
STARTCHAR 051E
ENCODING 1310
SWIDTH 630 0
DWIDTH 7 0
BBX 5 8 1 0
BITMAP
A8
90
A8
C0
C0
A0
90
88
ENDCHAR
STARTCHAR 051F
ENCODING 1311
SWIDTH 450 0
DWIDTH 5 0
BBX 4 6 1 0
BITMAP
90
E0
C0
C0
A0
90
ENDCHAR
STARTCHAR 0524
ENCODING 1316
SWIDTH 720 0
DWIDTH 8 0
BBX 7 9 1 -1
BITMAP
FC
84
84
84
84
84
84
86
02
ENDCHAR
STARTCHAR 0525
ENCODING 1317
SWIDTH 540 0
DWIDTH 6 0
BBX 5 7 1 -1
BITMAP
F0
90
90
90
90
98
08
ENDCHAR
STARTCHAR 0526
ENCODING 1318
SWIDTH 630 0
DWIDTH 7 0
BBX 6 9 1 -1
BITMAP
80
80
80
F0
88
88
88
8C
04
ENDCHAR
STARTCHAR 0527
ENCODING 1319
SWIDTH 540 0
DWIDTH 6 0
BBX 4 6 1 0
BITMAP
80
E0
90
90
90
10
ENDCHAR
STARTCHAR 0531
ENCODING 1329
SWIDTH 720 0
DWIDTH 8 0
BBX 7 8 1 0
BITMAP
84
84
84
84
84
84
84
7E
ENDCHAR
STARTCHAR 0532
ENCODING 1330
SWIDTH 720 0
DWIDTH 8 0
BBX 6 8 1 0
BITMAP
78
8C
84
84
80
FC
80
80
ENDCHAR
STARTCHAR 0533
ENCODING 1331
SWIDTH 720 0
DWIDTH 8 0
BBX 8 8 0 0
BITMAP
7C
44
84
84
44
7F
1F
06
ENDCHAR
STARTCHAR 0534
ENCODING 1332
SWIDTH 720 0
DWIDTH 8 0
BBX 7 8 1 0
BITMAP
78
8C
84
84
04
06
04
04
ENDCHAR
STARTCHAR 0535
ENCODING 1333
SWIDTH 720 0
DWIDTH 8 0
BBX 6 8 1 0
BITMAP
80
80
FC
80
84
84
84
78
ENDCHAR
STARTCHAR 0536
ENCODING 1334
SWIDTH 720 0
DWIDTH 8 0
BBX 7 8 1 0
BITMAP
78
84
84
E4
04
08
90
EE
ENDCHAR
STARTCHAR 0537
ENCODING 1335
SWIDTH 450 0
DWIDTH 5 0
BBX 3 8 1 0
BITMAP
80
80
80
E0
80
80
80
E0
ENDCHAR
STARTCHAR 0538
ENCODING 1336
SWIDTH 720 0
DWIDTH 8 0
BBX 6 8 1 0
BITMAP
78
8C
84
84
84
80
80
FC
ENDCHAR
STARTCHAR 0539
ENCODING 1337
SWIDTH 810 0
DWIDTH 9 0
BBX 8 8 1 0
BITMAP
7C
82
82
BF
A2
A2
A2
BC
ENDCHAR
STARTCHAR 053A
ENCODING 1338
SWIDTH 630 0
DWIDTH 7 0
BBX 6 8 1 0
BITMAP
08
08
7C
88
88
88
88
F0
ENDCHAR
STARTCHAR 053B
ENCODING 1339
SWIDTH 720 0
DWIDTH 8 0
BBX 6 8 1 0
BITMAP
80
80
F8
84
84
84
80
80
ENDCHAR
STARTCHAR 053C
ENCODING 1340
SWIDTH 360 0
DWIDTH 4 0
BBX 3 8 1 0
BITMAP
80
80
80
80
80
80
80
E0
ENDCHAR
STARTCHAR 053D
ENCODING 1341
SWIDTH 810 0
DWIDTH 9 0
BBX 8 8 1 0
BITMAP
80
80
E1
A1
A1
A1
A2
9E
ENDCHAR
STARTCHAR 053E
ENCODING 1342
SWIDTH 810 0
DWIDTH 9 0
BBX 8 8 0 0
BITMAP
FF
3C
42
41
81
41
42
3C
ENDCHAR
STARTCHAR 053F
ENCODING 1343
SWIDTH 720 0
DWIDTH 8 0
BBX 6 8 1 0
BITMAP
80
80
84
84
84
7C
04
04
ENDCHAR
STARTCHAR 0540
ENCODING 1344
SWIDTH 540 0
DWIDTH 6 0
BBX 6 8 0 -1
BITMAP
0C
08
10
20
40
E0
38
04
ENDCHAR
STARTCHAR 0541
ENCODING 1345
SWIDTH 630 0
DWIDTH 7 0
BBX 5 8 1 0
BITMAP
70
88
88
08
08
C8
B0
F0
ENDCHAR
STARTCHAR 0542
ENCODING 1346
SWIDTH 630 0
DWIDTH 7 0
BBX 6 8 1 0
BITMAP
70
88
88
88
88
08
08
0C
ENDCHAR
STARTCHAR 0543
ENCODING 1347
SWIDTH 630 0
DWIDTH 7 0
BBX 7 8 0 0
BITMAP
04
38
38
2C
44
44
42
FE
ENDCHAR
STARTCHAR 0544
ENCODING 1348
SWIDTH 720 0
DWIDTH 8 0
BBX 7 8 1 0
BITMAP
86
84
84
84
84
84
8C
78
ENDCHAR
STARTCHAR 0545
ENCODING 1349
SWIDTH 630 0
DWIDTH 7 0
BBX 5 8 1 0
BITMAP
F0
88
08
F0
08
08
88
F0
ENDCHAR
STARTCHAR 0546
ENCODING 1350
SWIDTH 720 0
DWIDTH 8 0
BBX 8 8 0 0
BITMAP
E0
20
20
21
21
21
21
1E
ENDCHAR
STARTCHAR 0547
ENCODING 1351
SWIDTH 630 0
DWIDTH 7 0
BBX 6 8 0 0
BITMAP
70
3C
40
40
C0
C4
44
78
ENDCHAR
STARTCHAR 0548
ENCODING 1352
SWIDTH 720 0
DWIDTH 8 0
BBX 6 8 1 0
BITMAP
78
8C
84
84
84
84
84
84
ENDCHAR
STARTCHAR 0549
ENCODING 1353
SWIDTH 630 0
DWIDTH 7 0
BBX 5 8 1 0
BITMAP
70
88
88
08
08
08
F0
30
ENDCHAR
STARTCHAR 054A
ENCODING 1354
SWIDTH 720 0
DWIDTH 8 0
BBX 6 8 1 0
BITMAP
78
AC
A4
A4
24
24
04
04
ENDCHAR
STARTCHAR 054B
ENCODING 1355
SWIDTH 720 0
DWIDTH 8 0
BBX 8 8 0 0
BITMAP
3C
42
82
F2
0E
04
48
77
ENDCHAR
STARTCHAR 054C
ENCODING 1356
SWIDTH 720 0
DWIDTH 8 0
BBX 7 8 1 0
BITMAP
78
8C
84
84
84
86
84
84
ENDCHAR
STARTCHAR 054D
ENCODING 1357
SWIDTH 720 0
DWIDTH 8 0
BBX 6 8 1 0
BITMAP
84
84
84
84
84
84
84
78
ENDCHAR
STARTCHAR 054E
ENCODING 1358
SWIDTH 720 0
DWIDTH 8 0
BBX 7 8 1 0
BITMAP
04
04
84
84
84
7C
04
06
ENDCHAR
STARTCHAR 054F
ENCODING 1359
SWIDTH 630 0
DWIDTH 7 0
BBX 6 8 1 0
BITMAP
78
88
80
E0
18
04
84
F8
ENDCHAR
STARTCHAR 0550
ENCODING 1360
SWIDTH 720 0
DWIDTH 8 0
BBX 6 8 1 0
BITMAP
78
8C
84
84
84
80
80
80
ENDCHAR
STARTCHAR 0551
ENCODING 1361
SWIDTH 630 0
DWIDTH 7 0
BBX 5 8 1 0
BITMAP
70
88
88
70
88
08
88
F0
ENDCHAR
STARTCHAR 0552
ENCODING 1362
SWIDTH 360 0
DWIDTH 4 0
BBX 3 8 1 0
BITMAP
80
80
80
E0
80
80
80
80
ENDCHAR
STARTCHAR 0553
ENCODING 1363
SWIDTH 810 0
DWIDTH 9 0
BBX 7 8 1 0
BITMAP
10
7C
92
92
92
92
5C
30
ENDCHAR
STARTCHAR 0554
ENCODING 1364
SWIDTH 630 0
DWIDTH 7 0
BBX 7 8 0 0
BITMAP
3C
64
44
64
7C
40
FE
40
ENDCHAR
STARTCHAR 0555
ENCODING 1365
SWIDTH 810 0
DWIDTH 9 0
BBX 7 8 1 0
BITMAP
78
C4
82
82
82
82
84
78
ENDCHAR
STARTCHAR 0556
ENCODING 1366
SWIDTH 720 0
DWIDTH 8 0
BBX 7 8 0 0
BITMAP
70
50
7C
12
12
12
D2
7E
ENDCHAR
STARTCHAR 0559
ENCODING 1369
SWIDTH 270 0
DWIDTH 3 0
BBX 1 1 1 7
BITMAP
80
ENDCHAR
STARTCHAR 055A
ENCODING 1370
SWIDTH 180 0
DWIDTH 2 0
BBX 1 2 1 5
BITMAP
80
80
ENDCHAR
STARTCHAR 055B
ENCODING 1371
SWIDTH 180 0
DWIDTH 2 0
BBX 2 2 0 6
BITMAP
40
80
ENDCHAR
STARTCHAR 055C
ENCODING 1372
SWIDTH 360 0
DWIDTH 4 0
BBX 2 1 1 6
BITMAP
C0
ENDCHAR
STARTCHAR 055D
ENCODING 1373
SWIDTH 360 0
DWIDTH 4 0
BBX 1 1 1 7
BITMAP
80
ENDCHAR
STARTCHAR 055E
ENCODING 1374
SWIDTH 360 0
DWIDTH 4 0
BBX 3 3 0 6
BITMAP
60
E0
20
ENDCHAR
STARTCHAR 055F
ENCODING 1375
SWIDTH 360 0
DWIDTH 4 0
BBX 3 2 0 6
BITMAP
40
E0
ENDCHAR
STARTCHAR 0561
ENCODING 1377
SWIDTH 810 0
DWIDTH 9 0
BBX 7 6 1 0
BITMAP
92
92
92
92
92
FC
ENDCHAR
STARTCHAR 0562
ENCODING 1378
SWIDTH 540 0
DWIDTH 6 0
BBX 4 8 1 -2
BITMAP
F0
90
90
90
80
F0
80
80
ENDCHAR
STARTCHAR 0563
ENCODING 1379
SWIDTH 540 0
DWIDTH 6 0
BBX 6 8 0 -2
BITMAP
78
48
88
88
48
7C
08
08
ENDCHAR
STARTCHAR 0564
ENCODING 1380
SWIDTH 540 0
DWIDTH 6 0
BBX 5 8 1 -2
BITMAP
F0
90
90
90
90
98
10
10
ENDCHAR
STARTCHAR 0565
ENCODING 1381
SWIDTH 540 0
DWIDTH 6 0
BBX 4 8 1 0
BITMAP
80
80
80
F0
90
90
90
F0
ENDCHAR
STARTCHAR 0566
ENCODING 1382
SWIDTH 540 0
DWIDTH 6 0
BBX 6 8 0 -2
BITMAP
78
48
88
88
48
78
08
0C
ENDCHAR
STARTCHAR 0567
ENCODING 1383
SWIDTH 360 0
DWIDTH 4 0
BBX 3 9 1 -1
BITMAP
80
80
80
E0
80
80
80
C0
40
ENDCHAR
STARTCHAR 0568
ENCODING 1384
SWIDTH 540 0
DWIDTH 6 0
BBX 4 8 1 -2
BITMAP
F0
90
90
90
90
90
80
F0
ENDCHAR
STARTCHAR 0569
ENCODING 1385
SWIDTH 540 0
DWIDTH 6 0
BBX 5 8 1 -2
BITMAP
F0
88
88
B8
C8
B0
80
80
ENDCHAR
STARTCHAR 056A
ENCODING 1386
SWIDTH 540 0
DWIDTH 6 0
BBX 6 8 0 0
BITMAP
08
08
3C
48
88
88
48
70
ENDCHAR
STARTCHAR 056B
ENCODING 1387
SWIDTH 540 0
DWIDTH 6 0
BBX 4 10 1 -2
BITMAP
80
80
F0
90
90
90
90
90
80
80
ENDCHAR
STARTCHAR 056C
ENCODING 1388
SWIDTH 270 0
DWIDTH 3 0
BBX 1 8 1 -2
BITMAP
80
80
80
80
80
80
80
80
ENDCHAR
STARTCHAR 056D
ENCODING 1389
SWIDTH 810 0
DWIDTH 9 0
BBX 7 10 1 -2
BITMAP
80
80
E2
A2
A2
A2
A2
9E
80
80
ENDCHAR
STARTCHAR 056E
ENCODING 1390
SWIDTH 540 0
DWIDTH 6 0
BBX 6 8 0 0
BITMAP
20
20
3C
48
88
88
48
70
ENDCHAR
STARTCHAR 056F
ENCODING 1391
SWIDTH 540 0
DWIDTH 6 0
BBX 4 10 1 -2
BITMAP
80
80
90
90
90
90
90
F0
10
10
ENDCHAR
STARTCHAR 0570
ENCODING 1392
SWIDTH 540 0
DWIDTH 6 0
BBX 4 8 1 0
BITMAP
80
80
F0
90
90
90
90
90
ENDCHAR
STARTCHAR 0571
ENCODING 1393
SWIDTH 540 0
DWIDTH 6 0
BBX 5 8 0 0
BITMAP
20
10
30
48
88
88
48
78
ENDCHAR
STARTCHAR 0572
ENCODING 1394
SWIDTH 540 0
DWIDTH 6 0
BBX 5 8 1 -2
BITMAP
F0
90
90
90
90
90
10
18
ENDCHAR
STARTCHAR 0573
ENCODING 1395
SWIDTH 540 0
DWIDTH 6 0
BBX 6 8 0 0
BITMAP
0C
18
30
30
48
48
48
F8
ENDCHAR
STARTCHAR 0574
ENCODING 1396
SWIDTH 540 0
DWIDTH 6 0
BBX 4 8 1 0
BITMAP
30
20
90
90
90
90
90
F0
ENDCHAR
STARTCHAR 0575
ENCODING 1397
SWIDTH 270 0
DWIDTH 3 0
BBX 2 8 0 -2
BITMAP
40
40
40
40
40
40
40
C0
ENDCHAR
STARTCHAR 0576
ENCODING 1398
SWIDTH 540 0
DWIDTH 6 0
BBX 4 8 1 0
BITMAP
C0
80
90
90
90
90
90
F0
ENDCHAR
STARTCHAR 0577
ENCODING 1399
SWIDTH 360 0
DWIDTH 4 0
BBX 4 8 0 -2
BITMAP
60
10
10
10
20
40
40
F0
ENDCHAR
STARTCHAR 0578
ENCODING 1400
SWIDTH 540 0
DWIDTH 6 0
BBX 4 6 1 0
BITMAP
F0
90
90
90
90
90
ENDCHAR
STARTCHAR 0579
ENCODING 1401
SWIDTH 360 0
DWIDTH 4 0
BBX 4 8 0 -2
BITMAP
20
40
40
20
20
40
40
F0
ENDCHAR
STARTCHAR 057A
ENCODING 1402
SWIDTH 810 0
DWIDTH 9 0
BBX 7 8 1 -2
BITMAP
92
92
92
92
92
FE
02
02
ENDCHAR
STARTCHAR 057B
ENCODING 1403
SWIDTH 540 0
DWIDTH 6 0
BBX 5 8 0 -2
BITMAP
70
48
88
48
30
30
40
70
ENDCHAR
STARTCHAR 057C
ENCODING 1404
SWIDTH 540 0
DWIDTH 6 0
BBX 4 6 1 0
BITMAP
F0
90
90
90
A0
B0
ENDCHAR
STARTCHAR 057D
ENCODING 1405
SWIDTH 540 0
DWIDTH 6 0
BBX 4 6 1 0
BITMAP
90
90
90
90
90
F0
ENDCHAR
STARTCHAR 057E
ENCODING 1406
SWIDTH 540 0
DWIDTH 6 0
BBX 5 10 1 -2
BITMAP
10
10
90
90
90
90
90
F0
10
18
ENDCHAR
STARTCHAR 057F
ENCODING 1407
SWIDTH 900 0
DWIDTH 10 0
BBX 8 6 1 0
BITMAP
96
99
91
91
91
F1
ENDCHAR
STARTCHAR 0580
ENCODING 1408
SWIDTH 540 0
DWIDTH 6 0
BBX 4 8 1 -2
BITMAP
F0
90
90
90
90
90
80
80
ENDCHAR
STARTCHAR 0581
ENCODING 1409
SWIDTH 540 0
DWIDTH 6 0
BBX 5 8 0 -2
BITMAP
30
48
88
88
48
78
48
78
ENDCHAR
STARTCHAR 0582
ENCODING 1410
SWIDTH 270 0
DWIDTH 3 0
BBX 2 6 1 0
BITMAP
80
80
80
80
80
C0
ENDCHAR
STARTCHAR 0583
ENCODING 1411
SWIDTH 900 0
DWIDTH 10 0
BBX 8 10 1 -2
BITMAP
10
10
96
99
91
91
91
F1
10
10
ENDCHAR
STARTCHAR 0584
ENCODING 1412
SWIDTH 540 0
DWIDTH 6 0
BBX 6 8 0 -2
BITMAP
78
44
44
44
6C
50
40
F8
ENDCHAR
STARTCHAR 0585
ENCODING 1413
SWIDTH 540 0
DWIDTH 6 0
BBX 6 6 0 0
BITMAP
30
48
84
84
4C
78
ENDCHAR
STARTCHAR 0586
ENCODING 1414
SWIDTH 630 0
DWIDTH 7 0
BBX 7 10 0 -2
BITMAP
70
50
78
14
12
12
92
7C
10
10
ENDCHAR
STARTCHAR 0587
ENCODING 1415
SWIDTH 540 0
DWIDTH 6 0
BBX 5 8 1 0
BITMAP
80
80
80
80
90
90
90
F8
ENDCHAR
STARTCHAR 0589
ENCODING 1417
SWIDTH 270 0
DWIDTH 3 0
BBX 1 6 1 0
BITMAP
80
00
00
00
00
80
ENDCHAR
STARTCHAR 058A
ENCODING 1418
SWIDTH 360 0
DWIDTH 4 0
BBX 3 1 0 2
BITMAP
E0
ENDCHAR
STARTCHAR 058F
ENCODING 1423
SWIDTH 720 0
DWIDTH 8 0
BBX 7 8 1 0
BITMAP
78
8C
84
84
0C
0E
04
04
ENDCHAR
STARTCHAR 05B0
ENCODING 1456
SWIDTH 0 0
DWIDTH 0 0
BBX 0 0 3 -2
BITMAP
ENDCHAR
STARTCHAR 05B1
ENCODING 1457
SWIDTH 0 0
DWIDTH 0 0
BBX 0 0 1 -2
BITMAP
ENDCHAR
STARTCHAR 05B2
ENCODING 1458
SWIDTH 0 0
DWIDTH 0 0
BBX 1 1 2 -2
BITMAP
80
ENDCHAR
STARTCHAR 05B3
ENCODING 1459
SWIDTH 0 0
DWIDTH 0 0
BBX 1 2 2 -3
BITMAP
80
80
ENDCHAR
STARTCHAR 05B4
ENCODING 1460
SWIDTH 0 0
DWIDTH 0 0
BBX 0 0 3 -2
BITMAP
ENDCHAR
STARTCHAR 05B5
ENCODING 1461
SWIDTH 0 0
DWIDTH 0 0
BBX 0 0 2 -2
BITMAP
ENDCHAR
STARTCHAR 05B6
ENCODING 1462
SWIDTH 0 0
DWIDTH 0 0
BBX 0 0 2 -2
BITMAP
ENDCHAR
STARTCHAR 05B7
ENCODING 1463
SWIDTH 0 0
DWIDTH 0 0
BBX 1 1 3 -2
BITMAP
80
ENDCHAR
STARTCHAR 05B8
ENCODING 1464
SWIDTH 0 0
DWIDTH 0 0
BBX 1 2 3 -3
BITMAP
80
80
ENDCHAR
STARTCHAR 05B9
ENCODING 1465
SWIDTH 0 0
DWIDTH 0 0
BBX 1 1 3 7
BITMAP
80
ENDCHAR
STARTCHAR 05BA
ENCODING 1466
SWIDTH 0 0
DWIDTH 0 0
BBX 0 0 0 7
BITMAP
ENDCHAR
STARTCHAR 05BB
ENCODING 1467
SWIDTH 0 0
DWIDTH 0 0
BBX 0 0 2 -3
BITMAP
ENDCHAR
STARTCHAR 05BC
ENCODING 1468
SWIDTH 0 0
DWIDTH 0 0
BBX 0 0 2 2
BITMAP
ENDCHAR
STARTCHAR 05BD
ENCODING 1469
SWIDTH 0 0
DWIDTH 0 0
BBX 1 1 2 -3
BITMAP
80
ENDCHAR
STARTCHAR 05BE
ENCODING 1470
SWIDTH 450 0
DWIDTH 5 0
BBX 4 1 0 6
BITMAP
F0
ENDCHAR
STARTCHAR 05BF
ENCODING 1471
SWIDTH 0 0
DWIDTH 0 0
BBX 3 1 1 7
BITMAP
E0
ENDCHAR
STARTCHAR 05C0
ENCODING 1472
SWIDTH 180 0
DWIDTH 2 0
BBX 1 9 1 -1
BITMAP
80
80
80
80
80
80
80
80
80
ENDCHAR
STARTCHAR 05C1
ENCODING 1473
SWIDTH 0 0
DWIDTH 0 0
BBX 1 1 7 7
BITMAP
80
ENDCHAR
STARTCHAR 05C2
ENCODING 1474
SWIDTH 0 0
DWIDTH 0 0
BBX 1 1 1 7
BITMAP
80
ENDCHAR
STARTCHAR 05C3
ENCODING 1475
SWIDTH 270 0
DWIDTH 3 0
BBX 1 6 1 0
BITMAP
80
00
00
00
00
80
ENDCHAR
STARTCHAR 05C4
ENCODING 1476
SWIDTH 0 0
DWIDTH 0 0
BBX 1 1 4 7
BITMAP
80
ENDCHAR
STARTCHAR 05C5
ENCODING 1477
SWIDTH 0 0
DWIDTH 0 0
BBX 0 0 3 -2
BITMAP
ENDCHAR
STARTCHAR 05C6
ENCODING 1478
SWIDTH 360 0
DWIDTH 4 0
BBX 3 6 1 1
BITMAP
C0
80
80
80
80
E0
ENDCHAR
STARTCHAR 05C7
ENCODING 1479
SWIDTH 0 0
DWIDTH 0 0
BBX 1 2 3 -3
BITMAP
80
80
ENDCHAR
STARTCHAR 05D0
ENCODING 1488
SWIDTH 630 0
DWIDTH 7 0
BBX 5 7 1 0
BITMAP
88
C8
48
E8
90
90
88
ENDCHAR
STARTCHAR 05D1
ENCODING 1489
SWIDTH 630 0
DWIDTH 7 0
BBX 5 7 1 0
BITMAP
C0
30
10
10
10
10
F8
ENDCHAR
STARTCHAR 05D2
ENCODING 1490
SWIDTH 450 0
DWIDTH 5 0
BBX 4 7 1 0
BITMAP
80
60
20
20
20
50
90
ENDCHAR
STARTCHAR 05D3
ENCODING 1491
SWIDTH 630 0
DWIDTH 7 0
BBX 6 7 0 0
BITMAP
FC
08
08
08
08
08
08
ENDCHAR
STARTCHAR 05D4
ENCODING 1492
SWIDTH 630 0
DWIDTH 7 0
BBX 5 7 1 0
BITMAP
E0
18
08
88
88
88
88
ENDCHAR
STARTCHAR 05D5
ENCODING 1493
SWIDTH 180 0
DWIDTH 2 0
BBX 1 7 1 0
BITMAP
80
80
80
80
80
80
80
ENDCHAR
STARTCHAR 05D6
ENCODING 1494
SWIDTH 360 0
DWIDTH 4 0
BBX 3 7 0 0
BITMAP
E0
40
40
40
40
40
40
ENDCHAR
STARTCHAR 05D7
ENCODING 1495
SWIDTH 630 0
DWIDTH 7 0
BBX 5 7 1 0
BITMAP
E0
98
88
88
88
88
88
ENDCHAR
STARTCHAR 05D8
ENCODING 1496
SWIDTH 630 0
DWIDTH 7 0
BBX 5 7 1 0
BITMAP
A0
98
88
88
88
88
70
ENDCHAR
STARTCHAR 05D9
ENCODING 1497
SWIDTH 180 0
DWIDTH 2 0
BBX 1 4 1 3
BITMAP
80
80
80
80
ENDCHAR
STARTCHAR 05DA
ENCODING 1498
SWIDTH 540 0
DWIDTH 6 0
BBX 5 9 0 -2
BITMAP
E0
18
08
08
08
08
08
08
08
ENDCHAR
STARTCHAR 05DB
ENCODING 1499
SWIDTH 540 0
DWIDTH 6 0
BBX 5 7 1 0
BITMAP
E0
10
08
08
08
10
E0
ENDCHAR
STARTCHAR 05DC
ENCODING 1500
SWIDTH 630 0
DWIDTH 7 0
BBX 6 8 0 0
BITMAP
80
FC
04
04
0C
08
10
10
ENDCHAR
STARTCHAR 05DD
ENCODING 1501
SWIDTH 630 0
DWIDTH 7 0
BBX 5 7 1 0
BITMAP
E0
98
88
88
88
88
F8
ENDCHAR
STARTCHAR 05DE
ENCODING 1502
SWIDTH 630 0
DWIDTH 7 0
BBX 5 7 1 0
BITMAP
E0
98
88
88
88
88
B8
ENDCHAR
STARTCHAR 05DF
ENCODING 1503
SWIDTH 180 0
DWIDTH 2 0
BBX 1 9 1 -2
BITMAP
80
80
80
80
80
80
80
80
80
ENDCHAR
STARTCHAR 05E0
ENCODING 1504
SWIDTH 360 0
DWIDTH 4 0
BBX 3 7 1 0
BITMAP
80
40
20
20
20
20
E0
ENDCHAR
STARTCHAR 05E1
ENCODING 1505
SWIDTH 630 0
DWIDTH 7 0
BBX 5 7 1 0
BITMAP
E0
98
88
88
88
88
70
ENDCHAR
STARTCHAR 05E2
ENCODING 1506
SWIDTH 540 0
DWIDTH 6 0
BBX 6 8 0 -1
BITMAP
44
44
44
24
24
28
70
80
ENDCHAR
STARTCHAR 05E3
ENCODING 1507
SWIDTH 540 0
DWIDTH 6 0
BBX 5 9 1 -2
BITMAP
E0
90
88
C8
08
08
08
08
08
ENDCHAR
STARTCHAR 05E4
ENCODING 1508
SWIDTH 540 0
DWIDTH 6 0
BBX 5 7 1 0
BITMAP
E0
90
88
C8
08
18
F0
ENDCHAR
STARTCHAR 05E5
ENCODING 1509
SWIDTH 540 0
DWIDTH 6 0
BBX 5 9 0 -2
BITMAP
88
48
68
38
20
20
20
20
20
ENDCHAR
STARTCHAR 05E6
ENCODING 1510
SWIDTH 540 0
DWIDTH 6 0
BBX 5 7 1 0
BITMAP
88
88
48
30
20
10
F8
ENDCHAR
STARTCHAR 05E7
ENCODING 1511
SWIDTH 630 0
DWIDTH 7 0
BBX 5 9 1 -2
BITMAP
F8
08
88
88
88
98
A0
80
80
ENDCHAR
STARTCHAR 05E8
ENCODING 1512
SWIDTH 540 0
DWIDTH 6 0
BBX 5 7 0 0
BITMAP
F0
08
08
08
08
08
08
ENDCHAR
STARTCHAR 05E9
ENCODING 1513
SWIDTH 810 0
DWIDTH 9 0
BBX 7 7 1 0
BITMAP
92
92
92
B2
C2
84
78
ENDCHAR
STARTCHAR 05EA
ENCODING 1514
SWIDTH 720 0
DWIDTH 8 0
BBX 7 7 0 0
BITMAP
78
26
22
22
22
22
C2
ENDCHAR
STARTCHAR 05F0
ENCODING 1520
SWIDTH 450 0
DWIDTH 5 0
BBX 3 7 1 0
BITMAP
A0
A0
A0
A0
A0
A0
A0
ENDCHAR
STARTCHAR 05F1
ENCODING 1521
SWIDTH 450 0
DWIDTH 5 0
BBX 3 7 1 0
BITMAP
A0
A0
A0
A0
20
20
20
ENDCHAR
STARTCHAR 05F2
ENCODING 1522
SWIDTH 360 0
DWIDTH 4 0
BBX 3 4 1 3
BITMAP
A0
A0
A0
A0
ENDCHAR
STARTCHAR 05F3
ENCODING 1523
SWIDTH 180 0
DWIDTH 2 0
BBX 2 2 0 5
BITMAP
C0
80
ENDCHAR
STARTCHAR 05F4
ENCODING 1524
SWIDTH 360 0
DWIDTH 4 0
BBX 2 2 1 5
BITMAP
C0
C0
ENDCHAR
STARTCHAR 0700
ENCODING 1792
SWIDTH 630 0
DWIDTH 7 0
BBX 5 6 1 0
BITMAP
20
20
00
88
00
20
ENDCHAR
STARTCHAR 0701
ENCODING 1793
SWIDTH 180 0
DWIDTH 2 0
BBX 1 1 1 1
BITMAP
80
ENDCHAR
STARTCHAR 0702
ENCODING 1794
SWIDTH 180 0
DWIDTH 2 0
BBX 1 1 1 -1
BITMAP
80
ENDCHAR
STARTCHAR 0703
ENCODING 1795
SWIDTH 180 0
DWIDTH 2 0
BBX 1 4 1 1
BITMAP
80
00
00
80
ENDCHAR
STARTCHAR 0704
ENCODING 1796
SWIDTH 180 0
DWIDTH 2 0
BBX 2 1 0 -3
BITMAP
C0
ENDCHAR
STARTCHAR 0705
ENCODING 1797
SWIDTH 540 0
DWIDTH 6 0
BBX 3 1 1 0
BITMAP
A0
ENDCHAR
STARTCHAR 0706
ENCODING 1798
SWIDTH 540 0
DWIDTH 6 0
BBX 3 2 1 -1
BITMAP
80
20
ENDCHAR
STARTCHAR 0707
ENCODING 1799
SWIDTH 540 0
DWIDTH 6 0
BBX 3 2 1 -1
BITMAP
20
80
ENDCHAR
STARTCHAR 0708
ENCODING 1800
SWIDTH 360 0
DWIDTH 4 0
BBX 2 4 1 1
BITMAP
80
00
00
40
ENDCHAR
STARTCHAR 0709
ENCODING 1801
SWIDTH 360 0
DWIDTH 4 0
BBX 2 4 1 -3
BITMAP
80
00
00
40
ENDCHAR
STARTCHAR 070A
ENCODING 1802
SWIDTH 540 0
DWIDTH 6 0
BBX 6 8 0 0
BITMAP
28
00
FC
00
10
00
00
10
ENDCHAR
STARTCHAR 070B
ENCODING 1803
SWIDTH 540 0
DWIDTH 6 0
BBX 6 3 0 3
BITMAP
FC
00
10
ENDCHAR
STARTCHAR 070C
ENCODING 1804
SWIDTH 630 0
DWIDTH 7 0
BBX 3 5 2 2
BITMAP
80
80
40
40
20
ENDCHAR
STARTCHAR 070D
ENCODING 1805
SWIDTH 540 0
DWIDTH 6 0
BBX 6 5 0 3
BITMAP
10
5C
FC
10
5C
ENDCHAR
STARTCHAR 070F
ENCODING 1807
SWIDTH 0 0
DWIDTH 0 0
BBX 0 0 0 0
BITMAP
ENDCHAR
STARTCHAR 0710
ENCODING 1808
SWIDTH 450 0
DWIDTH 5 0
BBX 5 9 0 -2
BITMAP
40
20
20
20
20
20
78
40
80
ENDCHAR
STARTCHAR 0711
ENCODING 1809
SWIDTH 450 0
DWIDTH 5 0
BBX 3 5 1 4
BITMAP
80
40
40
60
80
ENDCHAR
STARTCHAR 0712
ENCODING 1810
SWIDTH 540 0
DWIDTH 6 0
BBX 7 5 -1 0
BITMAP
1E
02
02
02
FE
ENDCHAR
STARTCHAR 0713
ENCODING 1811
SWIDTH 630 0
DWIDTH 7 0
BBX 8 8 -1 -3
BITMAP
20
10
10
08
08
FF
08
04
ENDCHAR
STARTCHAR 0714
ENCODING 1812
SWIDTH 630 0
DWIDTH 7 0
BBX 8 8 -1 -3
BITMAP
20
10
10
08
28
FF
08
04
ENDCHAR
STARTCHAR 0715
ENCODING 1813
SWIDTH 540 0
DWIDTH 6 0
BBX 4 7 1 -2
BITMAP
60
10
10
10
F0
00
C0
ENDCHAR
STARTCHAR 0716
ENCODING 1814
SWIDTH 540 0
DWIDTH 6 0
BBX 4 5 1 0
BITMAP
60
10
10
10
F0
ENDCHAR
STARTCHAR 0717
ENCODING 1815
SWIDTH 720 0
DWIDTH 8 0
BBX 6 6 1 -1
BITMAP
7C
D4
94
94
64
04
ENDCHAR
STARTCHAR 0718
ENCODING 1816
SWIDTH 540 0
DWIDTH 6 0
BBX 5 5 1 0
BITMAP
70
D8
88
88
70
ENDCHAR
STARTCHAR 0719
ENCODING 1817
SWIDTH 360 0
DWIDTH 4 0
BBX 2 6 2 -2
BITMAP
C0
C0
C0
40
40
80
ENDCHAR
STARTCHAR 071A
ENCODING 1818
SWIDTH 630 0
DWIDTH 7 0
BBX 8 3 -1 0
BITMAP
14
1E
FD
ENDCHAR
STARTCHAR 071B
ENCODING 1819
SWIDTH 720 0
DWIDTH 8 0
BBX 9 8 -1 -2
BITMAP
2000
1000
1000
0800
0400
FF80
0300
0200
ENDCHAR
STARTCHAR 071C
ENCODING 1820
SWIDTH 720 0
DWIDTH 8 0
BBX 9 8 -1 -2
BITMAP
2000
1000
1000
0800
0400
FF80
0300
0200
ENDCHAR
STARTCHAR 071D
ENCODING 1821
SWIDTH 450 0
DWIDTH 5 0
BBX 5 3 -1 0
BITMAP
08
08
F8
ENDCHAR
STARTCHAR 071E
ENCODING 1822
SWIDTH 720 0
DWIDTH 8 0
BBX 9 10 -1 -2
BITMAP
1000
2800
0000
7C00
9400
9400
9480
6700
0000
1000
ENDCHAR
STARTCHAR 071F
ENCODING 1823
SWIDTH 630 0
DWIDTH 7 0
BBX 5 7 1 -2
BITMAP
30
C0
80
78
48
08
08
ENDCHAR
STARTCHAR 0720
ENCODING 1824
SWIDTH 630 0
DWIDTH 7 0
BBX 8 7 -1 0
BITMAP
30
10
08
04
02
01
FF
ENDCHAR
STARTCHAR 0721
ENCODING 1825
SWIDTH 720 0
DWIDTH 8 0
BBX 6 7 1 -2
BITMAP
FC
24
24
24
7C
40
80
ENDCHAR
STARTCHAR 0722
ENCODING 1826
SWIDTH 540 0
DWIDTH 6 0
BBX 6 6 1 -3
BITMAP
40
C0
60
10
08
04
ENDCHAR
STARTCHAR 0723
ENCODING 1827
SWIDTH 720 0
DWIDTH 8 0
BBX 9 5 -1 0
BITMAP
0800
1700
1480
1480
FF00
ENDCHAR
STARTCHAR 0724
ENCODING 1828
SWIDTH 720 0
DWIDTH 8 0
BBX 6 7 2 -2
BITMAP
40
B8
A4
A4
78
40
80
ENDCHAR
STARTCHAR 0725
ENCODING 1829
SWIDTH 720 0
DWIDTH 8 0
BBX 8 6 -1 0
BITMAP
20
10
10
08
04
FF
ENDCHAR
STARTCHAR 0726
ENCODING 1830
SWIDTH 540 0
DWIDTH 6 0
BBX 7 6 -1 0
BITMAP
1C
14
12
0E
02
FE
ENDCHAR
STARTCHAR 0727
ENCODING 1831
SWIDTH 540 0
DWIDTH 6 0
BBX 7 6 -1 0
BITMAP
70
50
90
E0
80
FE
ENDCHAR
STARTCHAR 0728
ENCODING 1832
SWIDTH 630 0
DWIDTH 7 0
BBX 6 5 1 -2
BITMAP
C8
F4
40
38
7C
ENDCHAR
STARTCHAR 0729
ENCODING 1833
SWIDTH 540 0
DWIDTH 6 0
BBX 7 5 -1 0
BITMAP
1E
12
12
12
FE
ENDCHAR
STARTCHAR 072A
ENCODING 1834
SWIDTH 540 0
DWIDTH 6 0
BBX 4 7 1 0
BITMAP
40
00
60
10
10
10
F0
ENDCHAR
STARTCHAR 072B
ENCODING 1835
SWIDTH 720 0
DWIDTH 8 0
BBX 8 5 -1 0
BITMAP
1F
04
04
04
FF
ENDCHAR
STARTCHAR 072C
ENCODING 1836
SWIDTH 720 0
DWIDTH 8 0
BBX 6 5 1 0
BITMAP
60
50
88
88
F4
ENDCHAR
STARTCHAR 072D
ENCODING 1837
SWIDTH 540 0
DWIDTH 6 0
BBX 7 6 -1 1
BITMAP
18
1E
02
02
02
FE
ENDCHAR
STARTCHAR 072E
ENCODING 1838
SWIDTH 630 0
DWIDTH 7 0
BBX 8 8 -1 -3
BITMAP
24
14
18
08
08
FF
08
04
ENDCHAR
STARTCHAR 072F
ENCODING 1839
SWIDTH 540 0
DWIDTH 6 0
BBX 4 7 1 -2
BITMAP
60
10
10
10
F0
00
30
ENDCHAR
STARTCHAR 0730
ENCODING 1840
SWIDTH 0 0
DWIDTH 0 0
BBX 2 2 2 7
BITMAP
80
40
ENDCHAR
STARTCHAR 0731
ENCODING 1841
SWIDTH 0 0
DWIDTH 0 0
BBX 2 1 3 -2
BITMAP
C0
ENDCHAR
STARTCHAR 0732
ENCODING 1842
SWIDTH 0 0
DWIDTH 0 0
BBX 1 11 3 -3
BITMAP
80
00
00
00
00
00
00
00
00
80
80
ENDCHAR
STARTCHAR 0733
ENCODING 1843
SWIDTH 0 0
DWIDTH 0 0
BBX 2 3 3 6
BITMAP
80
00
40
ENDCHAR
STARTCHAR 0734
ENCODING 1844
SWIDTH 0 0
DWIDTH 0 0
BBX 3 1 2 -2
BITMAP
A0
ENDCHAR
STARTCHAR 0735
ENCODING 1845
SWIDTH 0 0
DWIDTH 0 0
BBX 2 2 3 6
BITMAP
80
40
ENDCHAR
STARTCHAR 0736
ENCODING 1846
SWIDTH 0 0
DWIDTH 0 0
BBX 2 3 3 6
BITMAP
80
40
40
ENDCHAR
STARTCHAR 0737
ENCODING 1847
SWIDTH 0 0
DWIDTH 0 0
BBX 3 2 2 -2
BITMAP
E0
40
ENDCHAR
STARTCHAR 0738
ENCODING 1848
SWIDTH 0 0
DWIDTH 0 0
BBX 1 1 2 -2
BITMAP
80
ENDCHAR
STARTCHAR 0739
ENCODING 1849
SWIDTH 0 0
DWIDTH 0 0
BBX 1 1 2 -3
BITMAP
80
ENDCHAR
STARTCHAR 073A
ENCODING 1850
SWIDTH 0 0
DWIDTH 0 0
BBX 2 2 2 6
BITMAP
C0
C0
ENDCHAR
STARTCHAR 073B
ENCODING 1851
SWIDTH 0 0
DWIDTH 0 0
BBX 0 0 3 -2
BITMAP
ENDCHAR
STARTCHAR 073C
ENCODING 1852
SWIDTH 0 0
DWIDTH 0 0
BBX 1 1 3 -2
BITMAP
80
ENDCHAR
STARTCHAR 073D
ENCODING 1853
SWIDTH 0 0
DWIDTH 0 0
BBX 2 2 2 7
BITMAP
40
80
ENDCHAR
STARTCHAR 073E
ENCODING 1854
SWIDTH 0 0
DWIDTH 0 0
BBX 1 1 3 -2
BITMAP
80
ENDCHAR
STARTCHAR 073F
ENCODING 1855
SWIDTH 0 0
DWIDTH 0 0
BBX 1 1 3 7
BITMAP
80
ENDCHAR
STARTCHAR 0740
ENCODING 1856
SWIDTH 0 0
DWIDTH 0 0
BBX 1 1 3 -2
BITMAP
80
ENDCHAR
STARTCHAR 0741
ENCODING 1857
SWIDTH 0 0
DWIDTH 0 0
BBX 1 1 3 7
BITMAP
80
ENDCHAR
STARTCHAR 0742
ENCODING 1858
SWIDTH 0 0
DWIDTH 0 0
BBX 1 1 3 -2
BITMAP
80
ENDCHAR
STARTCHAR 0743
ENCODING 1859
SWIDTH 0 0
DWIDTH 0 0
BBX 1 3 3 6
BITMAP
80
00
80
ENDCHAR
STARTCHAR 0744
ENCODING 1860
SWIDTH 0 0
DWIDTH 0 0
BBX 1 3 3 -3
BITMAP
80
80
80
ENDCHAR
STARTCHAR 0745
ENCODING 1861
SWIDTH 0 0
DWIDTH 0 0
BBX 3 3 2 6
BITMAP
40
00
A0
ENDCHAR
STARTCHAR 0746
ENCODING 1862
SWIDTH 0 0
DWIDTH 0 0
BBX 3 2 2 -3
BITMAP
A0
40
ENDCHAR
STARTCHAR 0747
ENCODING 1863
SWIDTH 0 0
DWIDTH 0 0
BBX 3 1 2 8
BITMAP
E0
ENDCHAR
STARTCHAR 0748
ENCODING 1864
SWIDTH 0 0
DWIDTH 0 0
BBX 3 2 2 -2
BITMAP
80
60
ENDCHAR
STARTCHAR 0749
ENCODING 1865
SWIDTH 0 0
DWIDTH 0 0
BBX 3 2 2 6
BITMAP
C0
60
ENDCHAR
STARTCHAR 074A
ENCODING 1866
SWIDTH 0 0
DWIDTH 0 0
BBX 3 2 2 7
BITMAP
40
E0
ENDCHAR
STARTCHAR 074D
ENCODING 1869
SWIDTH 630 0
DWIDTH 7 0
BBX 7 6 1 0
BITMAP
C2
44
64
24
38
18
ENDCHAR
STARTCHAR 074E
ENCODING 1870
SWIDTH 630 0
DWIDTH 7 0
BBX 8 7 -1 1
BITMAP
34
1C
08
04
02
01
FF
ENDCHAR
STARTCHAR 074F
ENCODING 1871
SWIDTH 630 0
DWIDTH 7 0
BBX 8 7 -1 0
BITMAP
36
19
0A
04
02
01
FF
ENDCHAR
STARTCHAR 0900
ENCODING 2304
SWIDTH 0 0
DWIDTH 0 0
BBX 4 3 -3 7
BITMAP
60
90
60
ENDCHAR
STARTCHAR 0901
ENCODING 2305
SWIDTH 0 0
DWIDTH 0 0
BBX 4 3 -3 7
BITMAP
60
90
60
ENDCHAR
STARTCHAR 0902
ENCODING 2306
SWIDTH 0 0
DWIDTH 0 0
BBX 2 1 -2 8
BITMAP
C0
ENDCHAR
STARTCHAR 0903
ENCODING 2307
SWIDTH 270 0
DWIDTH 3 0
BBX 1 4 1 1
BITMAP
80
00
00
80
ENDCHAR
STARTCHAR 0904
ENCODING 2308
SWIDTH 720 0
DWIDTH 8 0
BBX 7 9 1 0
BITMAP
28
14
6E
A4
24
7C
94
D4
24
ENDCHAR
STARTCHAR 0905
ENCODING 2309
SWIDTH 720 0
DWIDTH 8 0
BBX 7 7 1 0
BITMAP
6E
A4
24
7C
94
D4
24
ENDCHAR
STARTCHAR 0906
ENCODING 2310
SWIDTH 900 0
DWIDTH 10 0
BBX 10 7 0 0
BITMAP
27C0
5280
1280
3E80
8A80
7A80
0280
ENDCHAR
STARTCHAR 0907
ENCODING 2311
SWIDTH 450 0
DWIDTH 5 0
BBX 5 8 0 -2
BITMAP
F8
10
70
40
38
48
70
10
ENDCHAR
STARTCHAR 0908
ENCODING 2312
SWIDTH 450 0
DWIDTH 5 0
BBX 5 11 0 -2
BITMAP
18
20
10
F8
10
70
40
38
48
70
10
ENDCHAR
STARTCHAR 0909
ENCODING 2313
SWIDTH 540 0
DWIDTH 6 0
BBX 7 7 0 0
BITMAP
FE
08
04
58
44
24
1C
ENDCHAR
STARTCHAR 090A
ENCODING 2314
SWIDTH 810 0
DWIDTH 9 0
BBX 9 7 0 0
BITMAP
FF80
0800
0400
5B00
4500
2500
1D00
ENDCHAR
STARTCHAR 090B
ENCODING 2315
SWIDTH 900 0
DWIDTH 10 0
BBX 10 7 0 0
BITMAP
FFC0
0400
3580
4F00
0D80
3600
05C0
ENDCHAR
STARTCHAR 090C
ENCODING 2316
SWIDTH 630 0
DWIDTH 7 0
BBX 7 8 0 -1
BITMAP
FE
08
6C
92
94
44
28
0E
ENDCHAR
STARTCHAR 090D
ENCODING 2317
SWIDTH 450 0
DWIDTH 5 0
BBX 5 10 0 -1
BITMAP
90
60
F8
90
90
90
C0
20
10
10
ENDCHAR
STARTCHAR 090E
ENCODING 2318
SWIDTH 450 0
DWIDTH 5 0
BBX 5 10 0 -1
BITMAP
B0
50
F8
90
90
90
C0
20
10
10
ENDCHAR
STARTCHAR 090F
ENCODING 2319
SWIDTH 450 0
DWIDTH 5 0
BBX 5 8 0 -1
BITMAP
F8
90
90
90
C0
20
10
10
ENDCHAR
STARTCHAR 0910
ENCODING 2320
SWIDTH 450 0
DWIDTH 5 0
BBX 5 11 0 -1
BITMAP
40
20
10
F8
90
90
90
C0
20
10
10
ENDCHAR
STARTCHAR 0911
ENCODING 2321
SWIDTH 900 0
DWIDTH 10 0
BBX 10 9 0 0
BITMAP
0480
0300
27C0
5280
1280
3E80
8A80
7A80
0280
ENDCHAR
STARTCHAR 0912
ENCODING 2322
SWIDTH 900 0
DWIDTH 10 0
BBX 10 9 0 0
BITMAP
0500
0280
27C0
5280
1280
3E80
8A80
7A80
0280
ENDCHAR
STARTCHAR 0913
ENCODING 2323
SWIDTH 900 0
DWIDTH 10 0
BBX 10 10 0 0
BITMAP
0200
0200
0100
27C0
5280
1280
3E80
8A80
7A80
0280
ENDCHAR
STARTCHAR 0914
ENCODING 2324
SWIDTH 900 0
DWIDTH 10 0
BBX 10 10 0 0
BITMAP
0100
0500
0380
27C0
5280
1280
3E80
8A80
7A80
0280
ENDCHAR
STARTCHAR 0915
ENCODING 2325
SWIDTH 720 0
DWIDTH 8 0
BBX 8 7 0 0
BITMAP
FF
08
6E
89
89
7A
08
ENDCHAR
STARTCHAR 0916
ENCODING 2326
SWIDTH 810 0
DWIDTH 9 0
BBX 9 7 0 0
BITMAP
FF80
2100
2D00
6900
4700
2300
1D00
ENDCHAR
STARTCHAR 0917
ENCODING 2327
SWIDTH 540 0
DWIDTH 6 0
BBX 6 7 0 0
BITMAP
FC
48
48
48
08
08
08
ENDCHAR
STARTCHAR 0918
ENCODING 2328
SWIDTH 540 0
DWIDTH 6 0
BBX 7 7 0 0
BITMAP
FE
84
44
74
4C
34
04
ENDCHAR
STARTCHAR 0919
ENCODING 2329
SWIDTH 630 0
DWIDTH 7 0
BBX 8 7 0 0
BITMAP
FF
04
3C
22
5C
64
1C
ENDCHAR
STARTCHAR 091A
ENCODING 2330
SWIDTH 630 0
DWIDTH 7 0
BBX 7 7 0 0
BITMAP
FE
04
F4
24
4C
34
04
ENDCHAR
STARTCHAR 091B
ENCODING 2331
SWIDTH 630 0
DWIDTH 7 0
BBX 7 7 0 0
BITMAP
FE
84
84
6A
4A
44
38
ENDCHAR
STARTCHAR 091C
ENCODING 2332
SWIDTH 720 0
DWIDTH 8 0
BBX 8 7 0 0
BITMAP
FF
02
9E
4A
4A
32
02
ENDCHAR
STARTCHAR 091D
ENCODING 2333
SWIDTH 720 0
DWIDTH 8 0
BBX 8 8 0 -2
BITMAP
FF
12
72
42
3E
4A
72
10
ENDCHAR
STARTCHAR 091E
ENCODING 2334
SWIDTH 630 0
DWIDTH 7 0
BBX 8 7 0 0
BITMAP
FF
02
72
12
0E
72
02
ENDCHAR
STARTCHAR 091F
ENCODING 2335
SWIDTH 540 0
DWIDTH 6 0
BBX 6 7 0 0
BITMAP
FC
08
38
40
40
40
38
ENDCHAR
STARTCHAR 0920
ENCODING 2336
SWIDTH 540 0
DWIDTH 6 0
BBX 6 7 0 0
BITMAP
FC
08
38
48
88
48
38
ENDCHAR
STARTCHAR 0921
ENCODING 2337
SWIDTH 630 0
DWIDTH 7 0
BBX 7 7 0 0
BITMAP
FE
04
3C
20
5C
64
1C
ENDCHAR
STARTCHAR 0922
ENCODING 2338
SWIDTH 540 0
DWIDTH 6 0
BBX 6 7 0 0
BITMAP
FC
08
78
40
98
54
38
ENDCHAR
STARTCHAR 0923
ENCODING 2339
SWIDTH 630 0
DWIDTH 7 0
BBX 7 7 0 0
BITMAP
FE
94
94
94
64
04
04
ENDCHAR
STARTCHAR 0924
ENCODING 2340
SWIDTH 540 0
DWIDTH 6 0
BBX 6 7 0 0
BITMAP
FC
08
78
88
88
48
28
ENDCHAR
STARTCHAR 0925
ENCODING 2341
SWIDTH 630 0
DWIDTH 7 0
BBX 7 7 0 0
BITMAP
66
94
54
B4
44
3C
04
ENDCHAR
STARTCHAR 0926
ENCODING 2342
SWIDTH 540 0
DWIDTH 6 0
BBX 6 7 0 0
BITMAP
FC
08
78
80
88
78
08
ENDCHAR
STARTCHAR 0927
ENCODING 2343
SWIDTH 630 0
DWIDTH 7 0
BBX 7 7 0 0
BITMAP
6E
A4
44
74
4C
74
04
ENDCHAR
STARTCHAR 0928
ENCODING 2344
SWIDTH 540 0
DWIDTH 6 0
BBX 6 7 0 0
BITMAP
FC
08
08
78
48
08
08
ENDCHAR
STARTCHAR 0929
ENCODING 2345
SWIDTH 540 0
DWIDTH 6 0
BBX 6 7 0 0
BITMAP
FC
08
08
78
48
08
18
ENDCHAR
STARTCHAR 092A
ENCODING 2346
SWIDTH 450 0
DWIDTH 5 0
BBX 5 7 0 0
BITMAP
F8
90
90
90
70
10
10
ENDCHAR
STARTCHAR 092B
ENCODING 2347
SWIDTH 720 0
DWIDTH 8 0
BBX 8 7 0 0
BITMAP
FF
90
94
8A
72
12
10
ENDCHAR
STARTCHAR 092C
ENCODING 2348
SWIDTH 450 0
DWIDTH 5 0
BBX 6 7 0 0
BITMAP
FC
08
68
48
B8
68
08
ENDCHAR
STARTCHAR 092D
ENCODING 2349
SWIDTH 540 0
DWIDTH 6 0
BBX 6 7 0 0
BITMAP
4C
A4
24
7C
64
04
04
ENDCHAR
STARTCHAR 092E
ENCODING 2350
SWIDTH 540 0
DWIDTH 6 0
BBX 6 7 0 0
BITMAP
FC
48
48
F8
C8
08
08
ENDCHAR
STARTCHAR 092F
ENCODING 2351
SWIDTH 540 0
DWIDTH 6 0
BBX 6 7 0 0
BITMAP
FC
28
28
48
78
08
08
ENDCHAR
STARTCHAR 0930
ENCODING 2352
SWIDTH 450 0
DWIDTH 5 0
BBX 5 7 0 0
BITMAP
F8
10
10
70
20
20
10
ENDCHAR
STARTCHAR 0931
ENCODING 2353
SWIDTH 450 0
DWIDTH 5 0
BBX 5 8 0 -1
BITMAP
F8
10
10
70
20
20
10
C0
ENDCHAR
STARTCHAR 0932
ENCODING 2354
SWIDTH 630 0
DWIDTH 7 0
BBX 7 7 0 0
BITMAP
FE
04
24
5C
94
44
24
ENDCHAR
STARTCHAR 0933
ENCODING 2355
SWIDTH 630 0
DWIDTH 7 0
BBX 7 6 0 1
BITMAP
FE
04
6C
92
92
7E
ENDCHAR
STARTCHAR 0934
ENCODING 2356
SWIDTH 630 0
DWIDTH 7 0
BBX 7 8 0 -1
BITMAP
FE
04
6C
92
92
5A
24
0C
ENDCHAR
STARTCHAR 0935
ENCODING 2357
SWIDTH 450 0
DWIDTH 5 0
BBX 6 7 0 0
BITMAP
FC
10
70
90
90
70
10
ENDCHAR
STARTCHAR 0936
ENCODING 2358
SWIDTH 630 0
DWIDTH 7 0
BBX 7 7 0 0
BITMAP
FE
54
74
14
E4
24
14
ENDCHAR
STARTCHAR 0937
ENCODING 2359
SWIDTH 450 0
DWIDTH 5 0
BBX 5 7 0 0
BITMAP
F8
D0
B0
90
70
10
10
ENDCHAR
STARTCHAR 0938
ENCODING 2360
SWIDTH 630 0
DWIDTH 7 0
BBX 7 7 0 0
BITMAP
FE
12
12
7E
22
22
12
ENDCHAR
STARTCHAR 0939
ENCODING 2361
SWIDTH 450 0
DWIDTH 5 0
BBX 5 8 0 -1
BITMAP
F8
08
78
40
78
88
40
30
ENDCHAR
STARTCHAR 093A
ENCODING 2362
SWIDTH 0 0
DWIDTH 0 0
BBX 1 1 -1 8
BITMAP
80
ENDCHAR
STARTCHAR 093B
ENCODING 2363
SWIDTH 180 0
DWIDTH 2 0
BBX 3 9 0 0
BITMAP
40
40
E0
40
40
40
40
40
40
ENDCHAR
STARTCHAR 093C
ENCODING 2364
SWIDTH 0 0
DWIDTH 0 0
BBX 1 1 -4 -1
BITMAP
80
ENDCHAR
STARTCHAR 093D
ENCODING 2365
SWIDTH 450 0
DWIDTH 5 0
BBX 4 6 1 0
BITMAP
E0
80
40
20
10
E0
ENDCHAR
STARTCHAR 093E
ENCODING 2366
SWIDTH 180 0
DWIDTH 2 0
BBX 3 7 0 0
BITMAP
E0
40
40
40
40
40
40
ENDCHAR
STARTCHAR 093F
ENCODING 2367
SWIDTH 180 0
DWIDTH 2 0
BBX 7 10 0 0
BITMAP
20
58
84
E2
40
40
40
40
40
40
ENDCHAR
STARTCHAR 0940
ENCODING 2368
SWIDTH 180 0
DWIDTH 2 0
BBX 6 9 -3 0
BITMAP
70
88
1C
08
08
08
08
08
08
ENDCHAR
STARTCHAR 0941
ENCODING 2369
SWIDTH 0 0
DWIDTH 0 0
BBX 5 3 -5 -3
BITMAP
18
88
78
ENDCHAR
STARTCHAR 0942
ENCODING 2370
SWIDTH 0 0
DWIDTH 0 0
BBX 4 3 -3 -3
BITMAP
E0
90
C0
ENDCHAR
STARTCHAR 0943
ENCODING 2371
SWIDTH 0 0
DWIDTH 0 0
BBX 3 3 -3 -3
BITMAP
C0
80
E0
ENDCHAR
STARTCHAR 0944
ENCODING 2372
SWIDTH 0 0
DWIDTH 0 0
BBX 3 4 -3 -3
BITMAP
C0
A0
C0
E0
ENDCHAR
STARTCHAR 0945
ENCODING 2373
SWIDTH 0 0
DWIDTH 0 0
BBX 4 2 -3 7
BITMAP
90
60
ENDCHAR
STARTCHAR 0946
ENCODING 2374
SWIDTH 0 0
DWIDTH 0 0
BBX 4 2 -5 7
BITMAP
B0
50
ENDCHAR
STARTCHAR 0947
ENCODING 2375
SWIDTH 0 0
DWIDTH 0 0
BBX 3 3 -4 7
BITMAP
80
40
20
ENDCHAR
STARTCHAR 0948
ENCODING 2376
SWIDTH 0 0
DWIDTH 0 0
BBX 3 3 -4 7
BITMAP
40
40
E0
ENDCHAR
STARTCHAR 0949
ENCODING 2377
SWIDTH 180 0
DWIDTH 2 0
BBX 4 9 -1 0
BITMAP
90
60
70
20
20
20
20
20
20
ENDCHAR
STARTCHAR 094A
ENCODING 2378
SWIDTH 180 0
DWIDTH 2 0
BBX 5 9 -2 0
BITMAP
E0
10
38
10
10
10
10
10
10
ENDCHAR
STARTCHAR 094B
ENCODING 2379
SWIDTH 180 0
DWIDTH 2 0
BBX 4 9 -1 1
BITMAP
80
40
70
20
20
20
20
20
20
ENDCHAR
STARTCHAR 094C
ENCODING 2380
SWIDTH 180 0
DWIDTH 2 0
BBX 5 10 -2 0
BITMAP
40
A0
60
38
10
10
10
10
10
10
ENDCHAR
STARTCHAR 094D
ENCODING 2381
SWIDTH 0 0
DWIDTH 0 0
BBX 2 2 -2 -3
BITMAP
80
40
ENDCHAR
STARTCHAR 094E
ENCODING 2382
SWIDTH 180 0
DWIDTH 2 0
BBX 2 7 0 0
BITMAP
C0
80
80
80
80
80
80
ENDCHAR
STARTCHAR 094F
ENCODING 2383
SWIDTH 180 0
DWIDTH 2 0
BBX 6 9 -3 0
BITMAP
98
78
1C
08
08
08
08
08
08
ENDCHAR
STARTCHAR 0950
ENCODING 2384
SWIDTH 810 0
DWIDTH 9 0
BBX 9 9 0 0
BITMAP
0200
0A00
0700
7000
1100
3280
8C80
4880
3100
ENDCHAR
STARTCHAR 0951
ENCODING 2385
SWIDTH 0 0
DWIDTH 0 0
BBX 1 2 -1 8
BITMAP
80
80
ENDCHAR
STARTCHAR 0952
ENCODING 2386
SWIDTH 0 0
DWIDTH 0 0
BBX 6 1 -6 -3
BITMAP
FC
ENDCHAR
STARTCHAR 0953
ENCODING 2387
SWIDTH 0 0
DWIDTH 0 0
BBX 3 2 -5 8
BITMAP
C0
20
ENDCHAR
STARTCHAR 0954
ENCODING 2388
SWIDTH 0 0
DWIDTH 0 0
BBX 2 2 -2 8
BITMAP
C0
80
ENDCHAR
STARTCHAR 0955
ENCODING 2389
SWIDTH 0 0
DWIDTH 0 0
BBX 4 3 -3 7
BITMAP
90
E0
F0
ENDCHAR
STARTCHAR 0956
ENCODING 2390
SWIDTH 0 0
DWIDTH 0 0
BBX 4 2 -4 -2
BITMAP
10
E0
ENDCHAR
STARTCHAR 0957
ENCODING 2391
SWIDTH 0 0
DWIDTH 0 0
BBX 4 3 -4 -3
BITMAP
10
F0
E0
ENDCHAR
STARTCHAR 0958
ENCODING 2392
SWIDTH 720 0
DWIDTH 8 0
BBX 8 8 0 -1
BITMAP
FF
08
6E
89
89
7A
08
60
ENDCHAR
STARTCHAR 0959
ENCODING 2393
SWIDTH 810 0
DWIDTH 9 0
BBX 9 9 0 -2
BITMAP
FF80
2100
2D00
6900
4700
2300
1D00
0000
1800
ENDCHAR
STARTCHAR 095A
ENCODING 2394
SWIDTH 540 0
DWIDTH 6 0
BBX 6 7 0 0
BITMAP
FC
48
48
48
08
48
08
ENDCHAR
STARTCHAR 095B
ENCODING 2395
SWIDTH 720 0
DWIDTH 8 0
BBX 8 8 0 -1
BITMAP
FF
02
9E
4A
4A
32
02
10
ENDCHAR
STARTCHAR 095C
ENCODING 2396
SWIDTH 630 0
DWIDTH 7 0
BBX 7 9 0 -2
BITMAP
FE
04
3C
20
5C
64
1C
00
10
ENDCHAR
STARTCHAR 095D
ENCODING 2397
SWIDTH 540 0
DWIDTH 6 0
BBX 6 9 0 -2
BITMAP
FC
08
78
40
98
54
38
00
30
ENDCHAR
STARTCHAR 095E
ENCODING 2398
SWIDTH 720 0
DWIDTH 8 0
BBX 8 7 0 0
BITMAP
FF
90
94
8A
72
12
30
ENDCHAR
STARTCHAR 095F
ENCODING 2399
SWIDTH 540 0
DWIDTH 6 0
BBX 6 7 0 0
BITMAP
FC
28
28
48
78
08
38
ENDCHAR
STARTCHAR 0960
ENCODING 2400
SWIDTH 900 0
DWIDTH 10 0
BBX 10 9 0 -2
BITMAP
FFC0
0400
3500
4F00
0D80
3600
0580
0200
01C0
ENDCHAR
STARTCHAR 0961
ENCODING 2401
SWIDTH 630 0
DWIDTH 7 0
BBX 7 10 0 -3
BITMAP
FE
08
6C
92
84
4C
28
0E
08
0E
ENDCHAR
STARTCHAR 0962
ENCODING 2402
SWIDTH 0 0
DWIDTH 0 0
BBX 5 4 -5 -3
BITMAP
F8
A8
50
18
ENDCHAR
STARTCHAR 0963
ENCODING 2403
SWIDTH 0 0
DWIDTH 0 0
BBX 5 6 -5 -3
BITMAP
58
A8
90
50
18
18
ENDCHAR
STARTCHAR 0964
ENCODING 2404
SWIDTH 630 0
DWIDTH 7 0
BBX 1 8 4 -1
BITMAP
80
80
80
80
80
80
80
80
ENDCHAR
STARTCHAR 0965
ENCODING 2405
SWIDTH 630 0
DWIDTH 7 0
BBX 3 8 3 -1
BITMAP
C0
A0
A0
A0
A0
A0
A0
A0
ENDCHAR
STARTCHAR 0966
ENCODING 2406
SWIDTH 540 0
DWIDTH 6 0
BBX 4 4 1 1
BITMAP
F0
90
90
70
ENDCHAR
STARTCHAR 0967
ENCODING 2407
SWIDTH 540 0
DWIDTH 6 0
BBX 4 7 1 0
BITMAP
60
90
90
70
10
10
10
ENDCHAR
STARTCHAR 0968
ENCODING 2408
SWIDTH 540 0
DWIDTH 6 0
BBX 4 8 1 -1
BITMAP
60
90
10
10
F0
20
10
10
ENDCHAR
STARTCHAR 0969
ENCODING 2409
SWIDTH 540 0
DWIDTH 6 0
BBX 3 8 2 -1
BITMAP
C0
20
20
E0
20
A0
C0
40
ENDCHAR
STARTCHAR 096A
ENCODING 2410
SWIDTH 540 0
DWIDTH 6 0
BBX 5 7 1 0
BITMAP
90
88
90
60
50
90
70
ENDCHAR
STARTCHAR 096B
ENCODING 2411
SWIDTH 540 0
DWIDTH 6 0
BBX 5 6 1 1
BITMAP
80
90
90
70
10
08
ENDCHAR
STARTCHAR 096C
ENCODING 2412
SWIDTH 540 0
DWIDTH 6 0
BBX 4 8 1 -1
BITMAP
60
80
80
60
80
90
70
10
ENDCHAR
STARTCHAR 096D
ENCODING 2413
SWIDTH 540 0
DWIDTH 6 0
BBX 6 7 0 0
BITMAP
80
98
A4
94
48
48
30
ENDCHAR
STARTCHAR 096E
ENCODING 2414
SWIDTH 540 0
DWIDTH 6 0
BBX 4 7 1 0
BITMAP
20
40
40
40
80
90
60
ENDCHAR
STARTCHAR 096F
ENCODING 2415
SWIDTH 540 0
DWIDTH 6 0
BBX 4 8 1 -1
BITMAP
60
90
90
60
40
20
10
10
ENDCHAR
STARTCHAR 0970
ENCODING 2416
SWIDTH 360 0
DWIDTH 4 0
BBX 2 2 1 2
BITMAP
C0
C0
ENDCHAR
STARTCHAR 0971
ENCODING 2417
SWIDTH 360 0
DWIDTH 4 0
BBX 2 1 1 8
BITMAP
C0
ENDCHAR
STARTCHAR 0972
ENCODING 2418
SWIDTH 720 0
DWIDTH 8 0
BBX 7 9 1 0
BITMAP
12
0E
6E
A4
24
7C
94
D4
24
ENDCHAR
STARTCHAR 0973
ENCODING 2419
SWIDTH 720 0
DWIDTH 8 0
BBX 7 9 1 0
BITMAP
04
04
6E
A4
24
7C
94
D4
24
ENDCHAR
STARTCHAR 0974
ENCODING 2420
SWIDTH 900 0
DWIDTH 10 0
BBX 10 9 0 0
BITMAP
0080
0080
27C0
5280
1280
3E80
8A80
7A80
0280
ENDCHAR
STARTCHAR 0975
ENCODING 2421
SWIDTH 900 0
DWIDTH 10 0
BBX 10 9 0 0
BITMAP
0880
0780
27C0
5280
1280
3E80
8A80
7A80
0280
ENDCHAR
STARTCHAR 0976
ENCODING 2422
SWIDTH 720 0
DWIDTH 8 0
BBX 7 9 1 -2
BITMAP
6E
A4
24
7C
94
D4
24
00
38
ENDCHAR
STARTCHAR 0977
ENCODING 2423
SWIDTH 720 0
DWIDTH 8 0
BBX 7 10 1 -3
BITMAP
6E
A4
24
7C
94
D4
24
00
38
38
ENDCHAR
STARTCHAR 0979
ENCODING 2425
SWIDTH 720 0
DWIDTH 8 0
BBX 8 9 0 -2
BITMAP
FF
02
9E
4A
4A
32
6A
00
10
ENDCHAR
STARTCHAR 097A
ENCODING 2426
SWIDTH 540 0
DWIDTH 6 0
BBX 6 7 0 0
BITMAP
FC
28
28
58
78
08
08
ENDCHAR
STARTCHAR 097B
ENCODING 2427
SWIDTH 540 0
DWIDTH 6 0
BBX 6 7 0 0
BITMAP
FC
08
08
78
48
08
FC
ENDCHAR
STARTCHAR 097C
ENCODING 2428
SWIDTH 720 0
DWIDTH 8 0
BBX 8 7 0 0
BITMAP
FF
02
9E
4A
4A
32
FF
ENDCHAR
STARTCHAR 097D
ENCODING 2429
SWIDTH 540 0
DWIDTH 6 0
BBX 4 6 1 0
BITMAP
60
90
10
10
30
40
ENDCHAR
STARTCHAR 097E
ENCODING 2430
SWIDTH 630 0
DWIDTH 7 0
BBX 7 8 0 -1
BITMAP
FE
04
3C
20
5C
64
1C
FC
ENDCHAR
STARTCHAR 097F
ENCODING 2431
SWIDTH 450 0
DWIDTH 5 0
BBX 6 7 0 0
BITMAP
FC
08
68
48
B8
68
F8
ENDCHAR
STARTCHAR 0981
ENCODING 2433
SWIDTH 0 0
DWIDTH 0 0
BBX 3 2 -3 7
BITMAP
40
E0
ENDCHAR
STARTCHAR 0982
ENCODING 2434
SWIDTH 270 0
DWIDTH 3 0
BBX 3 5 0 0
BITMAP
40
C0
00
40
20
ENDCHAR
STARTCHAR 0983
ENCODING 2435
SWIDTH 270 0
DWIDTH 3 0
BBX 3 5 0 1
BITMAP
40
A0
40
40
E0
ENDCHAR
STARTCHAR 0985
ENCODING 2437
SWIDTH 630 0
DWIDTH 7 0
BBX 7 6 0 0
BITMAP
7E
BC
4C
2C
14
04
ENDCHAR
STARTCHAR 0986
ENCODING 2438
SWIDTH 810 0
DWIDTH 9 0
BBX 9 6 0 1
BITMAP
7F80
BD00
4D00
2D00
1500
0500
ENDCHAR
STARTCHAR 0987
ENCODING 2439
SWIDTH 540 0
DWIDTH 6 0
BBX 5 9 0 -1
BITMAP
80
A0
50
E8
70
10
70
20
18
ENDCHAR
STARTCHAR 0988
ENCODING 2440
SWIDTH 540 0
DWIDTH 6 0
BBX 6 8 0 0
BITMAP
80
78
74
E8
18
68
08
08
ENDCHAR
STARTCHAR 0989
ENCODING 2441
SWIDTH 540 0
DWIDTH 6 0
BBX 5 8 0 1
BITMAP
80
80
78
F0
A0
B8
48
38
ENDCHAR
STARTCHAR 098A
ENCODING 2442
SWIDTH 540 0
DWIDTH 6 0
BBX 6 7 0 2
BITMAP
50
28
F4
E0
6C
54
38
ENDCHAR
STARTCHAR 098B
ENCODING 2443
SWIDTH 630 0
DWIDTH 7 0
BBX 6 7 0 0
BITMAP
14
F4
34
4C
34
14
14
ENDCHAR
STARTCHAR 098C
ENCODING 2444
SWIDTH 450 0
DWIDTH 5 0
BBX 5 5 1 2
BITMAP
80
60
78
A8
30
ENDCHAR
STARTCHAR 098F
ENCODING 2447
SWIDTH 540 0
DWIDTH 6 0
BBX 6 6 0 0
BITMAP
1C
24
A4
84
7C
04
ENDCHAR
STARTCHAR 0990
ENCODING 2448
SWIDTH 630 0
DWIDTH 7 0
BBX 6 9 0 0
BITMAP
20
10
0C
1C
24
A4
84
7C
04
ENDCHAR
STARTCHAR 0993
ENCODING 2451
SWIDTH 540 0
DWIDTH 6 0
BBX 6 5 0 1
BITMAP
18
A4
48
44
38
ENDCHAR
STARTCHAR 0994
ENCODING 2452
SWIDTH 630 0
DWIDTH 7 0
BBX 6 8 0 1
BITMAP
20
10
0C
1C
AC
88
44
38
ENDCHAR
STARTCHAR 0995
ENCODING 2453
SWIDTH 540 0
DWIDTH 6 0
BBX 6 6 0 0
BITMAP
7C
38
D4
7C
10
10
ENDCHAR
STARTCHAR 0996
ENCODING 2454
SWIDTH 450 0
DWIDTH 5 0
BBX 5 7 0 0
BITMAP
08
A8
68
68
28
18
08
ENDCHAR
STARTCHAR 0997
ENCODING 2455
SWIDTH 450 0
DWIDTH 5 0
BBX 5 7 0 0
BITMAP
08
78
E8
28
08
08
08
ENDCHAR
STARTCHAR 0998
ENCODING 2456
SWIDTH 450 0
DWIDTH 5 0
BBX 4 6 0 0
BITMAP
F0
70
50
70
10
10
ENDCHAR
STARTCHAR 0999
ENCODING 2457
SWIDTH 450 0
DWIDTH 5 0
BBX 5 6 0 0
BITMAP
30
50
E0
B8
48
30
ENDCHAR
STARTCHAR 099A
ENCODING 2458
SWIDTH 360 0
DWIDTH 4 0
BBX 4 6 0 0
BITMAP
F0
40
B0
90
A0
40
ENDCHAR
STARTCHAR 099B
ENCODING 2459
SWIDTH 540 0
DWIDTH 6 0
BBX 5 7 0 -1
BITMAP
F8
E0
B0
50
60
10
08
ENDCHAR
STARTCHAR 099C
ENCODING 2460
SWIDTH 630 0
DWIDTH 7 0
BBX 6 6 0 0
BITMAP
FC
DC
D4
AC
74
04
ENDCHAR
STARTCHAR 099D
ENCODING 2461
SWIDTH 540 0
DWIDTH 6 0
BBX 6 7 0 0
BITMAP
08
7C
38
D8
78
18
10
ENDCHAR
STARTCHAR 099E
ENCODING 2462
SWIDTH 720 0
DWIDTH 8 0
BBX 8 6 0 0
BITMAP
18
27
BB
85
7B
08
ENDCHAR
STARTCHAR 099F
ENCODING 2463
SWIDTH 360 0
DWIDTH 4 0
BBX 4 7 0 2
BITMAP
A0
50
E0
80
90
90
E0
ENDCHAR
STARTCHAR 09A0
ENCODING 2464
SWIDTH 360 0
DWIDTH 4 0
BBX 4 9 0 0
BITMAP
40
40
40
B0
20
30
50
90
60
ENDCHAR
STARTCHAR 09A1
ENCODING 2465
SWIDTH 540 0
DWIDTH 6 0
BBX 5 5 0 1
BITMAP
F8
A0
A8
58
38
ENDCHAR
STARTCHAR 09A2
ENCODING 2466
SWIDTH 360 0
DWIDTH 4 0
BBX 4 6 0 0
BITMAP
F0
80
90
90
90
60
ENDCHAR
STARTCHAR 09A3
ENCODING 2467
SWIDTH 450 0
DWIDTH 5 0
BBX 4 7 1 0
BITMAP
20
F0
A0
A0
20
20
20
ENDCHAR
STARTCHAR 09A4
ENCODING 2468
SWIDTH 540 0
DWIDTH 6 0
BBX 6 6 0 0
BITMAP
FC
38
A8
44
48
30
ENDCHAR
STARTCHAR 09A5
ENCODING 2469
SWIDTH 450 0
DWIDTH 5 0
BBX 5 7 0 0
BITMAP
08
E8
A8
68
28
18
08
ENDCHAR
STARTCHAR 09A6
ENCODING 2470
SWIDTH 450 0
DWIDTH 5 0
BBX 4 6 0 0
BITMAP
F0
90
B0
50
10
10
ENDCHAR
STARTCHAR 09A7
ENCODING 2471
SWIDTH 450 0
DWIDTH 5 0
BBX 5 6 0 0
BITMAP
D8
70
50
30
10
10
ENDCHAR
STARTCHAR 09A8
ENCODING 2472
SWIDTH 450 0
DWIDTH 5 0
BBX 4 6 0 0
BITMAP
F0
10
F0
90
10
10
ENDCHAR
STARTCHAR 09AA
ENCODING 2474
SWIDTH 450 0
DWIDTH 5 0
BBX 5 7 0 0
BITMAP
08
78
D8
28
08
08
08
ENDCHAR
STARTCHAR 09AB
ENCODING 2475
SWIDTH 630 0
DWIDTH 7 0
BBX 5 6 1 0
BITMAP
F8
78
A8
E0
20
20
ENDCHAR
STARTCHAR 09AC
ENCODING 2476
SWIDTH 360 0
DWIDTH 4 0
BBX 4 6 0 0
BITMAP
F0
30
D0
70
10
10
ENDCHAR
STARTCHAR 09AD
ENCODING 2477
SWIDTH 540 0
DWIDTH 6 0
BBX 6 5 0 1
BITMAP
FC
A0
AC
54
38
ENDCHAR
STARTCHAR 09AE
ENCODING 2478
SWIDTH 450 0
DWIDTH 5 0
BBX 5 6 0 0
BITMAP
F8
30
50
90
50
10
ENDCHAR
STARTCHAR 09AF
ENCODING 2479
SWIDTH 450 0
DWIDTH 5 0
BBX 4 6 0 0
BITMAP
F0
30
50
70
10
10
ENDCHAR
STARTCHAR 09B0
ENCODING 2480
SWIDTH 360 0
DWIDTH 4 0
BBX 4 6 0 0
BITMAP
F0
30
D0
70
50
10
ENDCHAR
STARTCHAR 09B2
ENCODING 2482
SWIDTH 540 0
DWIDTH 6 0
BBX 5 6 0 0
BITMAP
78
78
88
88
48
08
ENDCHAR
STARTCHAR 09B6
ENCODING 2486
SWIDTH 540 0
DWIDTH 6 0
BBX 5 7 0 0
BITMAP
08
F8
28
78
08
08
08
ENDCHAR
STARTCHAR 09B7
ENCODING 2487
SWIDTH 450 0
DWIDTH 5 0
BBX 4 6 0 0
BITMAP
F0
30
50
70
10
10
ENDCHAR
STARTCHAR 09B8
ENCODING 2488
SWIDTH 540 0
DWIDTH 6 0
BBX 5 6 0 0
BITMAP
F8
68
38
48
08
08
ENDCHAR
STARTCHAR 09B9
ENCODING 2489
SWIDTH 450 0
DWIDTH 5 0
BBX 4 6 1 -1
BITMAP
F0
E0
A0
E0
60
10
ENDCHAR
STARTCHAR 09BC
ENCODING 2492
SWIDTH 0 0
DWIDTH 0 0
BBX 1 1 -3 -1
BITMAP
80
ENDCHAR
STARTCHAR 09BD
ENCODING 2493
SWIDTH 450 0
DWIDTH 5 0
BBX 5 6 0 -1
BITMAP
E0
50
50
70
20
18
ENDCHAR
STARTCHAR 09BE
ENCODING 2494
SWIDTH 180 0
DWIDTH 2 0
BBX 2 6 0 1
BITMAP
C0
80
80
80
80
80
ENDCHAR
STARTCHAR 09BF
ENCODING 2495
SWIDTH 180 0
DWIDTH 2 0
BBX 5 9 0 0
BITMAP
30
C8
80
C0
80
80
80
80
80
ENDCHAR
STARTCHAR 09C0
ENCODING 2496
SWIDTH 180 0
DWIDTH 2 0
BBX 5 9 -4 0
BITMAP
F0
C8
28
08
08
08
08
08
08
ENDCHAR
STARTCHAR 09C1
ENCODING 2497
SWIDTH 0 0
DWIDTH 0 0
BBX 4 3 -3 -2
BITMAP
20
E0
50
ENDCHAR
STARTCHAR 09C2
ENCODING 2498
SWIDTH 0 0
DWIDTH 0 0
BBX 4 3 -2 -3
BITMAP
C0
C0
30
ENDCHAR
STARTCHAR 09C3
ENCODING 2499
SWIDTH 0 0
DWIDTH 0 0
BBX 3 3 -4 -3
BITMAP
40
C0
20
ENDCHAR
STARTCHAR 09C4
ENCODING 2500
SWIDTH 0 0
DWIDTH 0 0
BBX 3 4 -3 -3
BITMAP
60
40
A0
40
ENDCHAR
STARTCHAR 09C7
ENCODING 2503
SWIDTH 270 0
DWIDTH 3 0
BBX 3 6 0 0
BITMAP
60
40
80
80
80
60
ENDCHAR
STARTCHAR 09C8
ENCODING 2504
SWIDTH 270 0
DWIDTH 3 0
BBX 4 8 -1 1
BITMAP
E0
10
70
20
40
40
40
30
ENDCHAR
STARTCHAR 09CB
ENCODING 2507
SWIDTH 0 0
DWIDTH 0 0
BBX 9 7 -5 0
BITMAP
0080
E180
4080
8080
8080
8080
6080
ENDCHAR
STARTCHAR 09CC
ENCODING 2508
SWIDTH 0 0
DWIDTH 0 0
BBX 9 9 -5 0
BITMAP
0800
0F00
0080
6080
4080
8080
8080
8080
6080
ENDCHAR
STARTCHAR 09CD
ENCODING 2509
SWIDTH 0 0
DWIDTH 0 0
BBX 2 2 -2 -2
BITMAP
80
40
ENDCHAR
STARTCHAR 09CE
ENCODING 2510
SWIDTH 360 0
DWIDTH 4 0
BBX 4 5 0 0
BITMAP
E0
E0
80
60
10
ENDCHAR
STARTCHAR 09D7
ENCODING 2519
SWIDTH 180 0
DWIDTH 2 0
BBX 5 9 -3 0
BITMAP
80
F0
10
08
08
08
08
08
08
ENDCHAR
STARTCHAR 09DC
ENCODING 2524
SWIDTH 540 0
DWIDTH 6 0
BBX 5 7 0 -1
BITMAP
F8
A0
A8
58
28
10
10
ENDCHAR
STARTCHAR 09DD
ENCODING 2525
SWIDTH 360 0
DWIDTH 4 0
BBX 4 7 0 -1
BITMAP
F0
80
90
90
90
60
40
ENDCHAR
STARTCHAR 09DF
ENCODING 2527
SWIDTH 450 0
DWIDTH 5 0
BBX 4 6 0 0
BITMAP
F0
30
50
70
70
10
ENDCHAR
STARTCHAR 09E0
ENCODING 2528
SWIDTH 630 0
DWIDTH 7 0
BBX 6 10 0 -3
BITMAP
14
F4
34
4C
34
14
14
20
10
08
ENDCHAR
STARTCHAR 09E1
ENCODING 2529
SWIDTH 450 0
DWIDTH 5 0
BBX 6 9 1 -2
BITMAP
80
60
78
A8
30
10
0C
1C
08
ENDCHAR
STARTCHAR 09E2
ENCODING 2530
SWIDTH 0 0
DWIDTH 0 0
BBX 3 3 -4 -2
BITMAP
40
E0
60
ENDCHAR
STARTCHAR 09E3
ENCODING 2531
SWIDTH 0 0
DWIDTH 0 0
BBX 6 5 -4 -3
BITMAP
20
18
D4
F8
60
ENDCHAR
STARTCHAR 09E6
ENCODING 2534
SWIDTH 540 0
DWIDTH 6 0
BBX 4 4 1 1
BITMAP
60
90
90
E0
ENDCHAR
STARTCHAR 09E7
ENCODING 2535
SWIDTH 450 0
DWIDTH 5 0
BBX 3 6 1 0
BITMAP
80
80
60
20
A0
C0
ENDCHAR
STARTCHAR 09E8
ENCODING 2536
SWIDTH 450 0
DWIDTH 5 0
BBX 4 7 1 -1
BITMAP
80
60
20
A0
40
20
10
ENDCHAR
STARTCHAR 09E9
ENCODING 2537
SWIDTH 540 0
DWIDTH 6 0
BBX 5 6 0 0
BITMAP
10
E8
A8
48
48
30
ENDCHAR
STARTCHAR 09EA
ENCODING 2538
SWIDTH 450 0
DWIDTH 5 0
BBX 3 6 1 0
BITMAP
E0
A0
40
A0
A0
60
ENDCHAR
STARTCHAR 09EB
ENCODING 2539
SWIDTH 540 0
DWIDTH 6 0
BBX 3 6 1 0
BITMAP
60
A0
A0
C0
C0
60
ENDCHAR
STARTCHAR 09EC
ENCODING 2540
SWIDTH 450 0
DWIDTH 5 0
BBX 5 6 0 0
BITMAP
40
40
B8
88
48
30
ENDCHAR
STARTCHAR 09ED
ENCODING 2541
SWIDTH 540 0
DWIDTH 6 0
BBX 4 6 1 0
BITMAP
60
A0
90
70
10
10
ENDCHAR
STARTCHAR 09EE
ENCODING 2542
SWIDTH 540 0
DWIDTH 6 0
BBX 5 5 0 1
BITMAP
80
78
90
A0
40
ENDCHAR
STARTCHAR 09EF
ENCODING 2543
SWIDTH 450 0
DWIDTH 5 0
BBX 5 5 0 0
BITMAP
80
60
10
68
98
ENDCHAR
STARTCHAR 09F0
ENCODING 2544
SWIDTH 360 0
DWIDTH 4 0
BBX 4 6 0 0
BITMAP
F0
30
F0
70
10
10
ENDCHAR
STARTCHAR 09F1
ENCODING 2545
SWIDTH 360 0
DWIDTH 4 0
BBX 4 6 0 0
BITMAP
F0
30
D0
70
50
10
ENDCHAR
STARTCHAR 09F2
ENCODING 2546
SWIDTH 450 0
DWIDTH 5 0
BBX 5 5 0 1
BITMAP
C0
20
10
10
08
ENDCHAR
STARTCHAR 09F3
ENCODING 2547
SWIDTH 360 0
DWIDTH 4 0
BBX 4 5 0 1
BITMAP
80
80
D0
90
60
ENDCHAR
STARTCHAR 09F4
ENCODING 2548
SWIDTH 450 0
DWIDTH 5 0
BBX 5 5 0 2
BITMAP
08
10
10
20
C0
ENDCHAR
STARTCHAR 09F5
ENCODING 2549
SWIDTH 450 0
DWIDTH 5 0
BBX 6 5 0 1
BITMAP
04
04
E8
10
20
ENDCHAR
STARTCHAR 09F6
ENCODING 2550
SWIDTH 540 0
DWIDTH 6 0
BBX 6 6 0 0
BITMAP
04
24
68
28
D0
60
ENDCHAR
STARTCHAR 09F7
ENCODING 2551
SWIDTH 180 0
DWIDTH 2 0
BBX 1 5 0 1
BITMAP
80
80
80
80
80
ENDCHAR
STARTCHAR 09F8
ENCODING 2552
SWIDTH 360 0
DWIDTH 4 0
BBX 4 6 0 0
BITMAP
80
80
A0
E0
20
10
ENDCHAR
STARTCHAR 09F9
ENCODING 2553
SWIDTH 270 0
DWIDTH 3 0
BBX 4 3 0 2
BITMAP
70
90
F0
ENDCHAR
STARTCHAR 09FA
ENCODING 2554
SWIDTH 360 0
DWIDTH 4 0
BBX 6 4 0 4
BITMAP
04
08
B0
60
ENDCHAR
STARTCHAR 09FB
ENCODING 2555
SWIDTH 360 0
DWIDTH 4 0
BBX 3 5 1 -2
BITMAP
80
80
80
40
20
ENDCHAR
STARTCHAR 0A01
ENCODING 2561
SWIDTH 0 0
DWIDTH 0 0
BBX 3 3 -3 7
BITMAP
40
20
C0
ENDCHAR
STARTCHAR 0A02
ENCODING 2562
SWIDTH 0 0
DWIDTH 0 0
BBX 1 1 -1 8
BITMAP
80
ENDCHAR
STARTCHAR 0A03
ENCODING 2563
SWIDTH 360 0
DWIDTH 4 0
BBX 2 7 1 0
BITMAP
C0
C0
C0
00
C0
C0
80
ENDCHAR
STARTCHAR 0A05
ENCODING 2565
SWIDTH 810 0
DWIDTH 9 0
BBX 10 7 0 0
BITMAP
C9C0
5900
6500
4700
C900
0900
0100
ENDCHAR
STARTCHAR 0A06
ENCODING 2566
SWIDTH 1080 0
DWIDTH 12 0
BBX 12 7 0 0
BITMAP
C9F0
5940
6540
4740
C900
0900
0100
ENDCHAR
STARTCHAR 0A07
ENCODING 2567
SWIDTH 900 0
DWIDTH 10 0
BBX 10 10 0 0
BITMAP
3000
4800
4000
FFC0
5100
4900
4E00
5000
5000
4F00
ENDCHAR
STARTCHAR 0A08
ENCODING 2568
SWIDTH 900 0
DWIDTH 10 0
BBX 10 10 0 0
BITMAP
0700
0900
0100
FFC0
4500
2500
3900
4100
4100
3800
ENDCHAR
STARTCHAR 0A09
ENCODING 2569
SWIDTH 720 0
DWIDTH 8 0
BBX 8 12 0 -2
BITMAP
3C
42
42
FF
42
44
7C
44
24
1C
00
1C
ENDCHAR
STARTCHAR 0A0A
ENCODING 2570
SWIDTH 720 0
DWIDTH 8 0
BBX 8 13 0 -3
BITMAP
3C
42
42
FF
42
44
7C
44
24
1C
00
3C
3C
ENDCHAR
STARTCHAR 0A0F
ENCODING 2575
SWIDTH 630 0
DWIDTH 7 0
BBX 7 10 0 0
BITMAP
30
08
04
FE
44
24
38
40
40
38
ENDCHAR
STARTCHAR 0A10
ENCODING 2576
SWIDTH 810 0
DWIDTH 9 0
BBX 10 11 0 0
BITMAP
0800
0600
1E00
0500
CDC0
5900
6500
4700
C900
0900
0100
ENDCHAR
STARTCHAR 0A13
ENCODING 2579
SWIDTH 720 0
DWIDTH 8 0
BBX 8 10 0 0
BITMAP
3C
40
80
FF
82
84
78
44
44
3C
ENDCHAR
STARTCHAR 0A14
ENCODING 2580
SWIDTH 810 0
DWIDTH 9 0
BBX 10 11 0 0
BITMAP
2000
1E00
0000
0000
C9C0
5900
6500
4700
C900
0900
0100
ENDCHAR
STARTCHAR 0A15
ENCODING 2581
SWIDTH 720 0
DWIDTH 8 0
BBX 8 7 0 0
BITMAP
FF
04
74
8C
8C
54
24
ENDCHAR
STARTCHAR 0A16
ENCODING 2582
SWIDTH 630 0
DWIDTH 7 0
BBX 7 7 0 0
BITMAP
C6
44
7C
44
44
3C
04
ENDCHAR
STARTCHAR 0A17
ENCODING 2583
SWIDTH 720 0
DWIDTH 8 0
BBX 8 7 0 0
BITMAP
FF
14
14
74
94
94
74
ENDCHAR
STARTCHAR 0A18
ENCODING 2584
SWIDTH 720 0
DWIDTH 8 0
BBX 8 7 0 0
BITMAP
C3
52
52
92
92
6E
02
ENDCHAR
STARTCHAR 0A19
ENCODING 2585
SWIDTH 630 0
DWIDTH 7 0
BBX 7 7 0 0
BITMAP
FE
80
7C
04
74
48
34
ENDCHAR
STARTCHAR 0A1A
ENCODING 2586
SWIDTH 630 0
DWIDTH 7 0
BBX 8 7 0 0
BITMAP
FF
04
C4
FC
44
44
38
ENDCHAR
STARTCHAR 0A1B
ENCODING 2587
SWIDTH 630 0
DWIDTH 7 0
BBX 7 7 0 0
BITMAP
FE
04
7C
80
78
94
7C
ENDCHAR
STARTCHAR 0A1C
ENCODING 2588
SWIDTH 630 0
DWIDTH 7 0
BBX 7 7 0 0
BITMAP
FE
04
44
FC
44
44
44
ENDCHAR
STARTCHAR 0A1D
ENCODING 2589
SWIDTH 630 0
DWIDTH 7 0
BBX 7 7 0 0
BITMAP
FE
44
38
44
04
78
20
ENDCHAR
STARTCHAR 0A1E
ENCODING 2590
SWIDTH 630 0
DWIDTH 7 0
BBX 7 7 0 0
BITMAP
FE
44
7C
80
7C
20
1C
ENDCHAR
STARTCHAR 0A1F
ENCODING 2591
SWIDTH 630 0
DWIDTH 7 0
BBX 7 7 0 0
BITMAP
FE
04
1C
60
80
40
38
ENDCHAR
STARTCHAR 0A20
ENCODING 2592
SWIDTH 630 0
DWIDTH 7 0
BBX 7 7 0 0
BITMAP
FE
10
38
44
84
84
78
ENDCHAR
STARTCHAR 0A21
ENCODING 2593
SWIDTH 630 0
DWIDTH 7 0
BBX 7 7 0 0
BITMAP
FE
08
78
04
64
9C
78
ENDCHAR
STARTCHAR 0A22
ENCODING 2594
SWIDTH 630 0
DWIDTH 7 0
BBX 7 7 0 0
BITMAP
FE
04
C4
78
48
34
1C
ENDCHAR
STARTCHAR 0A23
ENCODING 2595
SWIDTH 630 0
DWIDTH 7 0
BBX 7 7 0 0
BITMAP
FE
10
0C
78
80
40
3C
ENDCHAR
STARTCHAR 0A24
ENCODING 2596
SWIDTH 630 0
DWIDTH 7 0
BBX 7 7 0 0
BITMAP
FE
04
08
78
04
04
78
ENDCHAR
STARTCHAR 0A25
ENCODING 2597
SWIDTH 630 0
DWIDTH 7 0
BBX 7 7 0 0
BITMAP
FE
44
44
7C
84
7C
04
ENDCHAR
STARTCHAR 0A26
ENCODING 2598
SWIDTH 630 0
DWIDTH 7 0
BBX 7 7 0 0
BITMAP
FE
04
44
FC
40
40
3C
ENDCHAR
STARTCHAR 0A27
ENCODING 2599
SWIDTH 630 0
DWIDTH 7 0
BBX 7 7 0 0
BITMAP
FE
44
44
44
44
3C
04
ENDCHAR
STARTCHAR 0A28
ENCODING 2600
SWIDTH 630 0
DWIDTH 7 0
BBX 7 7 0 0
BITMAP
FE
10
30
4C
84
84
48
ENDCHAR
STARTCHAR 0A2A
ENCODING 2602
SWIDTH 630 0
DWIDTH 7 0
BBX 7 7 0 0
BITMAP
C6
44
44
44
84
7C
04
ENDCHAR
STARTCHAR 0A2B
ENCODING 2603
SWIDTH 630 0
DWIDTH 7 0
BBX 7 7 0 0
BITMAP
FE
04
7C
80
98
64
3C
ENDCHAR
STARTCHAR 0A2C
ENCODING 2604
SWIDTH 630 0
DWIDTH 7 0
BBX 7 7 0 0
BITMAP
FE
44
24
3C
44
4C
34
ENDCHAR
STARTCHAR 0A2D
ENCODING 2605
SWIDTH 630 0
DWIDTH 7 0
BBX 7 7 0 0
BITMAP
FE
04
78
98
68
08
78
ENDCHAR
STARTCHAR 0A2E
ENCODING 2606
SWIDTH 630 0
DWIDTH 7 0
BBX 7 7 0 0
BITMAP
C6
44
44
7C
44
44
04
ENDCHAR
STARTCHAR 0A2F
ENCODING 2607
SWIDTH 720 0
DWIDTH 8 0
BBX 8 7 0 0
BITMAP
FF
42
42
4E
92
52
22
ENDCHAR
STARTCHAR 0A30
ENCODING 2608
SWIDTH 630 0
DWIDTH 7 0
BBX 7 7 0 0
BITMAP
FE
08
78
88
48
28
18
ENDCHAR
STARTCHAR 0A32
ENCODING 2610
SWIDTH 630 0
DWIDTH 7 0
BBX 8 7 0 0
BITMAP
FF
24
2C
D2
82
82
64
ENDCHAR
STARTCHAR 0A33
ENCODING 2611
SWIDTH 720 0
DWIDTH 8 0
BBX 8 7 0 0
BITMAP
FF
24
34
5A
41
42
A6
ENDCHAR
STARTCHAR 0A35
ENCODING 2613
SWIDTH 630 0
DWIDTH 7 0
BBX 7 7 0 0
BITMAP
FE
04
7C
80
78
20
18
ENDCHAR
STARTCHAR 0A36
ENCODING 2614
SWIDTH 630 0
DWIDTH 7 0
BBX 8 7 0 0
BITMAP
FF
44
44
7C
44
44
54
ENDCHAR
STARTCHAR 0A38
ENCODING 2616
SWIDTH 630 0
DWIDTH 7 0
BBX 8 7 0 0
BITMAP
FF
44
44
7C
44
44
44
ENDCHAR
STARTCHAR 0A39
ENCODING 2617
SWIDTH 630 0
DWIDTH 7 0
BBX 7 7 0 0
BITMAP
FE
08
08
48
88
48
38
ENDCHAR
STARTCHAR 0A3C
ENCODING 2620
SWIDTH 0 0
DWIDTH 0 0
BBX 1 1 -2 -2
BITMAP
80
ENDCHAR
STARTCHAR 0A3E
ENCODING 2622
SWIDTH 270 0
DWIDTH 3 0
BBX 3 4 0 3
BITMAP
E0
40
40
40
ENDCHAR
STARTCHAR 0A3F
ENCODING 2623
SWIDTH 360 0
DWIDTH 4 0
BBX 5 10 0 0
BITMAP
38
40
40
F0
40
40
40
40
40
40
ENDCHAR
STARTCHAR 0A40
ENCODING 2624
SWIDTH 270 0
DWIDTH 3 0
BBX 6 10 -2 0
BITMAP
E0
10
10
3C
10
10
10
10
10
10
ENDCHAR
STARTCHAR 0A41
ENCODING 2625
SWIDTH 0 0
DWIDTH 0 0
BBX 3 1 -5 -2
BITMAP
E0
ENDCHAR
STARTCHAR 0A42
ENCODING 2626
SWIDTH 0 0
DWIDTH 0 0
BBX 4 2 -6 -3
BITMAP
70
F0
ENDCHAR
STARTCHAR 0A47
ENCODING 2631
SWIDTH 0 0
DWIDTH 0 0
BBX 3 2 -5 7
BITMAP
C0
20
ENDCHAR
STARTCHAR 0A48
ENCODING 2632
SWIDTH 0 0
DWIDTH 0 0
BBX 4 5 -6 0
BITMAP
C0
20
F0
40
20
ENDCHAR
STARTCHAR 0A4B
ENCODING 2635
SWIDTH 0 0
DWIDTH 0 0
BBX 3 1 -5 8
BITMAP
E0
ENDCHAR
STARTCHAR 0A4C
ENCODING 2636
SWIDTH 0 0
DWIDTH 0 0
BBX 5 2 -6 9
BITMAP
F8
28
ENDCHAR
STARTCHAR 0A4D
ENCODING 2637
SWIDTH 0 0
DWIDTH 0 0
BBX 2 2 -3 -3
BITMAP
80
40
ENDCHAR
STARTCHAR 0A51
ENCODING 2641
SWIDTH 0 0
DWIDTH 0 0
BBX 3 2 -4 -3
BITMAP
80
60
ENDCHAR
STARTCHAR 0A59
ENCODING 2649
SWIDTH 630 0
DWIDTH 7 0
BBX 7 7 0 0
BITMAP
C6
44
7C
44
44
3C
84
ENDCHAR
STARTCHAR 0A5A
ENCODING 2650
SWIDTH 720 0
DWIDTH 8 0
BBX 9 7 0 0
BITMAP
FF80
0A00
0A00
7A00
4A00
4A00
BA00
ENDCHAR
STARTCHAR 0A5B
ENCODING 2651
SWIDTH 630 0
DWIDTH 7 0
BBX 7 7 0 0
BITMAP
FE
04
44
FC
44
44
54
ENDCHAR
STARTCHAR 0A5C
ENCODING 2652
SWIDTH 630 0
DWIDTH 7 0
BBX 7 7 0 0
BITMAP
FE
04
78
04
04
E8
58
ENDCHAR
STARTCHAR 0A5E
ENCODING 2654
SWIDTH 630 0
DWIDTH 7 0
BBX 7 7 0 0
BITMAP
FE
04
7C
80
9C
64
BC
ENDCHAR
STARTCHAR 0A66
ENCODING 2662
SWIDTH 630 0
DWIDTH 7 0
BBX 7 7 0 0
BITMAP
38
44
82
82
82
44
38
ENDCHAR
STARTCHAR 0A67
ENCODING 2663
SWIDTH 540 0
DWIDTH 6 0
BBX 6 9 0 -1
BITMAP
20
58
88
58
28
08
08
08
04
ENDCHAR
STARTCHAR 0A68
ENCODING 2664
SWIDTH 630 0
DWIDTH 7 0
BBX 6 7 0 0
BITMAP
FC
04
04
04
08
F0
18
ENDCHAR
STARTCHAR 0A69
ENCODING 2665
SWIDTH 630 0
DWIDTH 7 0
BBX 6 7 0 0
BITMAP
FC
04
7C
04
04
F8
08
ENDCHAR
STARTCHAR 0A6A
ENCODING 2666
SWIDTH 540 0
DWIDTH 6 0
BBX 6 7 0 0
BITMAP
48
84
88
78
88
88
78
ENDCHAR
STARTCHAR 0A6B
ENCODING 2667
SWIDTH 540 0
DWIDTH 6 0
BBX 5 7 0 0
BITMAP
C8
48
48
88
88
78
08
ENDCHAR
STARTCHAR 0A6C
ENCODING 2668
SWIDTH 540 0
DWIDTH 6 0
BBX 5 9 0 0
BITMAP
10
20
70
80
80
78
80
80
78
ENDCHAR
STARTCHAR 0A6D
ENCODING 2669
SWIDTH 630 0
DWIDTH 7 0
BBX 5 7 1 0
BITMAP
78
88
08
08
10
20
C0
ENDCHAR
STARTCHAR 0A6E
ENCODING 2670
SWIDTH 630 0
DWIDTH 7 0
BBX 7 7 0 0
BITMAP
40
FE
40
40
40
20
1E
ENDCHAR
STARTCHAR 0A6F
ENCODING 2671
SWIDTH 630 0
DWIDTH 7 0
BBX 7 9 0 0
BITMAP
04
08
48
FC
40
40
40
20
1E
ENDCHAR
STARTCHAR 0A70
ENCODING 2672
SWIDTH 0 0
DWIDTH 0 0
BBX 3 2 -3 8
BITMAP
E0
20
ENDCHAR
STARTCHAR 0A71
ENCODING 2673
SWIDTH 0 0
DWIDTH 0 0
BBX 4 2 -4 8
BITMAP
10
E0
ENDCHAR
STARTCHAR 0A72
ENCODING 2674
SWIDTH 630 0
DWIDTH 7 0
BBX 7 7 0 0
BITMAP
FE
44
24
38
40
40
38
ENDCHAR
STARTCHAR 0A73
ENCODING 2675
SWIDTH 720 0
DWIDTH 8 0
BBX 8 10 0 0
BITMAP
3C
42
42
FF
42
44
7C
44
24
1C
ENDCHAR
STARTCHAR 0A74
ENCODING 2676
SWIDTH 1170 0
DWIDTH 13 0
BBX 17 11 0 -1
BITMAP
000E00
01F100
022080
040000
F7F000
8C2000
D42000
33C000
122000
122000
09E000
ENDCHAR
STARTCHAR 0A75
ENCODING 2677
SWIDTH 0 0
DWIDTH 0 0
BBX 3 3 -3 -3
BITMAP
80
80
60
ENDCHAR
STARTCHAR 0D02
ENCODING 3330
SWIDTH 450 0
DWIDTH 5 0
BBX 4 4 1 0
BITMAP
40
A0
90
E0
ENDCHAR
STARTCHAR 0D03
ENCODING 3331
SWIDTH 270 0
DWIDTH 3 0
BBX 2 6 1 0
BITMAP
C0
C0
00
00
C0
C0
ENDCHAR
STARTCHAR 0D05
ENCODING 3333
SWIDTH 1350 0
DWIDTH 15 0
BBX 14 6 1 0
BITMAP
7F70
9498
A4A4
ACC4
A2A4
5CB8
ENDCHAR
STARTCHAR 0D06
ENCODING 3334
SWIDTH 1530 0
DWIDTH 17 0
BBX 16 8 1 -2
BITMAP
7F70
949C
A4A6
ACA5
A2A5
5CB9
0002
001E
ENDCHAR
STARTCHAR 0D07
ENCODING 3335
SWIDTH 990 0
DWIDTH 11 0
BBX 10 8 1 -2
BITMAP
7F80
ECC0
A440
9440
6480
7F00
8000
FF80
ENDCHAR
STARTCHAR 0D08
ENCODING 3336
SWIDTH 1710 0
DWIDTH 19 0
BBX 18 8 1 -2
BITMAP
7F9F80
ECD640
A46040
944040
648440
7F0780
800000
FF8000
ENDCHAR
STARTCHAR 0D09
ENCODING 3337
SWIDTH 720 0
DWIDTH 8 0
BBX 7 8 1 -2
BITMAP
7C
A6
D2
92
62
7C
80
FC
ENDCHAR
STARTCHAR 0D0A
ENCODING 3338
SWIDTH 1440 0
DWIDTH 16 0
BBX 15 8 1 -2
BITMAP
7CFC
A692
D292
9202
6222
7C3C
8000
FC00
ENDCHAR
STARTCHAR 0D0B
ENCODING 3339
SWIDTH 900 0
DWIDTH 10 0
BBX 9 9 1 -3
BITMAP
6700
9900
F580
8300
7F00
4300
8100
4300
3C00
ENDCHAR
STARTCHAR 0D0C
ENCODING 3340
SWIDTH 1080 0
DWIDTH 12 0
BBX 11 6 1 0
BITMAP
7B80
8440
E5A0
9560
9620
75C0
ENDCHAR
STARTCHAR 0D0E
ENCODING 3342
SWIDTH 1170 0
DWIDTH 13 0
BBX 12 8 1 -2
BITMAP
01E0
0210
7290
8A90
8A90
DF90
0290
03A0
ENDCHAR
STARTCHAR 0D0F
ENCODING 3343
SWIDTH 1260 0
DWIDTH 14 0
BBX 13 8 1 -2
BITMAP
01F0
0110
7288
8A90
8AB0
DF90
0288
0390
ENDCHAR
STARTCHAR 0D10
ENCODING 3344
SWIDTH 1890 0
DWIDTH 21 0
BBX 20 8 1 -2
BITMAP
7C01E0
840220
E2F290
929490
931490
749F90
000290
0003A0
ENDCHAR
STARTCHAR 0D12
ENCODING 3346
SWIDTH 720 0
DWIDTH 8 0
BBX 7 6 1 0
BITMAP
7C
82
E6
96
92
6E
ENDCHAR
STARTCHAR 0D13
ENCODING 3347
SWIDTH 1170 0
DWIDTH 13 0
BBX 12 6 1 0
BITMAP
7CE0
8290
E610
9610
9290
6EE0
ENDCHAR
STARTCHAR 0D14
ENCODING 3348
SWIDTH 1440 0
DWIDTH 16 0
BBX 15 6 1 0
BITMAP
7CFC
8292
E692
9602
9222
6E3C
ENDCHAR
STARTCHAR 0D15
ENCODING 3349
SWIDTH 990 0
DWIDTH 11 0
BBX 9 6 1 0
BITMAP
1C00
2200
7F00
A280
9280
FD80
ENDCHAR
STARTCHAR 0D16
ENCODING 3350
SWIDTH 900 0
DWIDTH 10 0
BBX 9 6 1 0
BITMAP
7880
8480
E280
9280
9480
6780
ENDCHAR
STARTCHAR 0D17
ENCODING 3351
SWIDTH 900 0
DWIDTH 10 0
BBX 9 6 1 0
BITMAP
4700
8880
8880
8880
8880
7100
ENDCHAR
STARTCHAR 0D18
ENCODING 3352
SWIDTH 1350 0
DWIDTH 15 0
BBX 14 6 1 0
BITMAP
71C4
8A24
8A24
9FE4
0204
03FC
ENDCHAR
STARTCHAR 0D19
ENCODING 3353
SWIDTH 990 0
DWIDTH 11 0
BBX 10 6 1 0
BITMAP
7F80
8440
E440
95C0
9440
65C0
ENDCHAR
STARTCHAR 0D1A
ENCODING 3354
SWIDTH 900 0
DWIDTH 10 0
BBX 9 6 1 0
BITMAP
0080
0080
3880
2480
2480
FF80
ENDCHAR
STARTCHAR 0D1B
ENCODING 3355
SWIDTH 1260 0
DWIDTH 14 0
BBX 13 6 1 0
BITMAP
00F0
0138
3A48
4648
2648
FF70
ENDCHAR
STARTCHAR 0D1C
ENCODING 3356
SWIDTH 810 0
DWIDTH 9 0
BBX 8 6 1 0
BITMAP
7F
C9
C9
3F
C5
FF
ENDCHAR
STARTCHAR 0D1D
ENCODING 3357
SWIDTH 1530 0
DWIDTH 17 0
BBX 16 6 1 0
BITMAP
7F12
9591
A491
A491
A491
5C7E
ENDCHAR
STARTCHAR 0D1E
ENCODING 3358
SWIDTH 1350 0
DWIDTH 15 0
BBX 14 6 1 0
BITMAP
7BF8
84C8
E524
9524
9524
64C8
ENDCHAR
STARTCHAR 0D1F
ENCODING 3359
SWIDTH 540 0
DWIDTH 6 0
BBX 5 6 1 0
BITMAP
78
80
80
78
08
F8
ENDCHAR
STARTCHAR 0D20
ENCODING 3360
SWIDTH 630 0
DWIDTH 7 0
BBX 6 6 1 0
BITMAP
78
84
84
84
84
78
ENDCHAR
STARTCHAR 0D21
ENCODING 3361
SWIDTH 1260 0
DWIDTH 14 0
BBX 13 6 1 0
BITMAP
7090
8888
8888
8888
8888
4770
ENDCHAR
STARTCHAR 0D22
ENCODING 3362
SWIDTH 1350 0
DWIDTH 15 0
BBX 14 6 1 0
BITMAP
70B8
88A4
88AC
8894
8988
47F0
ENDCHAR
STARTCHAR 0D23
ENCODING 3363
SWIDTH 1350 0
DWIDTH 15 0
BBX 14 6 1 0
BITMAP
7FF8
8448
E444
9444
9448
E458
ENDCHAR
STARTCHAR 0D24
ENCODING 3364
SWIDTH 990 0
DWIDTH 11 0
BBX 9 6 1 0
BITMAP
7F00
9480
9280
A280
9280
5C80
ENDCHAR
STARTCHAR 0D25
ENCODING 3365
SWIDTH 810 0
DWIDTH 9 0
BBX 8 6 1 0
BITMAP
8E
91
91
91
91
FF
ENDCHAR
STARTCHAR 0D26
ENCODING 3366
SWIDTH 630 0
DWIDTH 7 0
BBX 6 6 1 0
BITMAP
78
84
8C
9C
84
98
ENDCHAR
STARTCHAR 0D27
ENCODING 3367
SWIDTH 900 0
DWIDTH 10 0
BBX 9 6 1 0
BITMAP
4900
8880
8880
8880
8880
7700
ENDCHAR
STARTCHAR 0D28
ENCODING 3368
SWIDTH 900 0
DWIDTH 10 0
BBX 9 6 1 0
BITMAP
7700
8880
8880
8880
8880
4900
ENDCHAR
STARTCHAR 0D29
ENCODING 3369
SWIDTH 900 0
DWIDTH 10 0
BBX 9 6 1 0
BITMAP
7700
8880
C880
A880
A880
E900
ENDCHAR
STARTCHAR 0D2A
ENCODING 3370
SWIDTH 810 0
DWIDTH 9 0
BBX 8 5 1 1
BITMAP
01
71
89
89
9F
ENDCHAR
STARTCHAR 0D2B
ENCODING 3371
SWIDTH 1170 0
DWIDTH 13 0
BBX 12 6 1 0
BITMAP
01E0
0120
7210
8A10
8A10
DFF0
ENDCHAR
STARTCHAR 0D2C
ENCODING 3372
SWIDTH 1170 0
DWIDTH 13 0
BBX 12 6 1 0
BITMAP
7B90
8450
E450
9450
9490
E4F0
ENDCHAR
STARTCHAR 0D2D
ENCODING 3373
SWIDTH 630 0
DWIDTH 7 0
BBX 6 6 1 0
BITMAP
7C
84
B8
A0
9C
BC
ENDCHAR
STARTCHAR 0D2E
ENCODING 3374
SWIDTH 630 0
DWIDTH 7 0
BBX 6 6 1 0
BITMAP
78
94
94
94
A4
FC
ENDCHAR
STARTCHAR 0D2F
ENCODING 3375
SWIDTH 990 0
DWIDTH 11 0
BBX 10 6 1 0
BITMAP
6E40
9140
9140
9140
4A40
3F80
ENDCHAR
STARTCHAR 0D30
ENCODING 3376
SWIDTH 720 0
DWIDTH 8 0
BBX 7 6 1 0
BITMAP
7C
8C
92
A2
A2
5C
ENDCHAR
STARTCHAR 0D31
ENCODING 3377
SWIDTH 630 0
DWIDTH 7 0
BBX 6 6 1 0
BITMAP
78
84
84
84
84
48
ENDCHAR
STARTCHAR 0D32
ENCODING 3378
SWIDTH 810 0
DWIDTH 9 0
BBX 8 6 1 0
BITMAP
78
89
85
FD
81
FF
ENDCHAR
STARTCHAR 0D33
ENCODING 3379
SWIDTH 720 0
DWIDTH 8 0
BBX 7 8 1 -2
BITMAP
7C
82
E2
96
62
7C
80
FC
ENDCHAR
STARTCHAR 0D34
ENCODING 3380
SWIDTH 630 0
DWIDTH 7 0
BBX 6 6 1 0
BITMAP
9C
A4
A4
78
10
70
ENDCHAR
STARTCHAR 0D35
ENCODING 3381
SWIDTH 900 0
DWIDTH 10 0
BBX 9 6 1 0
BITMAP
7880
8480
8480
8480
8480
4F80
ENDCHAR
STARTCHAR 0D36
ENCODING 3382
SWIDTH 990 0
DWIDTH 11 0
BBX 10 6 1 0
BITMAP
4780
89C0
8A40
8A40
8A40
7380
ENDCHAR
STARTCHAR 0D37
ENCODING 3383
SWIDTH 1080 0
DWIDTH 12 0
BBX 11 6 1 0
BITMAP
0720
0920
7560
8BA0
8920
9FE0
ENDCHAR
STARTCHAR 0D38
ENCODING 3384
SWIDTH 1260 0
DWIDTH 14 0
BBX 13 6 1 0
BITMAP
7F10
8888
8888
8888
8888
4870
ENDCHAR
STARTCHAR 0D39
ENCODING 3385
SWIDTH 1170 0
DWIDTH 13 0
BBX 12 6 1 0
BITMAP
01C0
0220
7410
8C10
8A20
DF60
ENDCHAR
STARTCHAR 0D3A
ENCODING 3386
SWIDTH 810 0
DWIDTH 9 0
BBX 8 8 1 -2
BITMAP
80
80
80
80
80
FF
08
08
ENDCHAR
STARTCHAR 0D3D
ENCODING 3389
SWIDTH 720 0
DWIDTH 8 0
BBX 7 11 1 -3
BITMAP
0E
08
10
10
10
38
10
10
20
20
E0
ENDCHAR
STARTCHAR 0D3E
ENCODING 3390
SWIDTH 540 0
DWIDTH 6 0
BBX 5 6 1 0
BITMAP
70
90
08
08
90
70
ENDCHAR
STARTCHAR 0D3F
ENCODING 3391
SWIDTH 180 0
DWIDTH 2 0
BBX 3 9 -1 0
BITMAP
E0
A0
20
20
20
20
20
20
20
ENDCHAR
STARTCHAR 0D40
ENCODING 3392
SWIDTH 180 0
DWIDTH 2 0
BBX 4 9 -2 0
BITMAP
70
B0
50
10
10
10
10
10
10
ENDCHAR
STARTCHAR 0D41
ENCODING 3393
SWIDTH 360 0
DWIDTH 4 0
BBX 3 9 1 -3
BITMAP
80
40
40
40
40
40
E0
A0
E0
ENDCHAR
STARTCHAR 0D42
ENCODING 3394
SWIDTH 360 0
DWIDTH 4 0
BBX 3 9 1 -3
BITMAP
80
40
40
40
40
40
E0
A0
E0
ENDCHAR
STARTCHAR 0D43
ENCODING 3395
SWIDTH 450 0
DWIDTH 5 0
BBX 5 9 0 -3
BITMAP
20
20
20
20
10
10
68
98
70
ENDCHAR
STARTCHAR 0D44
ENCODING 3396
SWIDTH 450 0
DWIDTH 5 0
BBX 5 9 0 -3
BITMAP
20
20
20
20
10
10
68
F8
70
ENDCHAR
STARTCHAR 0D46
ENCODING 3398
SWIDTH 720 0
DWIDTH 8 0
BBX 7 6 1 0
BITMAP
7C
84
E2
92
92
74
ENDCHAR
STARTCHAR 0D47
ENCODING 3399
SWIDTH 540 0
DWIDTH 6 0
BBX 5 6 1 0
BITMAP
78
A8
90
90
A8
78
ENDCHAR
STARTCHAR 0D48
ENCODING 3400
SWIDTH 1350 0
DWIDTH 15 0
BBX 14 6 1 0
BITMAP
7C78
8484
E2E4
9294
9294
74EC
ENDCHAR
STARTCHAR 0D4A
ENCODING 3402
SWIDTH 0 0
DWIDTH 0 0
BBX 14 6 -8 0
BITMAP
7838
8444
E204
9204
9444
7C38
ENDCHAR
STARTCHAR 0D4B
ENCODING 3403
SWIDTH 0 0
DWIDTH 0 0
BBX 12 6 -6 0
BITMAP
70E0
A910
9010
9010
A910
70E0
ENDCHAR
STARTCHAR 0D4C
ENCODING 3404
SWIDTH 0 0
DWIDTH 0 0
BBX 16 6 -8 0
BITMAP
787E
8491
E291
9201
9411
7C1E
ENDCHAR
STARTCHAR 0D4D
ENCODING 3405
SWIDTH 0 0
DWIDTH 0 0
BBX 3 2 -1 6
BITMAP
A0
60
ENDCHAR
STARTCHAR 0D4E
ENCODING 3406
SWIDTH 270 0
DWIDTH 3 0
BBX 1 2 1 6
BITMAP
80
80
ENDCHAR
STARTCHAR 0D57
ENCODING 3415
SWIDTH 720 0
DWIDTH 8 0
BBX 7 6 1 0
BITMAP
FC
A2
A2
02
22
3C
ENDCHAR
STARTCHAR 0D60
ENCODING 3424
SWIDTH 900 0
DWIDTH 10 0
BBX 9 9 1 -3
BITMAP
6700
9900
F580
8300
7F00
4300
BD00
4300
3C00
ENDCHAR
STARTCHAR 0D61
ENCODING 3425
SWIDTH 1170 0
DWIDTH 13 0
BBX 12 8 1 -2
BITMAP
7F80
84E0
E550
9650
9650
75D0
0010
00E0
ENDCHAR
STARTCHAR 0D62
ENCODING 3426
SWIDTH 0 0
DWIDTH 0 0
BBX 7 4 -7 -3
BITMAP
6C
96
DA
DE
ENDCHAR
STARTCHAR 0D63
ENCODING 3427
SWIDTH 0 0
DWIDTH 0 0
BBX 8 5 -8 -3
BITMAP
FC
DB
BB
D5
07
ENDCHAR
STARTCHAR 0D66
ENCODING 3430
SWIDTH 720 0
DWIDTH 8 0
BBX 7 6 1 0
BITMAP
7E
88
88
88
88
70
ENDCHAR
STARTCHAR 0D67
ENCODING 3431
SWIDTH 720 0
DWIDTH 8 0
BBX 8 8 0 -2
BITMAP
1E
12
21
21
21
7F
80
70
ENDCHAR
STARTCHAR 0D68
ENCODING 3432
SWIDTH 720 0
DWIDTH 8 0
BBX 7 6 1 0
BITMAP
78
88
84
84
88
4E
ENDCHAR
STARTCHAR 0D69
ENCODING 3433
SWIDTH 990 0
DWIDTH 11 0
BBX 10 6 1 0
BITMAP
7700
8900
8880
8880
8900
49C0
ENDCHAR
STARTCHAR 0D6A
ENCODING 3434
SWIDTH 630 0
DWIDTH 7 0
BBX 6 8 1 0
BITMAP
10
10
78
94
94
94
94
5C
ENDCHAR
STARTCHAR 0D6B
ENCODING 3435
SWIDTH 900 0
DWIDTH 10 0
BBX 9 10 1 -2
BITMAP
1C00
6300
5C80
A280
C280
CE80
C280
A280
4200
7C00
ENDCHAR
STARTCHAR 0D6C
ENCODING 3436
SWIDTH 1170 0
DWIDTH 13 0
BBX 12 8 1 -2
BITMAP
77E0
8910
8910
8910
8910
4910
0020
01E0
ENDCHAR
STARTCHAR 0D6D
ENCODING 3437
SWIDTH 630 0
DWIDTH 7 0
BBX 6 8 1 -2
BITMAP
78
84
E4
94
94
74
04
78
ENDCHAR
STARTCHAR 0D6E
ENCODING 3438
SWIDTH 810 0
DWIDTH 9 0
BBX 8 8 1 -2
BITMAP
79
89
85
85
85
4F
01
0E
ENDCHAR
STARTCHAR 0D6F
ENCODING 3439
SWIDTH 900 0
DWIDTH 10 0
BBX 9 8 1 0
BITMAP
0200
0200
7700
8A80
8A80
8A80
8A80
4B80
ENDCHAR
STARTCHAR 0D70
ENCODING 3440
SWIDTH 1170 0
DWIDTH 13 0
BBX 12 8 1 -2
BITMAP
1130
1110
1110
1110
1110
1FE0
1000
E000
ENDCHAR
STARTCHAR 0D71
ENCODING 3441
SWIDTH 900 0
DWIDTH 10 0
BBX 9 8 1 -2
BITMAP
7700
8900
8880
8880
8880
4900
0100
0E00
ENDCHAR
STARTCHAR 0D72
ENCODING 3442
SWIDTH 1350 0
DWIDTH 15 0
BBX 14 7 1 0
BITMAP
0018
7728
88A4
88B8
8BC0
8C80
4B80
ENDCHAR
STARTCHAR 0D73
ENCODING 3443
SWIDTH 900 0
DWIDTH 10 0
BBX 9 4 1 2
BITMAP
FF80
8000
C000
C000
ENDCHAR
STARTCHAR 0D74
ENCODING 3444
SWIDTH 900 0
DWIDTH 10 0
BBX 9 9 1 0
BITMAP
0200
0500
0100
3F00
4300
E480
9480
9480
6700
ENDCHAR
STARTCHAR 0D75
ENCODING 3445
SWIDTH 990 0
DWIDTH 11 0
BBX 10 8 1 1
BITMAP
03C0
0040
7F80
8540
E640
9640
9640
65C0
ENDCHAR
STARTCHAR 0D79
ENCODING 3449
SWIDTH 1170 0
DWIDTH 13 0
BBX 11 6 1 0
BITMAP
7700
8880
8880
8BE0
8C80
4B80
ENDCHAR
STARTCHAR 0D7A
ENCODING 3450
SWIDTH 1350 0
DWIDTH 15 0
BBX 14 8 1 1
BITMAP
003C
0004
7FF8
8454
E464
9464
9464
645C
ENDCHAR
STARTCHAR 0D7B
ENCODING 3451
SWIDTH 990 0
DWIDTH 11 0
BBX 10 8 1 0
BITMAP
0380
0080
7F80
8980
8A40
8A40
8A40
4B80
ENDCHAR
STARTCHAR 0D7C
ENCODING 3452
SWIDTH 720 0
DWIDTH 8 0
BBX 7 8 1 0
BITMAP
1C
04
7C
94
92
92
92
5C
ENDCHAR
STARTCHAR 0D7D
ENCODING 3453
SWIDTH 1080 0
DWIDTH 12 0
BBX 11 8 1 0
BITMAP
01C0
0040
7FC0
94E0
9320
A320
9320
5CE0
ENDCHAR
STARTCHAR 0D7E
ENCODING 3454
SWIDTH 990 0
DWIDTH 11 0
BBX 10 8 1 0
BITMAP
0380
0080
4780
89C0
8A40
8A40
8A40
7180
ENDCHAR
STARTCHAR 0D7F
ENCODING 3455
SWIDTH 990 0
DWIDTH 11 0
BBX 10 8 1 0
BITMAP
0780
0080
1C80
1300
7F00
A280
9240
FD80
ENDCHAR
STARTCHAR 10A0
ENCODING 4256
SWIDTH 540 0
DWIDTH 6 0
BBX 5 8 1 0
BITMAP
40
40
30
10
88
88
88
70
ENDCHAR
STARTCHAR 10A1
ENCODING 4257
SWIDTH 630 0
DWIDTH 7 0
BBX 5 8 1 0
BITMAP
80
60
20
70
88
88
88
70
ENDCHAR
STARTCHAR 10A2
ENCODING 4258
SWIDTH 630 0
DWIDTH 7 0
BBX 5 8 1 0
BITMAP
60
90
10
70
88
88
88
70
ENDCHAR
STARTCHAR 10A3
ENCODING 4259
SWIDTH 810 0
DWIDTH 9 0
BBX 7 8 1 0
BITMAP
EE
92
92
92
8C
F0
0C
02
ENDCHAR
STARTCHAR 10A4
ENCODING 4260
SWIDTH 630 0
DWIDTH 7 0
BBX 5 8 1 0
BITMAP
70
88
08
08
08
88
88
70
ENDCHAR
STARTCHAR 10A5
ENCODING 4261
SWIDTH 630 0
DWIDTH 7 0
BBX 5 8 1 0
BITMAP
70
88
08
30
08
88
90
70
ENDCHAR
STARTCHAR 10A6
ENCODING 4262
SWIDTH 810 0
DWIDTH 9 0
BBX 7 8 1 0
BITMAP
E0
90
A0
6C
32
22
22
1C
ENDCHAR
STARTCHAR 10A7
ENCODING 4263
SWIDTH 900 0
DWIDTH 10 0
BBX 8 8 1 0
BITMAP
77
89
89
89
89
89
89
71
ENDCHAR
STARTCHAR 10A8
ENCODING 4264
SWIDTH 630 0
DWIDTH 7 0
BBX 5 8 1 0
BITMAP
70
88
88
88
88
88
88
90
ENDCHAR
STARTCHAR 10A9
ENCODING 4265
SWIDTH 630 0
DWIDTH 7 0
BBX 5 8 1 0
BITMAP
10
08
08
10
88
88
88
70
ENDCHAR
STARTCHAR 10AA
ENCODING 4266
SWIDTH 900 0
DWIDTH 10 0
BBX 9 8 1 0
BITMAP
FF00
A480
A480
8100
8000
F800
0600
0100
ENDCHAR
STARTCHAR 10AB
ENCODING 4267
SWIDTH 630 0
DWIDTH 7 0
BBX 5 8 1 0
BITMAP
70
88
08
68
98
88
88
70
ENDCHAR
STARTCHAR 10AC
ENCODING 4268
SWIDTH 630 0
DWIDTH 7 0
BBX 5 8 1 0
BITMAP
F8
80
80
B0
C8
88
88
70
ENDCHAR
STARTCHAR 10AD
ENCODING 4269
SWIDTH 810 0
DWIDTH 9 0
BBX 7 8 1 0
BITMAP
FC
92
92
92
82
82
82
80
ENDCHAR
STARTCHAR 10AE
ENCODING 4270
SWIDTH 540 0
DWIDTH 6 0
BBX 5 8 1 0
BITMAP
40
60
10
08
30
88
88
F0
ENDCHAR
STARTCHAR 10AF
ENCODING 4271
SWIDTH 630 0
DWIDTH 7 0
BBX 6 8 0 0
BITMAP
04
1C
94
64
04
44
44
38
ENDCHAR
STARTCHAR 10B0
ENCODING 4272
SWIDTH 810 0
DWIDTH 9 0
BBX 7 8 1 0
BITMAP
04
38
40
CC
B2
92
82
82
ENDCHAR
STARTCHAR 10B1
ENCODING 4273
SWIDTH 630 0
DWIDTH 7 0
BBX 5 8 1 0
BITMAP
80
80
80
80
88
88
88
70
ENDCHAR
STARTCHAR 10B2
ENCODING 4274
SWIDTH 810 0
DWIDTH 9 0
BBX 7 8 1 0
BITMAP
38
28
38
AE
AA
92
82
7C
ENDCHAR
STARTCHAR 10B3
ENCODING 4275
SWIDTH 720 0
DWIDTH 8 0
BBX 7 8 0 0
BITMAP
BE
4A
0A
02
02
22
22
1C
ENDCHAR
STARTCHAR 10B4
ENCODING 4276
SWIDTH 810 0
DWIDTH 9 0
BBX 8 8 1 0
BITMAP
FE
91
92
F4
02
41
22
1C
ENDCHAR
STARTCHAR 10B5
ENCODING 4277
SWIDTH 630 0
DWIDTH 7 0
BBX 5 8 1 0
BITMAP
08
08
F8
88
08
88
88
70
ENDCHAR
STARTCHAR 10B6
ENCODING 4278
SWIDTH 810 0
DWIDTH 9 0
BBX 7 7 1 0
BITMAP
EE
92
92
82
80
F0
0C
ENDCHAR
STARTCHAR 10B7
ENCODING 4279
SWIDTH 630 0
DWIDTH 7 0
BBX 5 8 1 0
BITMAP
88
88
D8
28
08
88
88
70
ENDCHAR
STARTCHAR 10B8
ENCODING 4280
SWIDTH 630 0
DWIDTH 7 0
BBX 6 8 0 0
BITMAP
FC
24
04
14
6C
44
44
38
ENDCHAR
STARTCHAR 10B9
ENCODING 4281
SWIDTH 540 0
DWIDTH 6 0
BBX 5 8 1 0
BITMAP
F0
90
E0
A0
D8
88
88
90
ENDCHAR
STARTCHAR 10BA
ENCODING 4282
SWIDTH 720 0
DWIDTH 8 0
BBX 7 8 1 0
BITMAP
40
8C
82
9C
84
82
84
7C
ENDCHAR
STARTCHAR 10BB
ENCODING 4283
SWIDTH 630 0
DWIDTH 7 0
BBX 5 8 1 0
BITMAP
08
08
08
68
98
88
90
70
ENDCHAR
STARTCHAR 10BC
ENCODING 4284
SWIDTH 630 0
DWIDTH 7 0
BBX 6 8 1 0
BITMAP
FC
90
80
B0
C8
88
88
70
ENDCHAR
STARTCHAR 10BD
ENCODING 4285
SWIDTH 630 0
DWIDTH 7 0
BBX 6 8 1 0
BITMAP
08
6C
98
7C
08
88
88
70
ENDCHAR
STARTCHAR 10BE
ENCODING 4286
SWIDTH 630 0
DWIDTH 7 0
BBX 5 8 1 0
BITMAP
80
80
90
E0
98
88
88
70
ENDCHAR
STARTCHAR 10BF
ENCODING 4287
SWIDTH 900 0
DWIDTH 10 0
BBX 8 8 1 0
BITMAP
E6
91
96
18
68
15
95
E2
ENDCHAR
STARTCHAR 10C0
ENCODING 4288
SWIDTH 630 0
DWIDTH 7 0
BBX 5 7 1 1
BITMAP
70
10
18
08
90
88
F0
ENDCHAR
STARTCHAR 10D0
ENCODING 4304
SWIDTH 450 0
DWIDTH 5 0
BBX 4 5 0 0
BITMAP
40
30
10
90
70
ENDCHAR
STARTCHAR 10D1
ENCODING 4305
SWIDTH 450 0
DWIDTH 5 0
BBX 5 8 0 0
BITMAP
40
20
20
30
48
88
88
70
ENDCHAR
STARTCHAR 10D2
ENCODING 4306
SWIDTH 540 0
DWIDTH 6 0
BBX 5 8 0 -3
BITMAP
20
50
50
10
68
88
88
78
ENDCHAR
STARTCHAR 10D3
ENCODING 4307
SWIDTH 720 0
DWIDTH 8 0
BBX 7 8 0 -3
BITMAP
2C
D2
92
92
4C
20
5C
02
ENDCHAR
STARTCHAR 10D4
ENCODING 4308
SWIDTH 450 0
DWIDTH 5 0
BBX 5 8 0 -3
BITMAP
20
50
48
08
08
88
88
70
ENDCHAR
STARTCHAR 10D5
ENCODING 4309
SWIDTH 450 0
DWIDTH 5 0
BBX 5 8 0 -3
BITMAP
20
50
10
30
10
88
90
70
ENDCHAR
STARTCHAR 10D6
ENCODING 4310
SWIDTH 630 0
DWIDTH 7 0
BBX 7 8 0 0
BITMAP
70
90
90
7C
24
22
24
1C
ENDCHAR
STARTCHAR 10D7
ENCODING 4311
SWIDTH 720 0
DWIDTH 8 0
BBX 8 5 0 0
BITMAP
26
D9
89
89
72
ENDCHAR
STARTCHAR 10D8
ENCODING 4312
SWIDTH 450 0
DWIDTH 5 0
BBX 5 5 0 0
BITMAP
20
D0
88
88
50
ENDCHAR
STARTCHAR 10D9
ENCODING 4313
SWIDTH 450 0
DWIDTH 5 0
BBX 5 8 0 -3
BITMAP
10
08
08
10
10
88
90
70
ENDCHAR
STARTCHAR 10DA
ENCODING 4314
SWIDTH 810 0
DWIDTH 9 0
BBX 9 8 0 -3
BITMAP
2900
D680
9480
8080
8000
6000
1E00
0100
ENDCHAR
STARTCHAR 10DB
ENCODING 4315
SWIDTH 450 0
DWIDTH 5 0
BBX 5 8 0 0
BITMAP
70
88
08
28
D8
88
88
70
ENDCHAR
STARTCHAR 10DC
ENCODING 4316
SWIDTH 450 0
DWIDTH 5 0
BBX 5 8 0 0
BITMAP
70
80
80
A0
D0
88
90
70
ENDCHAR
STARTCHAR 10DD
ENCODING 4317
SWIDTH 720 0
DWIDTH 8 0
BBX 7 5 0 0
BITMAP
64
9A
92
82
42
ENDCHAR
STARTCHAR 10DE
ENCODING 4318
SWIDTH 450 0
DWIDTH 5 0
BBX 5 8 0 0
BITMAP
40
30
08
10
10
88
88
70
ENDCHAR
STARTCHAR 10DF
ENCODING 4319
SWIDTH 450 0
DWIDTH 5 0
BBX 5 8 0 -3
BITMAP
08
38
A8
E8
08
48
48
70
ENDCHAR
STARTCHAR 10E0
ENCODING 4320
SWIDTH 720 0
DWIDTH 8 0
BBX 7 7 0 1
BITMAP
0C
30
E4
DA
92
82
42
ENDCHAR
STARTCHAR 10E1
ENCODING 4321
SWIDTH 450 0
DWIDTH 5 0
BBX 5 8 0 0
BITMAP
80
80
80
90
90
88
88
70
ENDCHAR
STARTCHAR 10E2
ENCODING 4322
SWIDTH 720 0
DWIDTH 8 0
BBX 7 10 0 -3
BITMAP
10
28
28
1C
6A
AA
92
82
42
3C
ENDCHAR
STARTCHAR 10E3
ENCODING 4323
SWIDTH 630 0
DWIDTH 7 0
BBX 7 8 0 -3
BITMAP
94
BC
52
02
02
42
44
3C
ENDCHAR
STARTCHAR 10E4
ENCODING 4324
SWIDTH 720 0
DWIDTH 8 0
BBX 7 8 0 -3
BITMAP
24
DA
92
52
22
22
22
1E
ENDCHAR
STARTCHAR 10E5
ENCODING 4325
SWIDTH 450 0
DWIDTH 5 0
BBX 5 11 0 -3
BITMAP
08
08
08
08
78
48
08
08
88
88
70
ENDCHAR
STARTCHAR 10E6
ENCODING 4326
SWIDTH 720 0
DWIDTH 8 0
BBX 7 8 0 -3
BITMAP
24
DA
92
82
40
20
5C
02
ENDCHAR
STARTCHAR 10E7
ENCODING 4327
SWIDTH 450 0
DWIDTH 5 0
BBX 5 8 0 -3
BITMAP
48
48
48
78
08
88
88
70
ENDCHAR
STARTCHAR 10E8
ENCODING 4328
SWIDTH 450 0
DWIDTH 5 0
BBX 5 8 0 0
BITMAP
F8
28
08
28
58
88
88
70
ENDCHAR
STARTCHAR 10E9
ENCODING 4329
SWIDTH 450 0
DWIDTH 5 0
BBX 5 8 0 0
BITMAP
70
90
E0
A0
D0
88
90
90
ENDCHAR
STARTCHAR 10EA
ENCODING 4330
SWIDTH 630 0
DWIDTH 7 0
BBX 7 8 0 -3
BITMAP
08
48
86
84
8C
82
44
3C
ENDCHAR
STARTCHAR 10EB
ENCODING 4331
SWIDTH 450 0
DWIDTH 5 0
BBX 5 8 0 0
BITMAP
08
08
08
28
D8
88
88
70
ENDCHAR
STARTCHAR 10EC
ENCODING 4332
SWIDTH 450 0
DWIDTH 5 0
BBX 5 8 0 0
BITMAP
F8
A0
80
A0
D0
88
90
70
ENDCHAR
STARTCHAR 10ED
ENCODING 4333
SWIDTH 540 0
DWIDTH 6 0
BBX 6 11 0 -3
BITMAP
08
08
08
2C
58
58
2C
08
88
88
70
ENDCHAR
STARTCHAR 10EE
ENCODING 4334
SWIDTH 450 0
DWIDTH 5 0
BBX 5 8 0 0
BITMAP
80
80
A0
A0
D0
88
88
70
ENDCHAR
STARTCHAR 10EF
ENCODING 4335
SWIDTH 630 0
DWIDTH 7 0
BBX 7 8 0 -3
BITMAP
4C
A2
94
18
28
2A
26
E0
ENDCHAR
STARTCHAR 10F0
ENCODING 4336
SWIDTH 450 0
DWIDTH 5 0
BBX 5 8 0 0
BITMAP
40
30
08
18
08
98
88
70
ENDCHAR
STARTCHAR 10F1
ENCODING 4337
SWIDTH 630 0
DWIDTH 7 0
BBX 7 8 0 0
BITMAP
68
64
AC
44
8C
84
42
3C
ENDCHAR
STARTCHAR 10F2
ENCODING 4338
SWIDTH 360 0
DWIDTH 4 0
BBX 4 4 0 0
BITMAP
F0
90
50
F0
ENDCHAR
STARTCHAR 10F3
ENCODING 4339
SWIDTH 450 0
DWIDTH 5 0
BBX 4 7 0 -3
BITMAP
70
20
20
10
90
90
70
ENDCHAR
STARTCHAR 10F4
ENCODING 4340
SWIDTH 450 0
DWIDTH 5 0
BBX 4 11 0 -3
BITMAP
60
90
80
40
30
10
10
30
10
90
70
ENDCHAR
STARTCHAR 10F5
ENCODING 4341
SWIDTH 450 0
DWIDTH 5 0
BBX 5 8 0 0
BITMAP
60
90
90
78
78
90
90
60
ENDCHAR
STARTCHAR 10F9
ENCODING 4345
SWIDTH 540 0
DWIDTH 6 0
BBX 5 8 0 -3
BITMAP
78
88
88
48
30
28
28
10
ENDCHAR
STARTCHAR 10FB
ENCODING 4347
SWIDTH 540 0
DWIDTH 6 0
BBX 4 7 1 -1
BITMAP
80
80
10
10
00
80
80
ENDCHAR
STARTCHAR 10FC
ENCODING 4348
SWIDTH 450 0
DWIDTH 5 0
BBX 3 6 1 3
BITMAP
E0
80
80
E0
A0
E0
ENDCHAR
STARTCHAR 13A0
ENCODING 5024
SWIDTH 630 0
DWIDTH 7 0
BBX 6 8 1 0
BITMAP
F0
88
84
84
84
84
88
F0
ENDCHAR
STARTCHAR 13A1
ENCODING 5025
SWIDTH 720 0
DWIDTH 8 0
BBX 6 8 1 0
BITMAP
F8
88
88
88
F0
90
98
8C
ENDCHAR
STARTCHAR 13A2
ENCODING 5026
SWIDTH 630 0
DWIDTH 7 0
BBX 6 8 0 0
BITMAP
FC
20
20
20
20
20
20
20
ENDCHAR
STARTCHAR 13A3
ENCODING 5027
SWIDTH 720 0
DWIDTH 8 0
BBX 8 8 0 0
BITMAP
18
08
1C
22
E1
A1
A9
E6
ENDCHAR
STARTCHAR 13A4
ENCODING 5028
SWIDTH 990 0
DWIDTH 11 0
BBX 10 8 0 0
BITMAP
3C00
42C0
4140
81C0
8100
C100
4200
3E00
ENDCHAR
STARTCHAR 13A5
ENCODING 5029
SWIDTH 180 0
DWIDTH 2 0
BBX 1 8 1 0
BITMAP
80
00
80
80
80
80
80
80
ENDCHAR
STARTCHAR 13A6
ENCODING 5030
SWIDTH 630 0
DWIDTH 7 0
BBX 5 8 1 0
BITMAP
F0
80
80
60
98
08
08
F8
ENDCHAR
STARTCHAR 13A7
ENCODING 5031
SWIDTH 810 0
DWIDTH 9 0
BBX 8 8 0 0
BITMAP
72
51
91
91
E1
41
43
3E
ENDCHAR
STARTCHAR 13A8
ENCODING 5032
SWIDTH 450 0
DWIDTH 5 0
BBX 4 8 1 0
BITMAP
80
80
D0
E0
80
80
80
80
ENDCHAR
STARTCHAR 13A9
ENCODING 5033
SWIDTH 720 0
DWIDTH 8 0
BBX 7 8 0 0
BITMAP
42
44
24
28
18
10
B0
E0
ENDCHAR
STARTCHAR 13AA
ENCODING 5034
SWIDTH 630 0
DWIDTH 7 0
BBX 7 8 0 0
BITMAP
30
30
28
48
4C
7C
84
86
ENDCHAR
STARTCHAR 13AB
ENCODING 5035
SWIDTH 450 0
DWIDTH 5 0
BBX 4 8 0 0
BITMAP
10
10
10
10
10
90
90
F0
ENDCHAR
STARTCHAR 13AC
ENCODING 5036
SWIDTH 630 0
DWIDTH 7 0
BBX 5 8 1 0
BITMAP
F8
80
80
F8
80
80
80
F8
ENDCHAR
STARTCHAR 13AD
ENCODING 5037
SWIDTH 810 0
DWIDTH 9 0
BBX 8 8 0 0
BITMAP
08
08
E8
BF
EB
0A
0C
08
ENDCHAR
STARTCHAR 13AE
ENCODING 5038
SWIDTH 540 0
DWIDTH 6 0
BBX 5 8 0 0
BITMAP
70
88
08
08
48
70
40
40
ENDCHAR
STARTCHAR 13AF
ENCODING 5039
SWIDTH 720 0
DWIDTH 8 0
BBX 7 8 0 0
BITMAP
1E
12
22
22
3E
22
AA
EE
ENDCHAR
STARTCHAR 13B0
ENCODING 5040
SWIDTH 540 0
DWIDTH 6 0
BBX 4 8 1 0
BITMAP
80
80
80
F0
80
80
80
80
ENDCHAR
STARTCHAR 13B1
ENCODING 5041
SWIDTH 630 0
DWIDTH 7 0
BBX 5 8 1 0
BITMAP
F8
80
80
80
80
80
80
80
ENDCHAR
STARTCHAR 13B2
ENCODING 5042
SWIDTH 810 0
DWIDTH 9 0
BBX 9 8 0 0
BITMAP
1800
2400
2400
2400
2400
E780
9900
FE00
ENDCHAR
STARTCHAR 13B3
ENCODING 5043
SWIDTH 990 0
DWIDTH 11 0
BBX 10 8 0 0
BITMAP
8C40
CC40
4C80
5280
5280
5280
3300
2100
ENDCHAR
STARTCHAR 13B4
ENCODING 5044
SWIDTH 630 0
DWIDTH 7 0
BBX 6 8 0 0
BITMAP
1C
24
10
78
88
84
88
78
ENDCHAR
STARTCHAR 13B5
ENCODING 5045
SWIDTH 540 0
DWIDTH 6 0
BBX 5 8 1 0
BITMAP
F0
88
88
B0
80
80
80
80
ENDCHAR
STARTCHAR 13B6
ENCODING 5046
SWIDTH 720 0
DWIDTH 8 0
BBX 7 8 0 0
BITMAP
3C
42
40
90
9E
42
42
3C
ENDCHAR
STARTCHAR 13B7
ENCODING 5047
SWIDTH 810 0
DWIDTH 9 0
BBX 7 8 1 0
BITMAP
82
C6
C6
CA
AA
AA
B2
92
ENDCHAR
STARTCHAR 13B8
ENCODING 5048
SWIDTH 540 0
DWIDTH 6 0
BBX 5 8 0 0
BITMAP
78
88
08
08
48
38
08
08
ENDCHAR
STARTCHAR 13B9
ENCODING 5049
SWIDTH 900 0
DWIDTH 10 0
BBX 9 8 0 0
BITMAP
1800
0B80
1E80
7000
A800
4800
4800
3800
ENDCHAR
STARTCHAR 13BA
ENCODING 5050
SWIDTH 990 0
DWIDTH 11 0
BBX 10 8 0 0
BITMAP
3C40
4240
4240
81C0
8140
4240
4240
3C40
ENDCHAR
STARTCHAR 13BB
ENCODING 5051
SWIDTH 630 0
DWIDTH 7 0
BBX 6 8 1 0
BITMAP
84
84
84
FC
84
84
84
84
ENDCHAR
STARTCHAR 13BC
ENCODING 5052
SWIDTH 540 0
DWIDTH 6 0
BBX 5 8 0 0
BITMAP
70
20
70
08
08
08
88
70
ENDCHAR
STARTCHAR 13BD
ENCODING 5053
SWIDTH 720 0
DWIDTH 8 0
BBX 7 8 0 0
BITMAP
42
22
24
14
18
C8
50
70
ENDCHAR
STARTCHAR 13BE
ENCODING 5054
SWIDTH 810 0
DWIDTH 9 0
BBX 8 8 0 0
BITMAP
3C
42
41
81
FF
C1
42
3E
ENDCHAR
STARTCHAR 13BF
ENCODING 5055
SWIDTH 540 0
DWIDTH 6 0
BBX 5 9 0 -1
BITMAP
40
40
F0
40
40
48
48
38
18
ENDCHAR
STARTCHAR 13C0
ENCODING 5056
SWIDTH 720 0
DWIDTH 8 0
BBX 8 8 0 0
BITMAP
3C
42
40
80
8F
41
43
3D
ENDCHAR
STARTCHAR 13C1
ENCODING 5057
SWIDTH 810 0
DWIDTH 9 0
BBX 8 8 0 0
BITMAP
1C
14
12
22
22
21
A1
E1
ENDCHAR
STARTCHAR 13C2
ENCODING 5058
SWIDTH 630 0
DWIDTH 7 0
BBX 5 8 1 0
BITMAP
80
80
80
F0
88
88
88
88
ENDCHAR
STARTCHAR 13C3
ENCODING 5059
SWIDTH 630 0
DWIDTH 7 0
BBX 6 8 0 0
BITMAP
FC
04
08
10
20
60
40
FC
ENDCHAR
STARTCHAR 13C4
ENCODING 5060
SWIDTH 630 0
DWIDTH 7 0
BBX 5 8 1 0
BITMAP
F0
88
08
08
88
78
08
08
ENDCHAR
STARTCHAR 13C5
ENCODING 5061
SWIDTH 1080 0
DWIDTH 12 0
BBX 11 8 0 0
BITMAP
3C00
4220
41E0
8180
8100
C100
4200
3E00
ENDCHAR
STARTCHAR 13C6
ENCODING 5062
SWIDTH 630 0
DWIDTH 7 0
BBX 7 8 0 0
BITMAP
FE
10
10
10
10
10
10
FE
ENDCHAR
STARTCHAR 13C7
ENCODING 5063
SWIDTH 810 0
DWIDTH 9 0
BBX 9 8 0 0
BITMAP
1E00
1100
0100
0080
8880
9080
9900
7F00
ENDCHAR
STARTCHAR 13C8
ENCODING 5064
SWIDTH 720 0
DWIDTH 8 0
BBX 8 8 0 0
BITMAP
7E
B1
A9
2E
28
28
28
38
ENDCHAR
STARTCHAR 13C9
ENCODING 5065
SWIDTH 1170 0
DWIDTH 13 0
BBX 12 8 0 0
BITMAP
10B0
B150
7110
0900
0A00
0A00
0600
0400
ENDCHAR
STARTCHAR 13CA
ENCODING 5066
SWIDTH 810 0
DWIDTH 9 0
BBX 9 8 0 0
BITMAP
1E00
1100
0100
0880
8C80
9080
9900
7F00
ENDCHAR
STARTCHAR 13CB
ENCODING 5067
SWIDTH 630 0
DWIDTH 7 0
BBX 6 8 0 0
BITMAP
78
40
40
30
40
8C
44
7C
ENDCHAR
STARTCHAR 13CC
ENCODING 5068
SWIDTH 630 0
DWIDTH 7 0
BBX 6 8 1 0
BITMAP
84
84
FC
84
84
84
8C
F8
ENDCHAR
STARTCHAR 13CD
ENCODING 5069
SWIDTH 900 0
DWIDTH 10 0
BBX 10 8 0 0
BITMAP
1F00
1080
0080
0040
E840
B8C0
A880
E780
ENDCHAR
STARTCHAR 13CE
ENCODING 5070
SWIDTH 630 0
DWIDTH 7 0
BBX 6 8 0 0
BITMAP
18
28
68
48
FC
08
08
08
ENDCHAR
STARTCHAR 13CF
ENCODING 5071
SWIDTH 630 0
DWIDTH 7 0
BBX 6 8 1 0
BITMAP
80
80
80
F8
88
84
88
F8
ENDCHAR
STARTCHAR 13D0
ENCODING 5072
SWIDTH 540 0
DWIDTH 6 0
BBX 5 8 0 0
BITMAP
20
20
20
B8
E8
20
20
20
ENDCHAR
STARTCHAR 13D1
ENCODING 5073
SWIDTH 720 0
DWIDTH 8 0
BBX 7 8 0 0
BITMAP
70
5E
7A
22
40
B0
90
70
ENDCHAR
STARTCHAR 13D2
ENCODING 5074
SWIDTH 630 0
DWIDTH 7 0
BBX 5 8 1 0
BITMAP
F8
88
88
C8
B0
98
88
88
ENDCHAR
STARTCHAR 13D3
ENCODING 5075
SWIDTH 540 0
DWIDTH 6 0
BBX 4 8 1 0
BITMAP
80
80
80
80
80
90
90
F0
ENDCHAR
STARTCHAR 13D4
ENCODING 5076
SWIDTH 900 0
DWIDTH 10 0
BBX 10 8 0 0
BITMAP
9440
8C80
4C80
4880
6D00
2D00
3500
1200
ENDCHAR
STARTCHAR 13D5
ENCODING 5077
SWIDTH 630 0
DWIDTH 7 0
BBX 5 8 1 0
BITMAP
F0
98
80
60
18
08
08
F8
ENDCHAR
STARTCHAR 13D6
ENCODING 5078
SWIDTH 720 0
DWIDTH 8 0
BBX 7 8 0 0
BITMAP
F0
90
10
10
16
12
12
1E
ENDCHAR
STARTCHAR 13D7
ENCODING 5079
SWIDTH 540 0
DWIDTH 6 0
BBX 5 8 0 0
BITMAP
08
08
08
18
38
28
C8
88
ENDCHAR
STARTCHAR 13D8
ENCODING 5080
SWIDTH 540 0
DWIDTH 6 0
BBX 5 8 0 0
BITMAP
78
08
08
08
18
28
C8
C8
ENDCHAR
STARTCHAR 13D9
ENCODING 5081
SWIDTH 630 0
DWIDTH 7 0
BBX 6 8 0 0
BITMAP
84
84
44
48
68
28
30
10
ENDCHAR
STARTCHAR 13DA
ENCODING 5082
SWIDTH 630 0
DWIDTH 7 0
BBX 5 8 1 0
BITMAP
F0
80
80
60
10
08
08
F8
ENDCHAR
STARTCHAR 13DB
ENCODING 5083
SWIDTH 900 0
DWIDTH 10 0
BBX 9 8 0 0
BITMAP
3B80
4480
7480
9180
8800
8800
5000
7000
ENDCHAR
STARTCHAR 13DC
ENCODING 5084
SWIDTH 720 0
DWIDTH 8 0
BBX 8 8 0 0
BITMAP
18
28
18
38
66
AA
A9
E7
ENDCHAR
STARTCHAR 13DD
ENCODING 5085
SWIDTH 540 0
DWIDTH 6 0
BBX 5 8 1 0
BITMAP
F0
90
90
80
80
80
80
F8
ENDCHAR
STARTCHAR 13DE
ENCODING 5086
SWIDTH 540 0
DWIDTH 6 0
BBX 5 8 1 0
BITMAP
80
80
80
80
80
80
80
F8
ENDCHAR
STARTCHAR 13DF
ENCODING 5087
SWIDTH 720 0
DWIDTH 8 0
BBX 7 8 0 0
BITMAP
3C
42
40
80
80
42
42
3C
ENDCHAR
STARTCHAR 13E0
ENCODING 5088
SWIDTH 720 0
DWIDTH 8 0
BBX 8 8 0 0
BITMAP
04
64
A4
A4
7F
24
24
1C
ENDCHAR
STARTCHAR 13E1
ENCODING 5089
SWIDTH 810 0
DWIDTH 9 0
BBX 9 8 0 0
BITMAP
7F00
4C80
D480
1300
1200
1200
1600
1C00
ENDCHAR
STARTCHAR 13E2
ENCODING 5090
SWIDTH 630 0
DWIDTH 7 0
BBX 5 8 1 0
BITMAP
F8
88
88
88
F0
80
80
80
ENDCHAR
STARTCHAR 13E3
ENCODING 5091
SWIDTH 720 0
DWIDTH 8 0
BBX 7 8 0 0
BITMAP
3C
46
46
80
80
46
42
3C
ENDCHAR
STARTCHAR 13E4
ENCODING 5092
SWIDTH 720 0
DWIDTH 8 0
BBX 8 8 0 0
BITMAP
FB
A2
24
24
28
28
30
30
ENDCHAR
STARTCHAR 13E5
ENCODING 5093
SWIDTH 720 0
DWIDTH 8 0
BBX 7 8 1 0
BITMAP
80
8C
9A
F6
90
90
90
90
ENDCHAR
STARTCHAR 13E6
ENCODING 5094
SWIDTH 720 0
DWIDTH 8 0
BBX 6 8 1 0
BITMAP
88
90
A0
E0
B0
90
88
8C
ENDCHAR
STARTCHAR 13E7
ENCODING 5095
SWIDTH 540 0
DWIDTH 6 0
BBX 5 8 0 0
BITMAP
08
08
08
78
C8
88
88
78
ENDCHAR
STARTCHAR 13E8
ENCODING 5096
SWIDTH 810 0
DWIDTH 9 0
BBX 8 8 0 0
BITMAP
38
47
41
80
80
41
47
3E
ENDCHAR
STARTCHAR 13E9
ENCODING 5097
SWIDTH 990 0
DWIDTH 11 0
BBX 10 9 0 -1
BITMAP
3C00
4200
4000
8000
8000
C200
4200
3D00
01C0
ENDCHAR
STARTCHAR 13EA
ENCODING 5098
SWIDTH 900 0
DWIDTH 10 0
BBX 9 8 0 0
BITMAP
3B80
2A80
2A80
2580
2880
2880
9980
7F00
ENDCHAR
STARTCHAR 13EB
ENCODING 5099
SWIDTH 810 0
DWIDTH 9 0
BBX 8 8 0 0
BITMAP
3C
42
71
91
89
CF
42
3E
ENDCHAR
STARTCHAR 13EC
ENCODING 5100
SWIDTH 810 0
DWIDTH 9 0
BBX 8 8 0 0
BITMAP
77
55
91
91
E1
41
43
3E
ENDCHAR
STARTCHAR 13ED
ENCODING 5101
SWIDTH 630 0
DWIDTH 7 0
BBX 6 8 0 0
BITMAP
1C
14
24
14
1C
04
8C
78
ENDCHAR
STARTCHAR 13EE
ENCODING 5102
SWIDTH 630 0
DWIDTH 7 0
BBX 6 8 0 0
BITMAP
38
44
40
B8
C4
84
44
78
ENDCHAR
STARTCHAR 13EF
ENCODING 5103
SWIDTH 810 0
DWIDTH 9 0
BBX 9 8 0 0
BITMAP
1E00
1100
0100
1C80
8880
9080
9900
7F00
ENDCHAR
STARTCHAR 13F0
ENCODING 5104
SWIDTH 630 0
DWIDTH 7 0
BBX 7 8 0 0
BITMAP
3C
24
44
58
44
C2
44
FC
ENDCHAR
STARTCHAR 13F1
ENCODING 5105
SWIDTH 720 0
DWIDTH 8 0
BBX 7 8 0 0
BITMAP
18
08
1C
22
22
42
CA
CE
ENDCHAR
STARTCHAR 13F2
ENCODING 5106
SWIDTH 630 0
DWIDTH 7 0
BBX 5 8 1 0
BITMAP
F0
98
80
F0
88
88
88
88
ENDCHAR
STARTCHAR 13F3
ENCODING 5107
SWIDTH 900 0
DWIDTH 10 0
BBX 9 8 0 0
BITMAP
3E00
4380
4000
8000
8F00
4100
4300
3D00
ENDCHAR
STARTCHAR 13F4
ENCODING 5108
SWIDTH 630 0
DWIDTH 7 0
BBX 6 8 1 0
BITMAP
F8
88
88
F8
88
84
88
F8
ENDCHAR
STARTCHAR 1400
ENCODING 5120
SWIDTH 540 0
DWIDTH 6 0
BBX 5 3 1 1
BITMAP
F8
00
F8
ENDCHAR
STARTCHAR 1401
ENCODING 5121
SWIDTH 900 0
DWIDTH 10 0
BBX 8 8 1 0
BITMAP
FF
81
42
22
24
14
18
10
ENDCHAR
STARTCHAR 1402
ENCODING 5122
SWIDTH 900 0
DWIDTH 10 0
BBX 9 10 1 0
BITMAP
0800
0000
1000
1800
1400
2400
2200
4200
8100
FF80
ENDCHAR
STARTCHAR 1403
ENCODING 5123
SWIDTH 900 0
DWIDTH 10 0
BBX 9 8 1 0
BITMAP
1000
1800
1400
2400
2200
4200
8100
FF80
ENDCHAR
STARTCHAR 1404
ENCODING 5124
SWIDTH 900 0
DWIDTH 10 0
BBX 9 10 1 0
BITMAP
0800
0800
1000
1800
1400
2400
2200
4200
8100
FF80
ENDCHAR
STARTCHAR 1405
ENCODING 5125
SWIDTH 720 0
DWIDTH 8 0
BBX 6 8 1 0
BITMAP
80
C0
B0
8C
8C
B0
C0
80
ENDCHAR
STARTCHAR 1406
ENCODING 5126
SWIDTH 720 0
DWIDTH 8 0
BBX 6 8 1 1
BITMAP
80
C0
B0
8C
8C
B0
C0
80
ENDCHAR
STARTCHAR 1407
ENCODING 5127
SWIDTH 720 0
DWIDTH 8 0
BBX 6 9 1 0
BITMAP
28
A8
C0
B0
8C
8C
B0
C0
80
ENDCHAR
STARTCHAR 1408
ENCODING 5128
SWIDTH 720 0
DWIDTH 8 0
BBX 6 8 1 0
BITMAP
80
C0
B0
8C
8C
B0
C0
80
ENDCHAR
STARTCHAR 1409
ENCODING 5129
SWIDTH 720 0
DWIDTH 8 0
BBX 6 8 1 0
BITMAP
80
C0
B0
CC
CC
B0
C0
80
ENDCHAR
STARTCHAR 140A
ENCODING 5130
SWIDTH 720 0
DWIDTH 8 0
BBX 6 8 1 0
BITMAP
04
0C
34
C4
C4
34
0C
04
ENDCHAR
STARTCHAR 140B
ENCODING 5131
SWIDTH 720 0
DWIDTH 8 0
BBX 6 8 1 1
BITMAP
04
0C
34
C4
C4
34
0C
04
ENDCHAR
STARTCHAR 140C
ENCODING 5132
SWIDTH 900 0
DWIDTH 10 0
BBX 8 8 1 0
BITMAP
FF
81
42
A2
A4
14
18
10
ENDCHAR
STARTCHAR 140D
ENCODING 5133
SWIDTH 900 0
DWIDTH 10 0
BBX 9 8 1 0
BITMAP
FF00
8100
4200
2280
2480
1400
1800
1000
ENDCHAR
STARTCHAR 140E
ENCODING 5134
SWIDTH 900 0
DWIDTH 10 0
BBX 9 8 1 0
BITMAP
1000
1800
1400
A400
A200
4200
8100
FF80
ENDCHAR
STARTCHAR 140F
ENCODING 5135
SWIDTH 900 0
DWIDTH 10 0
BBX 9 8 1 0
BITMAP
1000
1800
1400
2480
2280
4200
8100
FF80
ENDCHAR
STARTCHAR 1410
ENCODING 5136
SWIDTH 900 0
DWIDTH 10 0
BBX 9 10 1 0
BITMAP
0800
0800
1000
1800
1400
A400
A200
4200
8100
FF80
ENDCHAR
STARTCHAR 1411
ENCODING 5137
SWIDTH 900 0
DWIDTH 10 0
BBX 9 10 1 0
BITMAP
0800
0800
1000
1800
1400
2480
2280
4200
8100
FF80
ENDCHAR
STARTCHAR 1412
ENCODING 5138
SWIDTH 900 0
DWIDTH 10 0
BBX 8 8 1 0
BITMAP
40
70
4C
C2
C7
4C
70
40
ENDCHAR
STARTCHAR 1413
ENCODING 5139
SWIDTH 900 0
DWIDTH 10 0
BBX 8 8 1 0
BITMAP
80
C0
B0
8D
8D
B0
C0
80
ENDCHAR
STARTCHAR 1414
ENCODING 5140
SWIDTH 900 0
DWIDTH 10 0
BBX 8 10 1 0
BITMAP
20
20
40
70
4C
C2
C7
4C
70
40
ENDCHAR
STARTCHAR 1415
ENCODING 5141
SWIDTH 900 0
DWIDTH 10 0
BBX 8 10 1 0
BITMAP
40
40
80
C0
B0
8D
8D
B0
C0
80
ENDCHAR
STARTCHAR 1416
ENCODING 5142
SWIDTH 720 0
DWIDTH 8 0
BBX 6 9 1 0
BITMAP
40
C8
C8
B0
8C
8C
B0
C0
80
ENDCHAR
STARTCHAR 1417
ENCODING 5143
SWIDTH 900 0
DWIDTH 10 0
BBX 8 8 1 0
BITMAP
01
03
0D
B1
B1
0D
03
01
ENDCHAR
STARTCHAR 1418
ENCODING 5144
SWIDTH 900 0
DWIDTH 10 0
BBX 8 8 1 0
BITMAP
04
0C
34
C5
C5
34
0C
04
ENDCHAR
STARTCHAR 1419
ENCODING 5145
SWIDTH 900 0
DWIDTH 10 0
BBX 8 10 1 0
BITMAP
02
02
01
03
0D
B1
B1
0D
03
01
ENDCHAR
STARTCHAR 141A
ENCODING 5146
SWIDTH 900 0
DWIDTH 10 0
BBX 8 10 1 0
BITMAP
08
08
04
0C
34
C5
C5
34
0C
04
ENDCHAR
STARTCHAR 141B
ENCODING 5147
SWIDTH 720 0
DWIDTH 8 0
BBX 6 9 1 0
BITMAP
08
4C
4C
34
C4
C4
34
0C
04
ENDCHAR
STARTCHAR 141C
ENCODING 5148
SWIDTH 450 0
DWIDTH 5 0
BBX 4 3 1 5
BITMAP
D0
D0
F0
ENDCHAR
ENDFONT
